<svg width="518" height="492" viewBox="0 0 518 492" fill="none" xmlns="http://www.w3.org/2000/svg">
<path d="M87.9542 220.58H33.3197V235.038H87.9542V220.58Z" fill="#EBEBEB"/>
<path d="M64.8539 250.271C64.8539 250.271 64.8539 250.17 64.8539 250.002V249.26C64.8539 248.586 64.8539 247.631 64.8539 246.418C64.8539 243.924 64.8539 240.329 64.764 235.813L64.9325 235.982L10.2194 236.116L10.5002 235.847V239.487C10.5002 240.711 10.5002 241.924 10.5002 243.138V250.249L10.2306 249.968L49.1654 250.091L60.6538 250.17H63.7646H64.5731H64.8651H64.6068H63.8207H60.7774L49.3451 250.249L10.2194 250.372H9.94989V250.103C9.94989 247.777 9.94989 245.396 9.94989 242.992V235.667L10.2306 235.386L64.8651 235.487H65.0336V235.656C65.0336 240.217 64.9662 243.845 64.9437 246.362C64.9437 247.564 64.9437 248.496 64.9437 249.17C64.9437 249.462 64.9437 249.698 64.9437 249.878C64.9421 250.014 64.9115 250.148 64.8539 250.271Z" fill="#E0E0E0"/>
<path d="M293.173 0.181885H238.539V14.6399H293.173V0.181885Z" fill="#EBEBEB"/>
<path d="M270.073 29.8732C270.068 29.7871 270.068 29.7009 270.073 29.6148V28.8734C270.073 28.1881 270.073 27.2444 270.073 26.0312C270.073 23.526 270.073 19.9424 269.983 15.4151L270.151 15.5836L215.517 15.696L215.798 15.4151V22.7396C215.798 25.1512 215.798 27.5215 215.798 29.8507L215.528 29.5811L254.463 29.7047L265.951 29.7833H269.062H269.882H270.163C270.163 29.7833 270.084 29.7833 269.916 29.7833H269.13H266.086L254.654 29.8507L215.528 29.9855H215.203V29.7047C215.203 27.3792 215.203 25.0089 215.203 22.5936V15.4376L215.483 15.1567L270.118 15.2691H270.23V15.4376C270.23 20.0098 270.163 23.6271 270.14 26.1547C270.14 27.3455 270.14 28.2892 270.14 28.952C270.14 29.2441 270.14 29.48 270.14 29.671C270.14 29.8619 270.084 29.8844 270.073 29.8732Z" fill="#E0E0E0"/>
<path d="M508.69 38.2312H454.056V52.6893H508.69V38.2312Z" fill="#F5F5F5"/>
<path d="M485.59 37.8716C485.58 37.7858 485.58 37.6991 485.59 37.6133V36.8718C485.59 36.1865 485.59 35.2429 485.59 34.0296C485.59 31.5357 485.534 27.9409 485.5 23.4136L485.668 23.5821L431.034 23.6944C431.158 23.5709 430.753 23.9753 431.304 23.4136V37.8716L431.034 37.602L469.969 37.7256L481.457 37.8042H484.568H485.376H485.668C485.583 37.8148 485.496 37.8148 485.41 37.8042H484.635H481.581L470.126 38.0289L431 38.1525H430.72V23.4248C431.27 22.8744 430.877 23.2788 431 23.1552L485.635 23.2563H485.803V23.4248C485.803 27.997 485.736 31.6143 485.713 34.142C485.713 35.344 485.713 36.2764 485.713 36.9505C485.713 37.2425 485.713 37.4672 485.713 37.6582C485.679 37.7329 485.637 37.8043 485.59 37.8716Z" fill="#E0E0E0"/>
<path d="M79.6439 41.9835C79.6339 41.8976 79.6339 41.8109 79.6439 41.7251V40.9836C79.6439 40.2984 79.6439 39.3547 79.6439 38.1414C79.6439 35.6475 79.6439 32.0527 79.5428 27.5254L79.7225 27.6939L25.088 27.8062C25.2115 27.6827 24.8072 28.0871 25.3575 27.5254V41.9835L24.9982 41.77L63.933 41.8936L75.4326 41.9722H78.5433H79.3519H79.6439C79.5581 41.9822 79.4714 41.9822 79.3856 41.9722H78.6107H75.5561L64.1239 42.0509L24.9982 42.1744H24.7286V34.8724C24.7286 33.6704 24.7286 32.4571 24.7286 31.2326V27.5366C25.2901 26.9862 24.8859 27.3906 25.0206 27.267L79.6551 27.3681H79.8236V27.5366C79.8236 32.1088 79.7449 35.7262 79.7225 38.2538C79.7225 39.4558 79.7225 40.3882 79.7225 41.0623C79.7225 41.3544 79.7225 41.579 79.7225 41.77C79.7022 41.8432 79.6759 41.9146 79.6439 41.9835Z" fill="#E0E0E0"/>
<path d="M514.732 265.213C514.724 265.123 514.724 265.033 514.732 264.943V264.202C514.732 263.528 514.732 262.573 514.732 261.36C514.732 258.866 514.732 255.271 514.642 250.755L514.811 250.923L460.176 251.024L460.446 250.755V265.213L460.176 264.932L499.111 265.056L510.599 265.134H513.71H514.519H514.811H514.552H513.777H510.734L499.302 265.213L460.176 265.336H459.895V250.777L460.176 250.496L514.811 250.597H514.979V250.721C514.979 255.282 514.912 258.911 514.889 261.427C514.889 262.629 514.889 263.561 514.889 264.235C514.889 264.528 514.889 264.763 514.889 264.943C514.844 265.037 514.792 265.127 514.732 265.213Z" fill="#E0E0E0"/>
<path d="M407.878 381.427C407.868 381.342 407.868 381.255 407.878 381.169V380.428C407.878 379.742 407.878 378.799 407.878 377.574C407.878 375.08 407.821 371.497 407.788 366.969L407.956 367.138L353.322 367.25C353.445 367.127 353.041 367.531 353.591 366.969V381.405L353.322 381.135L392.256 381.259L403.745 381.337H406.856H407.664H407.956H407.698H406.923H403.88L392.447 381.416L353.322 381.54H353.041V366.992L353.322 366.711L407.956 366.823H408.125V366.992C408.125 371.564 408.057 375.181 408.035 377.698C408.035 378.9 408.035 379.843 408.035 380.506C408.035 380.798 408.035 381.034 408.035 381.225C407.989 381.297 407.936 381.365 407.878 381.427Z" fill="#E0E0E0"/>
<path d="M116.265 146.841C116.261 146.755 116.261 146.668 116.265 146.582V145.841C116.265 145.156 116.265 144.212 116.265 142.999C116.265 140.494 116.265 136.91 116.175 132.383L116.344 132.551L61.7095 132.664L61.9902 132.383V136.135C61.9902 137.359 61.9902 138.584 61.9902 139.786V146.897L61.7207 146.627L100.655 146.751L112.144 146.829H115.255H116.063H116.355C116.355 146.829 116.277 146.829 116.108 146.829H115.255H112.211L100.779 146.897L61.6533 147.032H61.3501V146.751C61.3501 144.429 61.3501 142.059 61.3501 139.64V132.315L61.6309 132.034L116.265 132.147H116.434V132.315C116.434 136.887 116.366 140.505 116.344 143.032C116.344 144.223 116.344 145.167 116.344 145.83V146.549C116.277 146.773 116.277 146.852 116.265 146.841Z" fill="#E0E0E0"/>
<path d="M123.677 132.383C123.668 132.293 123.668 132.203 123.677 132.113C123.677 131.9 123.677 131.652 123.677 131.338C123.677 130.63 123.677 129.664 123.677 128.44C123.677 125.912 123.61 122.328 123.565 117.925L123.767 118.127L90.9414 118.205C90.6831 118.453 91.2783 117.868 91.2109 117.925V125.361C91.2109 127.777 91.2109 130.125 91.2109 132.371L90.9526 132.113L114.435 132.237L121.274 132.304H123.116H123.778C123.58 132.32 123.381 132.32 123.183 132.304H121.386L114.648 132.383L90.9863 132.506H90.5483V132.237C90.5483 129.99 90.5483 127.642 90.5483 125.227V117.936L90.8291 117.655L123.655 117.734H123.857V117.936C123.857 122.429 123.767 126.013 123.745 128.574C123.745 129.776 123.745 130.731 123.745 131.428C123.745 132.124 123.688 132.394 123.677 132.383Z" fill="#E0E0E0"/>
<path d="M345.101 246.059C345.101 246.059 336.207 245.373 336.937 265.336C337.667 285.299 339.655 295.926 339.655 295.926C339.655 295.926 339.374 300.352 335.949 299.476C332.523 298.6 326.111 294.252 322.911 297.454C319.71 300.656 320.743 305.902 325.1 311.957C329.458 318.012 338.498 331.616 339.306 332.852C340.115 334.088 340.429 336.323 337.993 336.099C335.556 335.874 319.193 330.234 316.992 338.166C314.791 346.097 329.682 360.959 331.277 362.611C332.872 364.262 332.95 365.307 332.299 366.307C331.648 367.306 326.324 364.891 321.597 363.476C316.869 362.06 311.164 361.229 310.265 365.936C309.367 370.643 315.88 384.359 340.519 398.885L352.356 404.861L363.586 397.739C386.776 381.045 392.021 366.767 390.707 362.184C389.393 357.6 383.766 358.926 379.196 360.768C374.625 362.611 369.549 365.486 368.808 364.554C368.067 363.622 368.044 362.577 369.482 360.779C370.919 358.982 384.395 342.805 381.476 335.132C378.556 327.46 362.777 334.537 360.385 334.986C357.993 335.436 358.083 333.155 358.768 331.875C359.453 330.594 367.236 316.203 371.02 309.777C374.805 303.352 375.512 298.139 371.874 295.173C368.235 292.208 362.396 297.173 359.071 298.364C355.747 299.555 355.062 295.173 355.062 295.173C355.062 295.173 356.073 284.4 354.984 264.46C353.894 244.52 344.877 246.081 344.877 246.081" fill="#EBEBEB"/>
<path d="M345.719 263.932C345.719 263.932 345.719 264.067 345.719 264.348C345.719 264.628 345.775 265.044 345.809 265.572C345.887 266.695 345.977 268.257 346.112 270.29C346.37 274.379 346.685 280.311 347.055 287.635C347.808 302.24 348.672 322.528 349.548 344.928C350.424 367.329 351.233 387.55 351.895 402.221C352.232 409.535 352.513 415.455 352.704 419.578C352.794 421.6 352.861 423.195 352.917 424.285C352.917 424.813 352.917 425.217 352.917 425.521V425.936C352.917 425.936 352.917 425.801 352.917 425.521C352.917 425.24 352.861 424.813 352.828 424.296C352.76 423.173 352.659 421.611 352.524 419.578C352.277 415.489 351.952 409.557 351.581 402.233C350.829 387.629 349.964 367.34 349.088 344.94C348.212 322.539 347.403 302.329 346.741 287.647C346.404 280.333 346.123 274.413 345.932 270.29C345.842 268.257 345.775 266.673 345.719 265.572C345.719 265.055 345.719 264.64 345.719 264.348V263.932Z" fill="#E0E0E0"/>
<path d="M331.659 303.88C331.926 304.056 332.171 304.264 332.389 304.498C332.849 304.913 333.512 305.542 334.264 306.318C335.825 307.879 337.925 310.092 340.182 312.575L345.966 318.945L347.718 320.877C347.956 321.091 348.164 321.336 348.335 321.607C348.064 321.437 347.815 321.233 347.594 321C347.145 320.585 346.471 319.956 345.73 319.169C344.192 317.596 342.114 315.361 339.857 312.878C337.6 310.396 335.601 308.239 334.028 306.542L332.265 304.644C332.028 304.419 331.824 304.162 331.659 303.88Z" fill="#E0E0E0"/>
<path d="M349.515 321.225C349.425 321.135 353.793 316.608 359.251 311.114C364.709 305.621 369.235 301.229 369.358 301.318C369.482 301.408 365.08 305.936 359.611 311.429C354.141 316.922 349.605 321.315 349.515 321.225Z" fill="#E0E0E0"/>
<path d="M349.313 355.634C349.566 355.424 349.845 355.247 350.144 355.106L352.468 353.814C354.433 352.691 357.14 351.208 360.071 349.422C363.002 347.636 365.596 345.951 367.472 344.704L369.718 343.243C369.974 343.041 370.258 342.874 370.56 342.749C370.338 342.99 370.089 343.205 369.819 343.389C369.325 343.771 368.595 344.322 367.674 344.973C365.843 346.288 363.272 348.029 360.329 349.815C357.387 351.601 354.647 353.073 352.648 354.095C351.637 354.612 350.817 355.005 350.245 355.219C349.952 355.394 349.639 355.534 349.313 355.634Z" fill="#E0E0E0"/>
<path d="M329.75 343.502C330.039 343.598 330.314 343.73 330.569 343.895C331.086 344.165 331.816 344.58 332.714 345.097C334.522 346.131 336.993 347.591 339.711 349.22C342.428 350.849 344.877 352.354 346.64 353.466C347.516 354.017 348.223 354.466 348.706 354.792C348.968 354.945 349.212 355.126 349.436 355.331C349.147 355.241 348.871 355.113 348.616 354.949C348.1 354.668 347.37 354.253 346.471 353.736C344.663 352.703 342.193 351.242 339.475 349.613C336.757 347.984 334.309 346.479 332.546 345.378C331.67 344.816 330.963 344.367 330.48 344.041C330.218 343.888 329.973 343.707 329.75 343.502Z" fill="#E0E0E0"/>
<path d="M325.673 373.856C326.034 373.988 326.381 374.157 326.706 374.361L329.469 375.901C331.782 377.215 334.972 379.057 338.453 381.124C341.934 383.191 345.113 385.067 347.437 386.449L350.11 388.112C350.449 388.301 350.769 388.523 351.064 388.775C350.7 388.642 350.35 388.473 350.02 388.269L347.269 386.73C344.955 385.416 341.766 383.573 338.285 381.506C334.803 379.439 331.625 377.563 329.301 376.181L326.617 374.519C326.282 374.328 325.966 374.106 325.673 373.856Z" fill="#E0E0E0"/>
<path d="M350.537 388.247C350.862 387.991 351.208 387.762 351.57 387.561L354.467 385.82C356.904 384.349 360.273 382.293 363.923 379.934C367.573 377.574 370.841 375.361 373.188 373.744L375.973 371.823C376.295 371.567 376.646 371.348 377.017 371.171C376.729 371.467 376.413 371.734 376.074 371.969C375.445 372.463 374.524 373.16 373.367 374.002C371.121 375.698 367.831 377.956 364.17 380.316C360.509 382.675 357.117 384.686 354.624 386.09C353.378 386.798 352.378 387.348 351.66 387.719C351.306 387.936 350.929 388.113 350.537 388.247Z" fill="#E0E0E0"/>
<path d="M368.28 408.816L335.443 408.67L345.809 489.868L357.207 489.925L368.28 408.816Z" fill="#E0E0E0"/>
<path d="M337.105 418.656C337.105 418.656 337.105 418.769 337.285 418.949C337.498 419.196 337.768 419.389 338.071 419.51C338.642 419.713 339.252 419.782 339.853 419.712C340.455 419.642 341.032 419.435 341.541 419.106C342.866 418.376 344.034 416.949 345.809 416.32C347.783 415.696 349.909 415.747 351.85 416.466C353.828 417.15 355.713 418.075 357.466 419.218C358.927 420.145 360.45 420.971 362.025 421.69C363.094 422.182 364.229 422.515 365.394 422.678C365.706 422.728 366.022 422.751 366.337 422.746C366.562 422.746 366.674 422.746 366.674 422.746C365.12 422.496 363.608 422.031 362.182 421.364C360.634 420.607 359.134 419.755 357.69 418.814C355.918 417.629 354.001 416.677 351.985 415.983C349.936 415.227 347.69 415.192 345.618 415.882C344.741 416.237 343.929 416.734 343.215 417.353C342.614 417.873 341.984 418.357 341.328 418.803C340.866 419.121 340.34 419.334 339.787 419.427C339.234 419.52 338.668 419.491 338.127 419.342C337.747 419.178 337.401 418.946 337.105 418.656Z" fill="#F5F5F5"/>
<path d="M338.24 433.609C338.24 433.609 338.498 433.272 339.015 432.744C339.761 432.01 340.658 431.447 341.642 431.092C343.106 430.567 344.66 430.338 346.213 430.418C348.133 430.569 350.042 430.839 351.929 431.227C353.856 431.603 355.827 431.694 357.78 431.497C359.371 431.294 360.923 430.855 362.384 430.194C363.367 429.757 364.298 429.21 365.158 428.565C365.487 428.343 365.786 428.078 366.045 427.778C364.829 428.56 363.557 429.251 362.238 429.845C360.8 430.425 359.288 430.803 357.746 430.969C355.84 431.142 353.919 431.039 352.041 430.665C350.133 430.278 348.201 430.019 346.258 429.89C344.643 429.831 343.034 430.107 341.53 430.699C340.514 431.101 339.609 431.74 338.891 432.564C338.698 432.79 338.529 433.034 338.386 433.294C338.262 433.496 338.228 433.597 338.24 433.609Z" fill="#F5F5F5"/>
<path d="M364.417 441.697C364.152 441.479 363.847 441.314 363.519 441.214C362.644 440.892 361.73 440.692 360.801 440.619C359.423 440.534 358.04 440.61 356.68 440.843C355.152 441.079 353.501 441.495 351.783 441.855C350.179 442.23 348.534 442.407 346.887 442.383C345.553 442.344 344.239 442.054 343.012 441.529C341.886 440.992 340.884 440.227 340.07 439.282C340.205 439.598 340.395 439.887 340.632 440.136C341.257 440.845 342.022 441.419 342.878 441.821C344.136 442.427 345.503 442.771 346.898 442.832C348.586 442.882 350.273 442.716 351.918 442.338C353.67 441.967 355.287 441.54 356.792 441.282C358.117 441.031 359.464 440.922 360.812 440.956C362.04 441.05 363.252 441.299 364.417 441.697Z" fill="#F5F5F5"/>
<path d="M341.058 452.931C342.066 452.508 343.179 452.403 344.248 452.628C345.417 452.911 346.548 453.333 347.617 453.886C348.975 454.543 350.439 454.954 351.94 455.099C354.684 455.353 357.437 454.728 359.801 453.313C360.511 452.892 361.171 452.391 361.767 451.819C361.994 451.616 362.191 451.382 362.351 451.123C361.477 451.795 360.565 452.417 359.622 452.987C357.29 454.251 354.638 454.798 351.997 454.56C348.886 454.369 346.505 452.504 344.349 452.313C343.522 452.16 342.669 452.23 341.878 452.516C341.272 452.617 341.036 452.853 341.058 452.931Z" fill="#F5F5F5"/>
<path d="M342.81 468.468C343.752 468.492 344.688 468.308 345.55 467.929C347.213 467.39 349.256 466.131 351.648 465.188C352.76 464.743 353.944 464.503 355.141 464.48C356.11 464.483 357.066 464.706 357.937 465.131C358.732 465.559 359.422 466.158 359.959 466.884C359.919 466.633 359.815 466.397 359.655 466.199C359.26 465.617 358.733 465.136 358.117 464.794C357.209 464.288 356.191 464.01 355.152 463.986C353.886 463.976 352.63 464.216 351.457 464.693C348.987 465.659 346.965 466.94 345.416 467.581C343.866 468.221 342.799 468.378 342.81 468.468Z" fill="#F5F5F5"/>
<path d="M344.349 475.714C345.003 476.046 345.703 476.277 346.426 476.399C348.132 476.822 349.866 477.122 351.615 477.298C353.364 477.482 355.124 477.542 356.882 477.478C357.616 477.497 358.349 477.414 359.06 477.23C359.06 477.062 355.691 477.23 351.671 476.77C347.65 476.309 344.427 475.557 344.349 475.714Z" fill="#F5F5F5"/>
<path d="M129.202 423.24H49.6034V434.182H129.202V423.24Z" fill="#263238"/>
<path d="M129.337 434.317H49.4687V423.083H129.337V434.317ZM49.7382 434.047H129.056V423.375H49.7382V434.047Z" fill="#263238"/>
<path d="M56.9816 430.542L68.4363 487.083H110.83L121.903 434.182L56.9816 430.542Z" fill="#263238"/>
<path d="M56.9816 481.735L63.0907 490.138H114.614L121.903 481.735H56.9816Z" fill="#455A64"/>
<path d="M86.4047 432.194C86.2586 432.194 86.0564 405.996 85.9666 373.687C85.8767 341.379 85.9666 315.192 86.0789 315.192C86.1912 315.192 86.4384 341.379 86.5282 373.687C86.6181 405.996 86.562 432.194 86.4047 432.194Z" fill="#263238"/>
<path d="M104.137 366.644C104.092 366.854 104.021 367.058 103.923 367.25C103.744 367.7 103.508 368.261 103.216 368.947C103.059 369.317 102.879 369.722 102.699 370.171C102.52 370.621 102.351 371.126 102.171 371.654C101.992 372.182 101.767 372.778 101.554 373.362C101.34 373.946 101.172 374.62 100.959 375.305C100.01 378.506 99.2604 381.763 98.7126 385.056C98.0954 389.095 97.6869 393.164 97.4885 397.245C97.1903 404.673 97.4004 412.112 98.1174 419.511C98.3645 422.353 98.6228 424.656 98.8137 426.251C98.8923 426.992 98.9597 427.599 99.0158 428.082C99.0456 428.295 99.0456 428.51 99.0158 428.722C98.9424 428.519 98.8933 428.308 98.8698 428.093L98.5666 426.273C98.3083 424.701 97.9827 422.409 97.6794 419.533C96.8433 412.116 96.5767 404.646 96.8821 397.189C97.0875 393.087 97.5148 388.999 98.1623 384.944C98.7319 381.634 99.5197 378.365 100.521 375.159C100.745 374.485 100.925 373.822 101.161 373.216L101.812 371.519C102.014 370.991 102.216 370.497 102.385 370.036C102.553 369.576 102.789 369.194 102.958 368.834L103.766 367.183C103.869 366.99 103.994 366.809 104.137 366.644Z" fill="#263238"/>
<path d="M102.104 345.457C102.049 345.752 101.966 346.042 101.857 346.322C101.644 346.928 101.374 347.737 101.026 348.759C100.831 349.291 100.629 349.875 100.42 350.512C100.217 351.163 100.004 351.871 99.7795 352.624C99.3079 354.14 98.7688 355.859 98.2859 357.803C98.0388 358.769 97.7693 359.78 97.4886 360.825C97.2078 361.869 97.0057 362.993 96.7474 364.139C96.1859 366.385 95.7928 368.902 95.2762 371.486C94.4003 376.687 93.6254 382.439 93.0864 388.505C92.5473 394.571 92.3676 400.379 92.289 405.659C92.2104 410.939 92.289 415.691 92.5586 419.679C92.6259 421.667 92.7607 423.476 92.8618 425.06C92.9628 426.644 93.0527 428.003 93.1538 429.116C93.2548 430.228 93.2997 431.048 93.3447 431.677C93.3747 431.976 93.3747 432.277 93.3447 432.576C93.2696 432.289 93.2208 431.995 93.1987 431.699C93.1313 431.055 93.0302 430.202 92.8955 429.138C92.7607 428.015 92.6372 426.667 92.5136 425.083C92.3901 423.499 92.2217 421.712 92.1318 419.702C91.8623 415.702 91.75 410.939 91.7388 405.648C91.7275 400.357 91.9858 394.549 92.4912 388.46C92.9965 382.371 93.8163 376.608 94.7372 371.396C95.265 368.801 95.6805 366.318 96.2645 364.037L97.0394 360.723L97.8816 357.69C98.387 355.758 99.0046 354.039 99.4538 352.534C99.6897 351.781 99.9255 351.074 100.139 350.422C100.352 349.77 100.588 349.209 100.79 348.681C101.183 347.681 101.486 346.872 101.722 346.277C101.822 345.991 101.95 345.716 102.104 345.457Z" fill="#263238"/>
<path d="M81.3734 436.822C81.3614 436.721 81.3614 436.619 81.3734 436.519C81.3734 436.283 81.3734 435.991 81.2948 435.62C81.2948 434.777 81.16 433.62 81.0701 432.149C80.8792 429.093 80.5985 424.745 80.2728 419.387C79.5765 408.614 78.5771 393.74 76.769 377.372C75.8369 369.194 74.7701 361.42 73.647 354.376C73.0518 350.86 72.524 347.512 71.9064 344.4C71.2887 341.289 70.7834 338.39 70.1882 335.75C69.593 333.11 69.0652 330.729 68.616 328.639C68.1668 326.55 67.7063 324.752 67.3357 323.292C66.9651 321.832 66.7068 320.731 66.5047 319.922C66.4261 319.551 66.3587 319.27 66.3026 319.034C66.2929 318.933 66.2929 318.832 66.3026 318.731C66.3509 318.823 66.3849 318.921 66.4036 319.023C66.471 319.248 66.5609 319.529 66.6619 319.888C66.8865 320.697 67.201 321.809 67.594 323.258C67.9871 324.707 68.4812 326.494 68.9641 328.583C69.447 330.673 70.0871 333.077 70.6262 335.683C71.1652 338.289 71.839 341.21 72.4117 344.333C72.9845 347.456 73.6021 350.793 74.2086 354.309C75.3316 361.364 76.4546 369.138 77.3754 377.338C79.1835 393.717 80.1268 408.614 80.7445 419.387C81.0365 424.779 81.2386 429.138 81.3621 432.16C81.4183 433.632 81.4632 434.8 81.4969 435.631C81.4969 436.002 81.4969 436.305 81.4969 436.541C81.4675 436.639 81.426 436.734 81.3734 436.822Z" fill="#263238"/>
<path d="M85.7643 327.774C85.4162 324.067 81.6653 321.27 77.9032 321.225C74.1411 321.18 70.7047 323.472 68.425 326.381C66.2866 329.436 64.7401 332.866 63.8656 336.492C61.3613 345.243 59.9912 354.466 61.0581 363.453C62.1249 372.44 65.7972 381.427 72.2882 387.763C73.3438 388.797 74.7027 389.842 76.1513 389.527C76.9296 389.296 77.6341 388.867 78.1952 388.28C84.5409 382.472 89.5707 375.373 92.9468 367.46C96.323 359.547 97.9673 351.002 97.7693 342.401C97.6682 338.963 97.219 335.391 95.3211 332.526C93.4232 329.661 88.9874 326.628 85.7531 327.774" fill="#663ED6"/>
<path d="M57.981 298.061C56.2366 301.229 54.4885 304.397 52.7366 307.564C52.613 307.789 52.4558 308.036 52.1975 308.059C51.9392 308.081 51.7259 307.812 51.5686 307.587L37.6995 286.242L40.8888 284.434L57.981 298.061Z" fill="#663ED6"/>
<g opacity="0.2">
<path d="M57.981 298.061C56.2366 301.229 54.4885 304.397 52.7366 307.564C52.613 307.789 52.4558 308.036 52.1975 308.059C51.9392 308.081 51.7259 307.812 51.5686 307.587L37.6995 286.242L40.8888 284.434L57.981 298.061Z" fill="black"/>
</g>
<path d="M86.0562 315.181L38.755 287.254C38.2514 287.036 37.8498 286.634 37.632 286.13C37.4411 285.434 37.9689 284.76 38.4743 284.243C41.724 280.867 45.6637 278.232 50.0244 276.518C54.3851 274.804 59.0641 274.052 63.742 274.312C68.4195 274.648 72.9448 276.119 76.9266 278.597C80.9085 281.075 84.227 284.485 86.5953 288.534C91.166 296.701 91.3232 307.497 86.0787 315.237" fill="#663ED6"/>
<path d="M45.6279 278.334C45.8295 278.281 46.0371 278.254 46.2456 278.255C46.6499 278.255 47.2563 278.165 48.0312 278.177C50.2325 278.14 52.4322 278.313 54.6008 278.693C61.818 279.91 68.5365 283.167 73.963 288.08C79.3895 292.992 83.2975 299.356 85.2253 306.419C85.7951 308.541 86.171 310.71 86.3483 312.901C86.4269 313.676 86.3483 313.878 86.4157 314.282C86.3754 314.65 86.2525 315.003 86.0563 315.316C86.1942 314.526 86.2169 313.72 86.1237 312.923C85.8495 310.76 85.4027 308.623 84.7873 306.531C82.8027 299.579 78.9097 293.322 73.5502 288.471C68.1907 283.62 61.5792 280.369 54.466 279.087C52.3247 278.68 50.1539 278.447 47.975 278.39C46.4365 278.356 45.6279 278.39 45.6279 278.334Z" fill="#263238"/>
<path d="M79.6776 295.904C78.9272 296.371 78.1243 296.748 77.2855 297.027C75.7807 297.623 73.6694 298.386 71.3111 299.128C68.9528 299.869 66.8191 300.476 65.2244 300.858C64.3855 301.122 63.5187 301.288 62.6415 301.352C63.4331 300.977 64.2609 300.683 65.1121 300.476L71.1427 298.589L77.1508 296.645C77.9668 296.316 78.8131 296.068 79.6776 295.904Z" fill="#263238"/>
<path d="M72.2208 275.885C72.6469 277.611 72.8359 279.387 72.7825 281.165C72.9239 282.937 72.8256 284.721 72.4904 286.467C72.2579 284.714 72.1677 282.944 72.2208 281.176C72.0789 279.415 72.0789 277.646 72.2208 275.885Z" fill="#263238"/>
<path d="M38.3397 286.726C39.4524 286.233 40.606 285.838 41.7873 285.546C43.9323 284.884 46.9307 284.041 50.266 283.243C53.6014 282.446 56.656 281.817 58.8683 281.435C60.053 281.164 61.2593 280.999 62.4732 280.94C61.3205 281.32 60.1421 281.617 58.9469 281.828C56.7009 282.311 53.7249 282.951 50.4008 283.794C47.0767 284.636 44.067 285.367 41.8884 285.928C40.7276 286.285 39.5412 286.551 38.3397 286.726Z" fill="#263238"/>
<path d="M66.1229 319.731C62.0464 316.641 57.7453 316.035 52.6468 316.237C47.5336 316.575 42.5287 317.866 37.8904 320.045C29.9171 323.539 22.4153 328.695 17.6762 335.986C12.9371 343.277 11.2189 352.95 14.7901 360.881C15.0722 361.718 15.657 362.419 16.4297 362.847C17.3126 363.099 18.2565 363.027 19.0912 362.644C28.1764 359.679 37.3065 356.69 45.6617 352.051C54.0169 347.411 61.5972 340.963 66.078 332.526C67.2239 330.537 67.9537 328.336 68.223 326.055C68.348 324.914 68.2273 323.759 67.869 322.668C67.5106 321.577 66.9229 320.576 66.1454 319.731" fill="#663ED6"/>
<path d="M66.2015 318.765C65.9944 318.877 65.7761 318.967 65.5502 319.034L63.641 319.686L62.271 320.146C61.7656 320.326 61.2378 320.551 60.6538 320.775C59.5308 321.236 58.1832 321.708 56.7795 322.382L54.5334 323.404C53.7698 323.753 52.9949 324.191 52.1751 324.606C50.5355 325.415 48.8735 326.449 47.0991 327.493C43.3193 329.875 39.7264 332.541 36.3519 335.469C33.0271 338.438 29.9301 341.653 27.087 345.086C25.8293 346.715 24.5827 348.231 23.572 349.759C23.0554 350.512 22.5276 351.219 22.0784 351.95L20.787 354.073C19.9335 355.376 19.3046 356.634 18.6982 357.713C18.4062 358.263 18.1142 358.757 17.8671 359.229C17.6201 359.701 17.4292 360.139 17.2382 360.544C16.8789 361.285 16.5757 361.88 16.3511 362.341C16.2602 362.56 16.1434 362.768 16.0029 362.959C16.0563 362.73 16.1354 362.507 16.2388 362.296C16.4521 361.824 16.7104 361.173 17.0361 360.454C17.2158 360.038 17.4179 359.6 17.6313 359.117C17.8447 358.634 18.1367 358.128 18.4174 357.567C19.0014 356.443 19.6078 355.185 20.4388 353.859L21.7078 351.759C22.157 351.017 22.6848 350.309 23.1902 349.512C24.1897 347.962 25.4362 346.423 26.6828 344.782C32.3261 337.771 39.1428 331.792 46.8296 327.111C48.6264 326.067 50.3109 325.044 51.973 324.247C52.804 323.842 53.5789 323.404 54.365 323.056L56.611 322.079C58.0372 321.416 59.3848 320.955 60.5528 320.54C61.1367 320.326 61.6758 320.113 62.1811 319.944L63.5737 319.54L65.5165 318.978C65.7396 318.891 65.9685 318.82 66.2015 318.765Z" fill="#263238"/>
<path d="M34.3979 335.998C31.1589 337.236 27.8563 338.301 24.5042 339.188C21.1866 340.254 17.8124 341.136 14.3971 341.828C17.6403 340.591 20.9466 339.526 24.302 338.638C27.6161 337.572 30.9865 336.691 34.3979 335.998Z" fill="#263238"/>
<path d="M33.9936 357.848C33.818 356.828 33.7465 355.793 33.7802 354.758C33.724 352.848 33.7128 350.265 33.7802 347.31C33.8476 344.356 34.0161 341.761 34.1734 339.862C34.199 338.829 34.3308 337.801 34.5666 336.795C34.6568 337.823 34.6568 338.857 34.5666 339.884C34.4992 341.974 34.4205 344.513 34.3307 347.321C34.2408 350.13 34.1959 352.669 34.1509 354.758C34.1874 355.791 34.1347 356.824 33.9936 357.848Z" fill="#263238"/>
<path d="M52.7147 348.31C52.5574 348.31 52.0519 342.963 51.5913 336.346C51.1307 329.729 50.8836 324.348 51.0409 324.337C51.1981 324.325 51.6924 329.684 52.1642 336.301C52.6361 342.918 52.872 348.299 52.7147 348.31Z" fill="#263238"/>
<path d="M29.4116 323.809C30.4664 323.687 31.5298 323.657 32.5897 323.719C34.5438 323.719 37.2502 323.786 40.2262 323.887C43.2022 323.988 45.9087 324.112 47.8627 324.224C48.9217 324.227 49.9781 324.329 51.0184 324.528C49.9681 324.658 48.908 324.692 47.8515 324.629C45.8974 324.629 43.191 324.55 40.215 324.449C37.239 324.348 34.5213 324.236 32.5673 324.123C31.5081 324.113 30.452 324.007 29.4116 323.809Z" fill="#263238"/>
<path d="M74.3321 389.022C74.2959 388.81 74.2734 388.596 74.2647 388.381C74.2647 387.91 74.2647 387.258 74.1861 386.562C74.1187 384.978 74.0962 382.686 74.1861 379.821C74.2759 376.957 74.4219 373.631 74.77 369.902C75.1182 366.172 75.6685 362.038 76.4321 357.825C77.1958 353.612 78.1952 349.579 79.1049 345.962C80.0145 342.345 81.1038 339.121 82.0584 336.447C83.013 333.773 83.8103 331.605 84.4392 330.167C84.7424 329.482 84.9782 328.92 85.1691 328.482C85.2409 328.281 85.3351 328.089 85.4499 327.909C85.4178 328.122 85.3574 328.33 85.2702 328.527C85.113 328.976 84.8996 329.538 84.6525 330.246C84.091 331.717 83.3274 333.886 82.4065 336.571C81.4857 339.255 80.5423 342.48 79.5765 346.097C78.6108 349.714 77.7123 353.713 76.9375 357.96C76.1626 362.206 75.6235 366.273 75.2305 369.98C74.8374 373.687 74.6241 377.046 74.523 379.877C74.4219 382.708 74.3658 384.978 74.377 386.562C74.377 387.303 74.377 387.91 74.377 388.381C74.3927 388.596 74.3776 388.812 74.3321 389.022Z" fill="#263238"/>
<path d="M76.8364 358.027C76.287 358.785 75.6541 359.478 74.9497 360.094C73.7257 361.319 71.985 362.959 69.9973 364.7C68.0095 366.442 66.1678 367.947 64.7977 369.003C64.1115 369.618 63.358 370.153 62.5517 370.598C63.1707 369.898 63.8551 369.258 64.5956 368.688L69.6828 364.273L74.7251 359.78C75.3701 359.128 76.0772 358.541 76.8364 358.027Z" fill="#263238"/>
<path d="M91.8174 370.093C91.0714 369.221 90.399 368.289 89.8072 367.307C88.5046 365.419 86.8987 363.071 85.1243 360.476L80.3515 353.736C79.644 352.834 79.0058 351.881 78.4424 350.883C79.2654 351.684 80.0169 352.556 80.6884 353.489C82.0023 355.163 83.7542 357.511 85.6072 360.173C87.4602 362.835 89.0436 365.296 90.0992 367.104C90.7516 368.052 91.3262 369.052 91.8174 370.093Z" fill="#263238"/>
<path d="M83.9675 332.133C84.0461 332.268 79.0712 335.616 72.8497 339.615C66.6282 343.614 61.5185 346.76 61.4287 346.625C61.3388 346.49 66.325 343.143 72.5465 339.143C78.768 335.144 83.8777 331.999 83.9675 332.133Z" fill="#263238"/>
<path d="M97.9939 347.333C95.3591 345.152 92.8472 342.827 90.4697 340.368C87.9602 338.047 85.5796 335.591 83.3386 333.01C85.975 335.184 88.4871 337.506 90.8627 339.963C93.3776 342.283 95.7584 344.743 97.9939 347.333Z" fill="#263238"/>
<path d="M101.52 346.984L105.799 346.625C108.831 346.379 111.773 345.478 114.424 343.985C115.717 343.222 117.06 342.547 118.444 341.963C123.722 339.84 129.618 340.222 135.289 339.941C144.592 339.463 153.706 337.129 162.095 333.077C162.588 332.854 162.999 332.486 163.275 332.021C164.15 330.414 162.522 328.999 161.118 328.134C153.92 323.64 146.598 319.147 138.434 317.001C130.269 314.855 121.004 315.17 114.042 319.967C105.877 325.584 102.89 337.155 101.509 346.984" fill="#663ED6"/>
<path d="M163.376 331.493C163.125 331.406 162.884 331.293 162.657 331.156L160.624 330.1C158.872 329.167 156.346 327.853 153.145 326.28C149.431 324.44 145.56 322.937 141.578 321.787C136.707 320.39 131.607 319.978 126.575 320.573C121.538 321.147 116.781 323.19 112.896 326.449C109.87 329.268 107.448 332.674 105.776 336.458C104.612 338.999 103.578 341.597 102.677 344.243L101.913 346.4C101.84 346.656 101.742 346.904 101.621 347.142C101.657 346.877 101.721 346.617 101.812 346.366C101.981 345.816 102.194 345.086 102.464 344.12C103.294 341.443 104.28 338.817 105.417 336.256C107.054 332.384 109.483 328.898 112.548 326.022C116.494 322.683 121.347 320.598 126.485 320.034C131.592 319.432 136.767 319.867 141.702 321.315C145.706 322.483 149.594 324.021 153.314 325.909C156.503 327.505 158.996 328.92 160.725 329.898L162.702 331.021C162.943 331.154 163.168 331.312 163.376 331.493Z" fill="#263238"/>
<path d="M153.122 337.009C153.033 337.132 147.44 333.515 140.646 328.932C133.852 324.348 128.394 320.517 128.484 320.383C128.573 320.248 134.155 323.876 140.96 328.46C147.766 333.043 153.201 336.874 153.122 337.009Z" fill="#263238"/>
<path d="M147.159 320.09C145.85 320.544 144.479 320.79 143.094 320.821C141.72 321.026 140.324 321.026 138.95 320.821C140.303 320.572 141.674 320.429 143.049 320.394C144.409 320.189 145.784 320.087 147.159 320.09Z" fill="#263238"/>
<path d="M122.7 316.911C122.242 317.952 121.624 318.914 120.87 319.765C120.233 320.754 119.453 321.643 118.556 322.405C119.016 321.361 119.633 320.395 120.387 319.54C121.026 318.555 121.805 317.67 122.7 316.911Z" fill="#263238"/>
<path d="M127.709 340.3C126.77 339.899 125.872 339.41 125.025 338.84C123.408 337.862 121.229 336.424 118.893 334.728C116.557 333.032 114.513 331.437 113.031 330.234C112.22 329.633 111.461 328.964 110.763 328.235C111.668 328.704 112.526 329.261 113.323 329.897L119.275 334.223C121.6 335.919 123.767 337.391 125.283 338.458C126.14 339.006 126.951 339.622 127.709 340.3Z" fill="#263238"/>
<path d="M107.809 365.127C103.744 364.06 98.825 368.014 98.0388 372.148C97.2527 376.282 98.7463 380.506 100.566 384.315C104.445 392.843 110.204 400.382 117.411 406.367C124.71 412.175 133.84 415.893 143.173 415.848C141.454 407.85 143.633 399.48 142.667 391.358C141.824 384.194 138.573 377.528 133.448 372.452C128.323 367.377 121.628 364.192 114.457 363.419C111.863 363.139 108.842 362.734 107.809 365.127Z" fill="#663ED6"/>
<path d="M143.173 415.86C142.968 415.793 142.772 415.703 142.589 415.59C142.056 415.291 141.549 414.949 141.073 414.568C139.362 413.081 137.988 411.246 137.041 409.187C136.401 407.928 135.671 406.558 134.964 405.041C134.256 403.525 133.537 401.896 132.718 400.188C131.921 398.411 131.021 396.681 130.022 395.009C128.917 393.236 127.678 391.55 126.316 389.965C123.52 386.685 120.533 383.854 117.939 381.147C115.59 378.78 113.452 376.212 111.549 373.474C110.309 371.626 109.291 369.639 108.517 367.554C108.307 366.979 108.127 366.394 107.978 365.801C107.915 365.596 107.87 365.385 107.843 365.172C107.843 365.172 108.135 366.015 108.73 367.475C109.597 369.524 110.685 371.471 111.976 373.283C113.906 375.965 116.054 378.482 118.399 380.81C121.005 383.495 124.014 386.326 126.833 389.628C128.216 391.235 129.47 392.947 130.584 394.751C131.597 396.442 132.497 398.199 133.279 400.009L135.424 404.873C136.109 406.378 136.817 407.771 137.434 409.029C138.324 411.07 139.619 412.908 141.241 414.433C142.398 415.41 143.206 415.792 143.173 415.86Z" fill="#263238"/>
<path d="M122.105 409.198C122.123 408.273 122.248 407.353 122.476 406.457C122.801 404.772 123.318 402.469 124.025 399.964C124.733 397.459 125.497 395.212 126.092 393.617C126.375 392.733 126.751 391.882 127.215 391.078C127.06 391.987 126.815 392.879 126.485 393.74C125.979 395.369 125.294 397.616 124.587 400.121C123.879 402.626 123.295 404.895 122.88 406.547C122.705 407.453 122.446 408.341 122.105 409.198Z" fill="#263238"/>
<path d="M142.398 389.55C141.425 389.421 140.467 389.203 139.534 388.898C137.771 388.438 135.356 387.775 132.65 387.202C129.944 386.629 127.495 386.079 125.71 385.787C124.735 385.657 123.773 385.443 122.835 385.146C123.821 385.124 124.807 385.203 125.777 385.382C127.585 385.629 130.067 386.034 132.773 386.652C135.48 387.269 137.906 387.955 139.646 388.505C140.597 388.758 141.519 389.108 142.398 389.55Z" fill="#263238"/>
<path d="M106.989 395.268C107.027 394.196 107.174 393.131 107.427 392.089C107.787 390.145 108.359 387.471 109.123 384.551C109.887 381.63 110.695 379.012 111.369 377.136C111.65 376.107 112.026 375.107 112.492 374.148C112.325 375.206 112.066 376.247 111.717 377.26C111.178 379.158 110.426 381.753 109.662 384.685C108.898 387.617 108.281 390.246 107.82 392.167C107.624 393.221 107.346 394.257 106.989 395.268Z" fill="#263238"/>
<path d="M133.054 372.441C133.054 372.587 127.956 372.182 121.701 371.52C115.445 370.857 110.381 370.194 110.392 370.037C114.194 370.148 117.987 370.456 121.757 370.958C128.012 371.621 133.066 372.283 133.054 372.441Z" fill="#263238"/>
<path d="M129.326 434.137C129.326 434.294 111.448 434.418 89.403 434.418C67.3583 434.418 49.4687 434.294 49.4687 434.137C49.4687 433.98 67.347 433.834 89.4254 433.834C111.504 433.834 129.326 433.98 129.326 434.137Z" fill="#455A64"/>
<path d="M116.894 457.155C116.894 457.301 104.844 457.436 89.9419 457.436C75.0395 457.436 62.9896 457.301 62.9896 457.155C62.9896 457.009 75.0395 456.863 89.9419 456.863C104.844 456.863 116.894 456.998 116.894 457.155Z" fill="#455A64"/>
<path d="M116.378 460.436C116.378 460.593 104.541 460.728 89.9418 460.728C75.3427 460.728 63.596 460.593 63.596 460.436C63.596 460.278 75.4325 460.155 90.0317 460.155C104.631 460.155 116.378 460.29 116.378 460.436Z" fill="#455A64"/>
<path d="M117.355 454.437C117.355 454.594 104.9 454.718 89.5377 454.718C74.1749 454.718 61.6982 454.594 61.6982 454.437C61.6982 454.28 74.1637 454.156 89.5377 454.156C104.912 454.156 117.355 454.28 117.355 454.437Z" fill="#455A64"/>
<path d="M518 490.666C518 490.823 402.038 490.958 259.011 490.958C115.985 490.958 0 490.823 0 490.666C0 490.509 115.94 490.374 259.011 490.374C402.083 490.374 518 490.498 518 490.666Z" fill="#263238"/>
<path d="M309.513 437.373H202.434V491.273H309.513V437.373Z" fill="#455A64"/>
<path d="M321.698 265.044H188.767C185.288 265.044 181.952 266.427 179.492 268.887C177.032 271.348 175.65 274.685 175.65 278.165V481.499C178.233 485.824 183.68 487.588 188.61 487.116C193.54 486.645 198.122 484.476 202.647 482.432C207.173 480.387 211.935 478.455 216.876 478.624C225.467 478.927 232.811 485.499 241.357 486.487C255.204 488.094 266.861 475.006 280.73 473.602C290.062 472.658 298.979 477.107 307.84 480.252C316.7 483.398 327.279 485.049 334.792 479.32V278.165C334.792 274.689 333.413 271.355 330.958 268.895C328.503 266.435 325.173 265.05 321.698 265.044Z" fill="#263238"/>
<path d="M199.817 483.824C199.66 483.824 199.525 443.09 199.525 392.83C199.525 342.569 199.66 301.835 199.817 301.835C199.975 301.835 200.11 342.558 200.11 392.83C200.11 443.102 199.986 483.824 199.817 483.824Z" fill="#455A64"/>
<path d="M230.498 403.637C230.655 403.637 230.79 421.443 230.79 443.416C230.79 465.39 230.655 483.207 230.498 483.207C230.341 483.207 230.206 465.39 230.206 443.416C230.206 421.443 230.33 403.637 230.498 403.637Z" fill="#455A64"/>
<path d="M231.576 356.792C231.733 356.792 231.868 361.982 231.868 368.374C231.868 374.766 231.733 379.945 231.576 379.945C231.28 376.095 231.183 372.233 231.284 368.374C231.183 364.511 231.28 360.645 231.576 356.792Z" fill="#455A64"/>
<path d="M264.402 479.567C264.233 479.567 264.11 439.428 264.11 389.92C264.11 340.413 264.233 300.274 264.402 300.274C264.57 300.274 264.694 340.401 264.694 389.92C264.694 439.44 264.615 479.567 264.402 479.567Z" fill="#455A64"/>
<path d="M297.182 476.882C297.025 476.882 296.89 438.788 296.89 391.808C296.89 344.827 297.025 306.733 297.182 306.733C297.34 306.733 297.475 344.816 297.475 391.808C297.475 438.799 297.385 476.882 297.182 476.882Z" fill="#455A64"/>
<path d="M376.916 42.1968H124.755C122.67 42.1968 120.671 43.0253 119.197 44.5C117.722 45.9748 116.894 47.9749 116.894 50.0605V228.253C116.894 230.339 117.722 232.339 119.197 233.814C120.671 235.288 122.67 236.117 124.755 236.117H221.548C221.548 236.117 227.713 255.214 208.622 265.022H299.125C299.125 265.022 277.575 257.63 283.122 236.117H376.916C379.001 236.117 381 235.288 382.475 233.814C383.949 232.339 384.777 230.339 384.777 228.253V50.0718C384.779 49.0381 384.576 48.0144 384.182 47.059C383.788 46.1036 383.209 45.2354 382.479 44.504C381.749 43.7726 380.882 43.1923 379.927 42.7964C378.973 42.4005 377.949 42.1968 376.916 42.1968Z" fill="#455A64"/>
<path d="M254.227 217.401C257.652 222.31 252.284 227.68 247.377 224.254C247.219 224.132 247.079 223.988 246.961 223.827C243.536 218.918 248.904 213.559 253.8 216.986C253.966 217.097 254.111 217.238 254.227 217.401Z" fill="#263238"/>
<path d="M126.945 45.4546H374.771C376.287 45.4546 377.741 46.057 378.813 47.1294C379.885 48.2017 380.487 49.6561 380.487 51.1727V203.538H121.229V51.1727C121.229 49.6561 121.831 48.2017 122.903 47.1294C123.975 46.057 125.429 45.4546 126.945 45.4546Z" fill="white"/>
<path d="M331.872 236.173C331.872 236.252 295.936 236.319 251.723 236.319C207.51 236.319 171.562 236.252 171.562 236.173C171.562 236.095 207.499 236.016 251.723 236.016C295.947 236.016 331.872 236.117 331.872 236.173Z" fill="#263238"/>
<path d="M299.226 102.208C299.327 102.332 284.358 114.566 265.805 129.619C247.253 144.672 232.115 156.715 232.003 156.58C231.891 156.446 246.871 144.223 265.435 129.17C283.998 114.116 299.125 102.085 299.226 102.208Z" fill="#263238"/>
<path d="M299.339 85.4472C299.451 85.5708 279.484 102.298 254.766 122.845C230.049 143.392 209.913 159.917 209.846 159.805C209.778 159.692 229.689 142.954 254.429 122.396C279.169 101.838 299.238 85.3236 299.339 85.4472Z" fill="#263238"/>
<path d="M378.758 234.589C378.758 234.757 322.304 234.881 252.677 234.881C183.051 234.881 126.575 234.757 126.575 234.589C126.575 234.42 183.028 234.297 252.677 234.297C322.327 234.297 378.758 234.432 378.758 234.589Z" fill="#FAFAFA"/>
<path d="M433.55 80.718C425.688 81.9762 417.232 87.7729 414.166 95.0974C411.101 102.422 411.426 111.858 411.561 119.812C413.987 119.318 415.514 120.464 417.973 120.295C418.765 120.157 419.521 119.861 420.196 119.425C420.872 118.989 421.452 118.421 421.904 117.756C424.175 114.732 426.012 111.404 427.362 107.87C430.948 99.6322 434.459 91.394 437.896 83.1558" fill="#263238"/>
<path d="M421.668 92.6484C409.315 100.625 412.471 115.397 410.079 118.868C409.124 120.261 407.956 121.654 407.833 123.272C407.709 124.89 408.956 126.642 409.023 128.473C409.079 130.945 406.856 132.967 405.418 135.068C404.456 136.482 403.818 138.091 403.55 139.781C403.282 141.471 403.391 143.199 403.868 144.841C403.944 145.202 404.091 145.544 404.301 145.847C404.512 146.15 404.781 146.408 405.092 146.605C405.613 146.831 406.177 146.938 406.743 146.92C418.438 147.459 430.143 147.575 441.86 147.268C444.533 147.2 447.34 147.077 449.597 145.841C452.674 144.145 453.932 140.853 454.977 137.82L458.256 128.204C459.026 126.152 459.612 124.035 460.008 121.879C460.27 118.891 460.326 115.888 460.176 112.892C460.367 110.106 460.412 107.313 460.311 104.523C460.163 101.641 458.997 98.9064 457.02 96.805" fill="#263238"/>
<path d="M457.369 104.68C457.407 102.038 456.913 99.415 455.916 96.9682C454.918 94.5214 453.438 92.3006 451.564 90.4385C449.69 88.5764 447.46 87.1111 445.008 86.13C442.555 85.1489 439.93 84.6722 437.289 84.7283C432.164 84.8369 427.271 86.8895 423.601 90.4707C419.932 94.0518 417.759 98.894 417.524 104.017C417.075 113.206 416.839 122.452 417.221 125.755C418.344 135.73 424.745 138.999 427.328 139.921C428.225 140.146 429.144 140.271 430.068 140.291C430.087 140.294 430.104 140.303 430.117 140.318C430.129 140.332 430.136 140.351 430.136 140.37L429.013 152.076C428.766 159.692 433.74 165.95 441.489 166.253C449.238 166.556 454.651 160.153 455.044 152.514L457.369 104.68Z" fill="#FFBE9D"/>
<path d="M422.297 109.274C422.279 109.692 422.425 110.1 422.704 110.411C422.984 110.722 423.374 110.911 423.791 110.937C423.996 110.964 424.204 110.949 424.403 110.894C424.602 110.839 424.788 110.745 424.95 110.618C425.112 110.49 425.247 110.331 425.347 110.151C425.447 109.97 425.51 109.772 425.532 109.566C425.551 109.148 425.405 108.738 425.126 108.425C424.847 108.113 424.456 107.921 424.038 107.893C423.833 107.868 423.625 107.884 423.426 107.94C423.227 107.996 423.041 108.091 422.879 108.219C422.717 108.348 422.582 108.507 422.482 108.689C422.382 108.87 422.319 109.069 422.297 109.274Z" fill="#263238"/>
<path d="M420.04 106.107C420.175 106.331 421.567 106.107 423.218 106.601C424.869 107.095 425.879 108.219 426.115 108.129C426.351 108.039 426.115 107.735 425.688 107.252C425.068 106.605 424.296 106.123 423.442 105.848C422.61 105.555 421.716 105.485 420.848 105.646C420.231 105.803 419.972 106.005 420.04 106.107Z" fill="#263238"/>
<path d="M439.524 109.657C439.506 110.074 439.652 110.482 439.931 110.793C440.211 111.104 440.601 111.293 441.018 111.319C441.223 111.344 441.43 111.329 441.628 111.273C441.827 111.218 442.012 111.124 442.174 110.996C442.336 110.869 442.471 110.711 442.571 110.531C442.672 110.351 442.736 110.153 442.759 109.949C442.778 109.53 442.632 109.12 442.353 108.808C442.074 108.495 441.683 108.304 441.265 108.275C441.06 108.25 440.852 108.266 440.653 108.322C440.454 108.378 440.268 108.473 440.106 108.602C439.944 108.73 439.809 108.89 439.709 109.071C439.609 109.252 439.546 109.451 439.524 109.657Z" fill="#263238"/>
<path d="M437.559 108.758C437.806 108.848 438.906 107.87 440.726 107.387C442.545 106.904 444.095 107.151 444.229 106.949C444.364 106.747 444.016 106.657 443.342 106.533C442.391 106.375 441.416 106.433 440.49 106.702C439.578 106.925 438.731 107.36 438.019 107.971C437.559 108.398 437.48 108.713 437.559 108.758Z" fill="#263238"/>
<path d="M430.416 119.924C429.505 119.609 428.558 119.405 427.598 119.318C427.16 119.25 426.744 119.149 426.677 118.846C426.658 118.388 426.784 117.936 427.036 117.554L428.496 114.274C430.54 109.589 432.034 105.725 431.865 105.646C431.697 105.567 429.866 109.308 427.822 113.993C427.328 115.116 426.856 116.24 426.418 117.296C426.115 117.814 426.004 118.422 426.104 119.014C426.165 119.171 426.26 119.311 426.383 119.426C426.505 119.541 426.652 119.627 426.812 119.677C427.055 119.754 427.308 119.8 427.564 119.812C428.506 119.967 429.465 120.005 430.416 119.924Z" fill="#263238"/>
<path d="M430.091 140.269C430.091 140.269 436.829 141.066 445.476 136.404C445.476 136.404 442.433 145.077 429.81 143.414L430.091 140.269Z" fill="#EB996E"/>
<path d="M430.978 124.092C431.334 123.694 431.783 123.392 432.285 123.211C432.787 123.031 433.326 122.978 433.853 123.058C434.235 123.103 434.603 123.225 434.936 123.419C435.268 123.612 435.557 123.872 435.784 124.182C436.007 124.474 436.132 124.828 436.142 125.195C436.152 125.562 436.046 125.923 435.841 126.226C435.546 126.527 435.169 126.734 434.757 126.82C434.345 126.906 433.917 126.867 433.527 126.709C432.716 126.394 431.975 125.92 431.348 125.316C431.159 125.169 430.996 124.99 430.866 124.788C430.805 124.693 430.772 124.582 430.772 124.468C430.772 124.355 430.805 124.244 430.866 124.148" fill="#EB996E"/>
<path d="M435.515 121.317C435.223 121.317 435.144 123.148 433.46 124.407C431.775 125.665 429.765 125.384 429.743 125.642C429.72 125.901 430.181 126.024 431.034 126.081C432.139 126.142 433.231 125.816 434.122 125.159C434.977 124.534 435.554 123.598 435.728 122.553C435.829 121.778 435.638 121.306 435.515 121.317Z" fill="#263238"/>
<path d="M437.11 101.961C437.323 102.41 439.041 102.04 441.107 102.118C443.174 102.197 444.858 102.601 445.105 102.118C445.206 101.905 444.881 101.489 444.184 101.096C443.252 100.605 442.217 100.339 441.164 100.321C440.108 100.288 439.059 100.5 438.098 100.939C437.368 101.31 437.02 101.748 437.11 101.961Z" fill="#263238"/>
<path d="M420.511 100.737C420.803 101.141 422.016 100.737 423.465 100.815C424.914 100.894 426.126 101.186 426.43 100.815C426.564 100.613 426.43 100.22 425.868 99.8268C425.166 99.3489 424.336 99.0944 423.487 99.0966C422.637 99.0764 421.802 99.3197 421.095 99.7931C420.568 100.186 420.377 100.546 420.511 100.737Z" fill="#263238"/>
<path d="M433.235 79.808C432.163 82.2801 432.075 85.0686 432.989 87.6034C433.903 90.1383 435.751 92.2282 438.154 93.446C440.276 94.5694 442.994 95.1985 444.05 97.3554C444.881 99.0292 444.409 101.186 445.465 102.736C446.52 104.287 448.418 104.579 449.845 105.624C451.799 107.05 452.573 109.6 452.787 112.004C452.82 114.438 452.985 116.868 453.281 119.284C453.764 121.643 455.179 124.047 457.481 124.755C458.941 117.913 460.266 110.971 459.895 103.995C459.525 97.0184 457.268 89.9073 452.405 84.897C447.542 79.8866 439.805 77.359 433.314 79.8417" fill="#263238"/>
<path d="M440.198 78.9092C448.598 79.2237 457.964 84.9418 460.828 92.8505C462.276 96.8273 462.613 101.411 465.398 104.601C467.161 106.612 469.733 107.87 471.17 110.117C474.248 114.936 470.71 121.553 472.63 126.968C473.484 129.383 475.348 131.27 476.797 133.371C478.245 135.472 479.324 138.191 478.347 140.55C477.961 141.357 477.409 142.075 476.728 142.655C476.047 143.236 475.252 143.667 474.393 143.92C472.682 144.415 470.908 144.665 469.127 144.661L442.051 145.818C441.692 144.8 441.551 143.718 441.638 142.642C441.725 141.565 442.038 140.52 442.556 139.572C444.353 136.708 448.789 134.079 447.801 129.967C446.812 125.856 444.802 126.372 444.735 122.104C444.667 117.835 447.632 113.746 447.138 110.038C446.644 106.331 445.431 107.185 443.87 101.343C442.309 95.5017 439.052 93.884 439.052 93.884L441.602 79.8753" fill="#263238"/>
<path d="M409.483 121.778C410.46 120.306 411.471 118.621 411.157 116.88C410.932 115.666 410.034 114.633 409.719 113.509C409.485 112.76 409.404 111.972 409.479 111.19C409.554 110.409 409.785 109.651 410.157 108.96C410.73 107.511 411.505 106.151 411.965 104.668C412.336 103.545 412.493 102.231 412.976 101.096C413.18 100.508 413.525 99.9791 413.981 99.556C414.438 99.1328 414.991 98.8284 415.593 98.6694C416.446 104.185 414.312 109.712 414.02 115.284C414.068 116.511 413.878 117.736 413.459 118.89C413.237 119.462 412.823 119.938 412.288 120.237C411.753 120.536 411.131 120.64 410.528 120.531" fill="#263238"/>
<path d="M421.039 135.394C421.039 135.394 420.938 135.787 420.365 136.124C419.547 136.537 418.628 136.712 417.715 136.629C416.356 136.559 415.049 136.081 413.964 135.259C412.624 134.262 411.627 132.872 411.112 131.282C410.605 129.678 410.684 127.946 411.336 126.395C411.869 125.148 412.712 124.057 413.785 123.227C414.495 122.673 415.308 122.264 416.177 122.025C416.488 121.906 416.822 121.86 417.154 121.89C416.03 122.263 414.978 122.826 414.043 123.553C413.054 124.366 412.282 125.412 411.797 126.597C411.218 128.03 411.158 129.619 411.628 131.091C412.103 132.567 413.016 133.864 414.245 134.809C415.24 135.599 416.44 136.086 417.704 136.214C418.551 136.323 419.412 136.218 420.208 135.91C420.803 135.674 420.983 135.36 421.039 135.394Z" fill="white"/>
<path d="M419.591 103.725C420.178 103.643 420.772 103.613 421.365 103.635H426.183H428.631C428.812 103.636 428.991 103.675 429.156 103.751C429.32 103.826 429.467 103.936 429.585 104.073C429.703 104.214 429.79 104.377 429.842 104.553C429.894 104.729 429.91 104.913 429.889 105.095L429.821 106.05C429.775 106.713 429.693 107.374 429.574 108.027C429.386 109.517 428.889 110.95 428.115 112.237C427.342 113.523 426.309 114.634 425.082 115.498C423.744 116.34 422.161 116.705 420.59 116.532C419.855 116.431 419.147 116.186 418.507 115.81C417.867 115.434 417.308 114.934 416.862 114.341C416.104 113.259 415.619 112.011 415.447 110.701C415.271 109.586 415.185 108.459 415.188 107.331C415.119 106.365 415.394 105.406 415.963 104.624C416.46 104.083 417.141 103.746 417.872 103.68C418.313 103.643 418.757 103.643 419.197 103.68C419.35 103.674 419.502 103.697 419.647 103.747C419.647 103.747 419.007 103.747 417.906 103.938C417.25 104.036 416.65 104.362 416.21 104.86C415.724 105.595 415.51 106.477 415.604 107.353C415.626 108.453 415.731 109.55 415.918 110.634C416.105 111.849 416.575 113.003 417.288 114.004C418.111 115.072 419.322 115.77 420.657 115.947C422.108 116.106 423.57 115.765 424.801 114.981C426.033 114.185 427.044 113.091 427.744 111.802C428.399 110.587 428.854 109.275 429.091 107.915C429.215 107.264 429.293 106.623 429.361 105.994L429.428 105.062C429.453 104.942 429.45 104.819 429.421 104.7C429.392 104.581 429.337 104.471 429.26 104.376C429.188 104.288 429.098 104.216 428.994 104.167C428.891 104.119 428.778 104.094 428.664 104.096H427.822H426.216L421.399 103.927C420.791 103.919 420.185 103.851 419.591 103.725Z" fill="white"/>
<path d="M443.937 103.725C443.355 103.826 442.765 103.871 442.174 103.86L437.357 104.028H435.762H434.908C434.795 104.028 434.682 104.054 434.58 104.102C434.477 104.151 434.386 104.221 434.313 104.309C434.238 104.405 434.184 104.515 434.155 104.633C434.126 104.752 434.122 104.875 434.145 104.994C434.145 105.298 434.145 105.612 434.223 105.927C434.276 106.572 434.366 107.213 434.493 107.848C434.72 109.21 435.175 110.524 435.841 111.735C436.536 113.027 437.549 114.121 438.783 114.914C440.01 115.698 441.468 116.039 442.916 115.88C444.251 115.703 445.462 115.004 446.285 113.937C446.998 112.936 447.468 111.781 447.655 110.566C447.845 109.483 447.954 108.386 447.98 107.286C448.066 106.409 447.848 105.528 447.363 104.792C446.925 104.294 446.324 103.967 445.667 103.871C444.544 103.691 443.926 103.736 443.926 103.68C444.074 103.629 444.23 103.606 444.387 103.613C444.828 103.576 445.271 103.576 445.712 103.613C446.443 103.679 447.124 104.015 447.621 104.556C448.192 105.338 448.463 106.299 448.385 107.264C448.392 108.392 448.309 109.519 448.138 110.634C447.961 111.944 447.472 113.192 446.711 114.274C446.265 114.867 445.706 115.366 445.066 115.742C444.426 116.118 443.718 116.364 442.983 116.464C441.412 116.635 439.829 116.271 438.491 115.431C437.266 114.564 436.234 113.453 435.461 112.167C434.688 110.881 434.19 109.449 433.999 107.96C433.886 107.286 433.808 106.623 433.752 105.983L433.696 105.028C433.672 104.847 433.685 104.662 433.736 104.487C433.786 104.311 433.872 104.147 433.988 104.006C434.107 103.87 434.254 103.761 434.418 103.685C434.583 103.61 434.761 103.57 434.942 103.568H437.39H442.208C442.788 103.57 443.367 103.623 443.937 103.725Z" fill="white"/>
<path d="M435.167 103.871C432.972 104.26 430.725 104.26 428.53 103.871C430.725 103.481 432.972 103.481 435.167 103.871Z" fill="white"/>
<path d="M436.886 112.184C436.762 112.285 435.908 111.431 435.324 110.083C434.876 109.305 434.702 108.399 434.83 107.51C434.998 107.51 435.29 108.634 435.863 109.847C436.436 111.06 437.02 112.083 436.886 112.184Z" fill="white"/>
<path d="M417.188 112.173C416.504 111.459 416.105 110.52 416.064 109.533C415.964 108.885 415.964 108.226 416.064 107.578H416.491C416.345 108.14 416.21 108.488 416.12 108.465C416.031 108.443 416.019 108.095 416.064 107.51H416.502C416.513 108.127 416.566 108.743 416.66 109.353C416.817 110.948 417.345 112.094 417.188 112.173Z" fill="white"/>
<path d="M459.738 92.6706C459.64 91.9241 459.281 91.2366 458.723 90.7305C458.166 90.2244 457.447 89.9326 456.695 89.9071C455.042 89.8975 453.395 90.1091 451.798 90.5362C449.75 90.8896 447.66 90.9312 445.599 90.6598C443.523 90.3921 441.526 89.6917 439.737 88.604C438.279 87.7051 437.022 86.5159 436.043 85.1102C435.379 84.1747 434.878 83.1341 434.56 82.0321C434.479 81.7334 434.419 81.4293 434.381 81.1222C434.381 80.9087 434.381 80.7964 434.381 80.7964C434.827 82.255 435.506 83.6319 436.391 84.8743C437.384 86.1859 438.619 87.2955 440.029 88.1434C441.754 89.155 443.663 89.8119 445.644 90.0756C447.652 90.3359 449.685 90.3132 451.686 90.0082C453.328 89.5837 455.024 89.4132 456.717 89.5027C457.304 89.5772 457.865 89.7902 458.353 90.1242C458.841 90.4583 459.243 90.9037 459.525 91.4237C459.664 91.7113 459.741 92.0253 459.749 92.3449C459.783 92.5583 459.761 92.6706 459.738 92.6706Z" fill="#455A64"/>
<path d="M461.468 95.4679C461.092 95.7409 460.68 95.9602 460.244 96.1194C459.08 96.6289 457.864 97.0057 456.616 97.2428C452.456 98.094 448.13 97.5169 444.337 95.6048C440.545 93.6927 437.508 90.5573 435.717 86.7054C435.165 85.5589 434.747 84.3527 434.47 83.1105C434.341 82.6611 434.273 82.1963 434.268 81.7288C434.745 83.3704 435.353 84.9709 436.088 86.5144C437.925 90.2124 440.911 93.215 444.597 95.0723C448.284 96.9295 452.474 97.5413 456.538 96.8159C458.213 96.4936 459.861 96.0429 461.468 95.4679Z" fill="#455A64"/>
<path d="M414.492 149.896L430.551 147.47H454.089L473.057 156.805L432.382 203.92L414.492 149.896Z" fill="#FFBE9D"/>
<path d="M469.565 155.086C469.565 155.086 434.897 195.304 434.28 197.461C433.662 199.618 414.492 149.896 414.492 149.896L410 150.649C405.688 151.278 398.916 151.278 391.538 170.364C384.16 189.451 380.454 202.078 380.454 202.078L401.791 204.718C401.791 204.718 404.34 213.48 406.833 219.457L401.993 240.801C401.993 240.801 458.29 248.227 464.758 243.61L465.982 196.158C465.982 196.158 469.677 181.43 472.72 176.498C475.764 171.566 477.527 161.377 483.063 161.692L469.565 155.086Z" fill="#663ED6"/>
<path d="M481.895 161.097C478.245 159.322 470.104 163.085 467.296 172.005C464.489 180.925 456.998 205.898 456.998 205.898L480.918 223.445C480.918 223.445 484.939 197.607 486.915 191.63C488.892 185.654 490.284 180.925 490.284 174.78C490.284 168.635 485.534 162.883 481.895 161.097Z" fill="#663ED6"/>
<path d="M434.336 197.236C434.174 195.039 434.216 192.832 434.459 190.642C434.5 188.442 434.737 186.25 435.167 184.093C435.315 186.286 435.274 188.489 435.043 190.676C434.995 192.879 434.758 195.074 434.336 197.236Z" fill="#EB996E"/>
<path d="M444.432 159.434C444.533 159.434 444.207 160.704 443.96 162.748C443.277 168.091 444.029 173.52 446.139 178.476C446.936 180.374 447.576 181.486 447.497 181.542C447.419 181.599 447.273 181.295 446.947 180.812C446.5 180.118 446.102 179.394 445.757 178.644C443.403 173.683 442.619 168.122 443.511 162.703C443.645 161.887 443.832 161.08 444.072 160.288C444.143 159.985 444.265 159.696 444.432 159.434Z" fill="#263238"/>
<path d="M444.499 178.251C444.499 178.251 444.207 178.127 443.769 177.79C443.146 177.319 442.564 176.797 442.028 176.229C440.244 174.342 438.888 172.093 438.053 169.634L437.772 168.825L438.48 169.286C440.686 170.693 442.465 172.679 443.623 175.027C443.971 175.746 444.246 176.499 444.443 177.273C444.578 177.813 444.622 178.116 444.578 178.127C444.533 178.138 444.184 177.004 443.252 175.274C442.037 173.065 440.288 171.195 438.165 169.836L438.592 169.499C439.412 171.887 440.681 174.095 442.332 176.004C443.601 177.419 444.555 178.172 444.499 178.251Z" fill="#263238"/>
<path d="M445.476 171.87C445.63 170.944 445.855 170.031 446.15 169.14C446.61 167.466 447.183 165.118 447.632 162.478L448.059 162.782L447.666 163.096C446.64 163.852 445.887 164.92 445.521 166.141C445.204 167.15 445.071 168.208 445.128 169.264C445.206 171.084 445.498 172.207 445.397 172.229C445.258 171.994 445.163 171.735 445.117 171.466C444.909 170.755 444.773 170.024 444.712 169.286C444.597 168.177 444.697 167.056 445.004 165.983C445.384 164.633 446.202 163.448 447.329 162.613C447.486 162.501 447.655 162.411 447.812 162.31L448.351 161.995L448.25 162.624C447.852 164.886 447.293 167.116 446.576 169.297C446.316 170.197 445.946 171.061 445.476 171.87Z" fill="#263238"/>
<path d="M444.196 158.603C443.758 158.46 443.312 158.348 442.859 158.266C442.387 158.225 441.913 158.302 441.478 158.491C440.995 158.704 440.535 159.131 440.658 159.614C440.782 160.097 441.388 160.041 441.927 159.917C442.412 159.817 442.884 159.658 443.331 159.445C444.095 159.075 444.51 158.704 444.566 158.771C444.622 158.839 444.308 159.299 443.533 159.805C443.075 160.094 442.575 160.31 442.051 160.445C441.722 160.538 441.381 160.576 441.04 160.558C440.819 160.533 440.61 160.442 440.44 160.298C440.27 160.154 440.146 159.963 440.086 159.749C440.049 159.549 440.059 159.343 440.115 159.148C440.172 158.953 440.273 158.774 440.411 158.625C440.651 158.374 440.942 158.179 441.265 158.052C441.794 157.846 442.371 157.799 442.927 157.918C443.87 158.041 444.297 158.603 444.196 158.603Z" fill="#263238"/>
<path d="M444.646 158.479C444.486 157.962 444.406 157.424 444.41 156.884C444.354 156.401 444.286 155.816 444.185 155.187C444.156 154.898 444.056 154.62 443.893 154.379C443.81 154.287 443.698 154.226 443.576 154.205C443.453 154.185 443.328 154.206 443.219 154.266C442.714 154.491 442.59 155.244 442.714 155.794C442.846 156.319 443.095 156.807 443.444 157.221C444.039 157.973 444.5 158.344 444.444 158.468C444.387 158.591 443.848 158.221 443.129 157.49C442.687 157.054 442.362 156.513 442.186 155.918C442.101 155.548 442.101 155.164 442.186 154.794C442.234 154.572 442.331 154.364 442.471 154.185C442.611 154.006 442.79 153.861 442.994 153.761C443.218 153.651 443.472 153.619 443.716 153.67C443.961 153.721 444.181 153.852 444.342 154.042C444.577 154.371 444.71 154.761 444.724 155.165C444.796 155.746 444.833 156.332 444.837 156.917C444.883 157.446 444.818 157.978 444.646 158.479Z" fill="#263238"/>
<path d="M445.195 158.075C445.708 157.885 446.233 157.732 446.767 157.614C447.286 157.46 447.734 157.13 448.036 156.682C448.215 156.443 448.304 156.149 448.288 155.851C448.271 155.553 448.15 155.271 447.947 155.053C447.686 154.898 447.383 154.831 447.082 154.861C446.781 154.892 446.498 155.018 446.273 155.221C445.867 155.583 445.591 156.069 445.487 156.603C445.285 157.569 445.274 158.221 445.173 158.21C445 157.665 444.97 157.085 445.083 156.524C445.147 155.869 445.446 155.258 445.925 154.806C446.247 154.537 446.635 154.358 447.048 154.289C447.274 154.242 447.508 154.245 447.733 154.297C447.958 154.35 448.169 154.45 448.351 154.592C448.53 154.741 448.674 154.928 448.772 155.14C448.869 155.352 448.917 155.584 448.912 155.817C448.891 156.218 448.763 156.606 448.542 156.94C448.161 157.482 447.586 157.857 446.936 157.985C446.376 158.182 445.772 158.213 445.195 158.075Z" fill="#263238"/>
<path d="M444.937 158.973C444.937 158.917 445.409 158.749 446.251 158.85C446.51 158.886 446.76 158.974 446.984 159.109C447.208 159.244 447.402 159.424 447.554 159.636C447.748 159.915 447.84 160.252 447.813 160.591C447.789 160.774 447.728 160.95 447.633 161.109C447.539 161.267 447.412 161.405 447.262 161.512C446.986 161.718 446.648 161.825 446.303 161.815C445.959 161.805 445.628 161.678 445.364 161.456C445.158 161.293 444.987 161.089 444.864 160.857C444.74 160.625 444.665 160.37 444.645 160.108C444.645 159.243 444.937 158.805 444.993 158.839C445.049 158.872 444.915 159.344 445.049 160.052C445.135 160.446 445.363 160.794 445.69 161.029C445.866 161.163 446.081 161.236 446.302 161.236C446.523 161.236 446.738 161.163 446.914 161.029C447.001 160.969 447.076 160.891 447.132 160.802C447.189 160.712 447.228 160.612 447.246 160.508C447.263 160.403 447.26 160.296 447.236 160.193C447.212 160.089 447.167 159.992 447.105 159.906C446.88 159.572 446.54 159.332 446.15 159.232C445.42 159.063 444.937 159.074 444.937 158.973Z" fill="#263238"/>
<path d="M438.604 166.466C438.604 166.534 438.222 166.331 437.649 166.331C437.329 166.321 437.011 166.394 436.728 166.545C436.414 166.702 436.155 166.994 436.234 167.253C436.313 167.511 436.65 167.477 437.031 167.365C437.364 167.292 437.685 167.175 437.986 167.017C438.514 166.747 438.806 166.5 438.874 166.556C438.941 166.612 438.739 166.972 438.211 167.365C437.9 167.597 437.55 167.772 437.178 167.882C436.944 167.967 436.696 168.009 436.447 168.005C436.273 167.996 436.106 167.934 435.968 167.828C435.829 167.721 435.726 167.576 435.672 167.41C435.631 167.252 435.629 167.087 435.666 166.928C435.703 166.77 435.779 166.623 435.886 166.5C436.057 166.307 436.267 166.154 436.503 166.051C436.88 165.895 437.293 165.848 437.694 165.916C438.38 166.096 438.683 166.466 438.604 166.466Z" fill="#263238"/>
<path d="M438.907 166.466C438.828 166.466 438.716 166.039 438.592 165.343C438.525 165.006 438.469 164.613 438.401 164.22C438.374 164.038 438.305 163.864 438.199 163.714C438.147 163.671 438.081 163.648 438.014 163.648C437.946 163.648 437.881 163.671 437.829 163.714C437.536 163.849 437.458 164.343 437.559 164.703C437.657 165.056 437.834 165.382 438.076 165.657C438.503 166.174 438.828 166.478 438.772 166.545C438.716 166.612 438.323 166.421 437.772 165.95C437.434 165.646 437.183 165.258 437.042 164.826C436.955 164.554 436.936 164.265 436.986 163.984C437.001 163.8 437.062 163.623 437.162 163.468C437.262 163.314 437.398 163.186 437.559 163.096C437.728 163.006 437.921 162.974 438.11 163.005C438.298 163.035 438.472 163.126 438.604 163.265C438.783 163.496 438.896 163.772 438.929 164.062C438.929 164.534 438.929 164.95 438.929 165.309C439.019 165.994 438.986 166.466 438.907 166.466Z" fill="#263238"/>
<path d="M439.288 166.129C439.288 166.028 439.726 165.95 440.355 165.691C440.693 165.563 440.977 165.326 441.164 165.017C441.271 164.862 441.319 164.675 441.3 164.488C441.282 164.301 441.198 164.126 441.063 163.995C440.893 163.905 440.699 163.872 440.509 163.9C440.319 163.928 440.143 164.017 440.007 164.152C439.744 164.406 439.567 164.736 439.502 165.096C439.378 165.759 439.367 166.219 439.277 166.219C439.187 166.219 439.064 165.792 439.097 165.04C439.112 164.555 439.309 164.094 439.648 163.748C439.871 163.513 440.168 163.362 440.489 163.321C440.811 163.28 441.137 163.351 441.411 163.523C441.555 163.628 441.671 163.765 441.751 163.923C441.831 164.081 441.872 164.256 441.872 164.433C441.873 164.734 441.791 165.029 441.636 165.287C441.374 165.683 440.973 165.968 440.513 166.085C439.738 166.264 439.299 166.186 439.288 166.129Z" fill="#263238"/>
<path d="M439.131 166.759C439.131 166.759 439.446 166.534 440.052 166.568C440.246 166.583 440.435 166.638 440.607 166.728C440.779 166.819 440.93 166.944 441.052 167.096C441.211 167.296 441.291 167.548 441.277 167.803C441.269 167.945 441.23 168.084 441.164 168.21C441.099 168.336 441.007 168.446 440.895 168.534C440.693 168.702 440.438 168.794 440.176 168.794C439.913 168.794 439.659 168.702 439.457 168.534C439.303 168.417 439.174 168.27 439.08 168.102C438.985 167.934 438.926 167.748 438.906 167.556C438.85 166.916 439.109 166.613 439.165 166.635C439.221 166.658 439.165 167.017 439.311 167.478C439.457 167.938 440.052 168.466 440.524 168.062C440.625 167.984 440.691 167.869 440.708 167.743C440.725 167.617 440.691 167.489 440.614 167.388C440.46 167.177 440.238 167.026 439.985 166.961C439.502 166.849 439.131 166.86 439.131 166.759Z" fill="#263238"/>
<path d="M448.79 172.903C448.734 172.982 448.397 172.78 447.835 172.769C447.515 172.766 447.2 172.84 446.914 172.982C446.588 173.139 446.33 173.431 446.42 173.69C446.509 173.948 446.835 173.914 447.217 173.802C447.549 173.728 447.87 173.611 448.172 173.454C448.689 173.196 448.981 172.937 449.048 173.005C449.116 173.072 448.913 173.409 448.385 173.813C448.072 174.041 447.722 174.216 447.352 174.33C447.12 174.406 446.877 174.444 446.633 174.442C446.458 174.436 446.289 174.375 446.15 174.269C446.011 174.162 445.909 174.015 445.858 173.847C445.816 173.692 445.813 173.529 445.848 173.373C445.883 173.216 445.956 173.071 446.06 172.948C446.227 172.751 446.439 172.597 446.678 172.499C447.056 172.335 447.474 172.284 447.88 172.353C448.52 172.488 448.79 172.859 448.79 172.903Z" fill="#263238"/>
<path d="M449.059 172.814C448.98 172.814 448.857 172.398 448.733 171.69C448.677 171.353 448.61 170.949 448.553 170.5C448.525 170.316 448.452 170.142 448.34 169.994C448.288 169.951 448.222 169.928 448.155 169.928C448.087 169.928 448.022 169.951 447.969 169.994C447.688 170.118 447.61 170.612 447.7 170.971C447.8 171.329 447.98 171.66 448.228 171.938C448.655 172.443 448.969 172.746 448.913 172.814C448.857 172.881 448.464 172.701 447.924 172.218C447.58 171.918 447.324 171.53 447.183 171.095C447.095 170.823 447.076 170.534 447.127 170.252C447.155 170.082 447.223 169.92 447.324 169.78C447.425 169.639 447.558 169.524 447.711 169.444C447.881 169.353 448.077 169.321 448.267 169.351C448.458 169.381 448.633 169.473 448.767 169.612C448.946 169.847 449.055 170.127 449.081 170.421C449.081 170.882 449.138 171.308 449.149 171.657C449.171 172.387 449.138 172.814 449.059 172.814Z" fill="#263238"/>
<path d="M449.44 172.521C449.44 172.431 449.878 172.342 450.496 172.094C450.838 171.963 451.126 171.722 451.316 171.409C451.418 171.253 451.464 171.066 451.446 170.88C451.427 170.694 451.346 170.52 451.215 170.387C451.037 170.286 450.83 170.247 450.627 170.275C450.424 170.303 450.236 170.398 450.092 170.544C449.835 170.802 449.663 171.131 449.598 171.488C449.463 172.151 449.463 172.611 449.362 172.611C449.261 172.611 449.159 172.196 449.193 171.432C449.209 170.953 449.401 170.497 449.732 170.151C449.955 169.916 450.251 169.764 450.572 169.721C450.893 169.678 451.219 169.747 451.496 169.915C451.639 170.02 451.756 170.157 451.836 170.315C451.916 170.473 451.957 170.648 451.957 170.825C451.965 171.127 451.883 171.424 451.721 171.679C451.463 172.08 451.061 172.366 450.597 172.476C449.912 172.656 449.451 172.589 449.44 172.521Z" fill="#263238"/>
<path d="M449.283 173.207C449.283 173.139 449.598 172.982 450.204 173.016C450.396 173.03 450.582 173.083 450.752 173.172C450.922 173.261 451.072 173.384 451.193 173.533C451.352 173.738 451.436 173.992 451.429 174.252C451.419 174.393 451.379 174.53 451.311 174.654C451.243 174.778 451.149 174.886 451.036 174.971C450.835 175.136 450.582 175.226 450.322 175.226C450.062 175.226 449.81 175.136 449.609 174.971C449.452 174.856 449.321 174.71 449.225 174.541C449.128 174.373 449.068 174.186 449.047 173.993C449.047 173.364 449.249 173.05 449.306 173.083C449.362 173.117 449.306 173.454 449.452 173.915C449.598 174.375 450.193 174.903 450.676 174.499C450.775 174.419 450.839 174.304 450.854 174.178C450.868 174.052 450.833 173.925 450.755 173.825C450.601 173.614 450.379 173.463 450.126 173.398C449.643 173.207 449.283 173.207 449.283 173.207Z" fill="#263238"/>
<path d="M477.886 161.119C478.032 161.198 472.922 170.342 466.476 181.531C460.03 192.72 454.696 201.752 454.561 201.651C454.426 201.55 459.525 192.428 465.971 181.239C472.417 170.05 477.751 161.041 477.886 161.119Z" fill="#263238"/>
<path d="M480.952 223.445C480.547 223.256 480.17 223.015 479.829 222.726L476.954 220.681L467.476 213.941C463.792 211.267 460.468 208.818 458.099 206.999C456.919 206.089 455.976 205.336 455.336 204.752C454.985 204.493 454.668 204.191 454.393 203.853C454.791 204.052 455.168 204.293 455.516 204.572L458.391 206.617L467.869 213.424C471.552 216.087 474.876 218.536 477.246 220.356C478.425 221.266 479.38 222.018 480.02 222.602C480.357 222.853 480.669 223.135 480.952 223.445Z" fill="#263238"/>
<path d="M453.753 214.84C452.975 215.08 452.161 215.179 451.349 215.132C449.389 215.145 447.443 214.81 445.599 214.143C443.758 213.483 442.041 212.514 440.523 211.279C439.868 210.799 439.305 210.206 438.861 209.526C442.976 213.115 448.296 215.013 453.753 214.84Z" fill="#263238"/>
<path d="M422.499 194.147C421.814 193.428 420.601 193.866 419.737 194.36C413.214 198.091 407.605 203.23 403.318 209.402L403.43 209.807C409.899 206.144 416.255 202.347 421.623 197.202C422.477 196.382 423.319 195 422.499 194.147Z" fill="#FAFAFA"/>
<path d="M402.532 207.009C404.928 200.11 406.183 192.867 406.249 185.564C406.249 184.766 406.07 183.755 405.283 183.609C405.048 183.591 404.813 183.647 404.611 183.77C404.409 183.893 404.252 184.077 404.16 184.294C403.966 184.74 403.87 185.223 403.88 185.71C403.509 192.754 402.757 199.932 402.566 206.987" fill="#FAFAFA"/>
<path d="M422.364 214.413C420.343 213.155 417.782 213.289 415.402 213.368C411.725 213.542 408.04 213.331 404.407 212.739L404.565 213.357C407.201 214.988 410.142 216.065 413.208 216.521C416.274 216.977 419.402 216.802 422.398 216.008C422.595 215.98 422.778 215.894 422.926 215.761C423.296 215.345 422.836 214.705 422.364 214.413Z" fill="#FAFAFA"/>
<path d="M405.598 216.177C405.385 215.873 405.218 215.54 405.104 215.188C404.812 214.548 404.43 213.593 403.981 212.413C402.824 209.326 401.856 206.171 401.083 202.965C400.329 199.755 399.793 196.497 399.477 193.214C399.365 191.956 399.298 190.968 399.275 190.226C399.216 189.854 399.216 189.475 399.275 189.103C399.54 190.44 399.735 191.79 399.859 193.147C400.196 195.641 400.735 199.079 401.622 202.808C402.51 206.538 403.554 209.863 404.329 212.256C404.831 213.536 405.254 214.845 405.598 216.177Z" fill="#263238"/>
<path d="M482.547 211.402C478.919 204.055 475.202 196.393 475.18 188.204C475.18 187.024 475.438 185.586 476.55 185.216C476.977 185.116 477.425 185.154 477.829 185.326C478.232 185.498 478.571 185.794 478.796 186.171C479.215 186.94 479.463 187.791 479.526 188.665C480.649 196.36 481.704 203.673 482.558 211.402" fill="#FAFAFA"/>
<path d="M462.265 188.08C461.04 186.107 460.386 183.832 460.378 181.509C460.334 181.251 460.348 180.987 460.42 180.736C460.492 180.485 460.62 180.254 460.794 180.059C461.009 179.911 461.266 179.837 461.527 179.847C461.788 179.857 462.039 179.951 462.243 180.116C462.647 180.449 462.957 180.883 463.141 181.374C463.327 181.863 463.58 182.325 463.893 182.744C464.208 183.104 464.668 183.43 464.679 183.868C464.664 184.159 464.558 184.437 464.376 184.665C463.669 185.789 462.961 186.912 462.265 188.035" fill="#FAFAFA"/>
<path d="M458.424 194.664C457.178 194.31 455.871 194.227 454.591 194.421C453.311 194.615 452.087 195.081 451.001 195.787C450.816 195.881 450.653 196.015 450.523 196.177C450.393 196.34 450.3 196.529 450.249 196.731C450.246 196.939 450.302 197.144 450.409 197.322C450.516 197.501 450.67 197.646 450.855 197.742C451.235 197.919 451.649 198.015 452.068 198.022L455.684 198.404C455.857 198.45 456.039 198.45 456.212 198.404C456.409 198.298 456.564 198.128 456.65 197.921C457.189 196.798 457.919 196.101 458.458 194.978" fill="#FAFAFA"/>
<path d="M396.153 178.296C394.222 176.241 392.482 174.015 390.954 171.645L390.224 173.712C391.347 175.645 392.47 177.543 393.705 179.408C394.04 180.026 394.532 180.546 395.131 180.913C395.437 181.086 395.797 181.137 396.138 181.055C396.48 180.974 396.778 180.767 396.973 180.475C397.344 179.722 396.715 178.902 396.153 178.296Z" fill="#FAFAFA"/>
<path d="M392.38 168.713C394.132 170.129 396.793 169.601 398.759 170.702L398.938 167.949C397.087 167.273 395.177 166.77 393.234 166.444C392.847 167.201 392.549 168 392.346 168.826" fill="#FAFAFA"/>
<path d="M416.794 455.965L418.468 478.219C418.468 478.219 396.389 485.813 396.299 489.959L439.603 489.812L438.356 454.987L416.794 455.965Z" fill="#663ED6"/>
<g opacity="0.3">
<path d="M416.794 455.965L418.468 478.219C418.468 478.219 396.389 485.813 396.299 489.959L439.603 489.812L438.356 454.987L416.794 455.965Z" fill="black"/>
</g>
<path d="M431.798 475.804C432.221 475.911 432.59 476.171 432.833 476.534C433.076 476.897 433.175 477.337 433.112 477.77C433.014 478.194 432.759 478.564 432.398 478.807C432.037 479.049 431.598 479.144 431.169 479.073C430.721 478.958 430.332 478.68 430.079 478.294C429.825 477.907 429.725 477.44 429.799 476.983C429.945 476.553 430.253 476.195 430.657 475.986C431.061 475.776 431.53 475.731 431.966 475.86" fill="#263238"/>
<path d="M439.636 489.812L439.513 486.307L397.703 487.903C397.263 488.135 396.888 488.474 396.612 488.888C396.335 489.301 396.166 489.777 396.12 490.273L439.636 489.812Z" fill="#263238"/>
<path d="M417.794 478.028C417.794 478.241 418.917 478.297 419.939 478.926C420.961 479.555 421.59 480.432 421.78 480.342C421.971 480.252 421.612 479.039 420.309 478.297C419.007 477.556 417.738 477.837 417.794 478.028Z" fill="#263238"/>
<path d="M413.335 480.095C413.335 480.297 414.223 480.623 414.976 481.488C415.728 482.353 415.975 483.285 416.189 483.274C416.402 483.263 416.481 482.05 415.526 481.027C414.571 480.005 413.324 479.893 413.335 480.095Z" fill="#263238"/>
<path d="M410.978 485.633C411.169 485.633 411.427 484.599 410.832 483.465C410.236 482.33 409.236 481.914 409.158 482.094C409.079 482.274 409.708 482.858 410.18 483.802C410.652 484.745 410.764 485.622 410.978 485.633Z" fill="#263238"/>
<path d="M417.962 472.916C418.063 473.107 419.018 472.77 420.208 472.804C421.399 472.838 422.353 473.175 422.454 472.995C422.555 472.815 421.623 472.085 420.208 472.074C418.793 472.063 417.85 472.748 417.962 472.916Z" fill="#263238"/>
<path d="M417.704 468.423C418.423 468.578 419.17 468.543 419.871 468.322C420.65 468.148 421.404 467.88 422.117 467.524C422.54 467.322 422.946 467.085 423.33 466.816C423.573 466.675 423.79 466.493 423.97 466.277C424.098 466.118 424.167 465.92 424.167 465.716C424.167 465.511 424.098 465.313 423.97 465.154C423.861 465.008 423.718 464.891 423.554 464.813C423.39 464.734 423.209 464.697 423.027 464.704C422.752 464.719 422.481 464.768 422.218 464.85C421.762 464.982 421.318 465.155 420.893 465.367C420.18 465.733 419.526 466.202 418.95 466.76C417.985 467.738 417.67 468.535 417.749 468.58C417.827 468.625 418.31 467.962 419.299 467.153C419.875 466.697 420.509 466.319 421.185 466.03C421.58 465.85 421.99 465.704 422.409 465.592C422.87 465.457 423.252 465.435 423.386 465.592C423.521 465.749 423.386 465.693 423.386 465.839C423.252 465.988 423.097 466.116 422.926 466.221C422.567 466.481 422.192 466.717 421.803 466.929C421.146 467.285 420.458 467.582 419.748 467.816C419.051 467.961 418.367 468.164 417.704 468.423Z" fill="#263238"/>
<path d="M417.985 468.715C418.373 468.079 418.546 467.334 418.479 466.592C418.487 465.306 418.141 464.043 417.479 462.941C417.351 462.66 417.152 462.417 416.902 462.236C416.652 462.055 416.36 461.942 416.053 461.907C415.86 461.919 415.674 461.986 415.517 462.099C415.36 462.212 415.238 462.368 415.166 462.548C415.068 462.804 415.008 463.072 414.986 463.345C414.925 463.832 414.944 464.325 415.042 464.806C415.187 465.627 415.534 466.4 416.053 467.053C416.951 468.176 417.839 468.356 417.85 468.288C417.861 468.221 417.165 467.794 416.48 466.749C416.079 466.143 415.815 465.457 415.705 464.738C415.649 464.321 415.649 463.898 415.705 463.48C415.761 463.02 415.918 462.638 416.087 462.683C416.255 462.728 416.682 462.997 416.873 463.357C417.097 463.715 417.292 464.091 417.457 464.48C417.725 465.168 417.895 465.89 417.962 466.626C418.063 467.884 417.872 468.659 417.985 468.715Z" fill="#263238"/>
<path d="M430.821 455.931L432.528 478.185C432.528 478.185 410.449 485.78 410.371 489.914L453.663 489.768L452.416 454.942L430.821 455.931Z" fill="#663ED6"/>
<path d="M445.847 475.759C446.267 475.87 446.631 476.131 446.872 476.494C447.112 476.856 447.211 477.294 447.149 477.725C447.055 478.15 446.801 478.524 446.439 478.768C446.078 479.013 445.637 479.11 445.206 479.039C444.761 478.92 444.376 478.641 444.123 478.256C443.87 477.87 443.768 477.405 443.836 476.949C443.985 476.52 444.293 476.165 444.696 475.956C445.099 475.747 445.567 475.7 446.004 475.826" fill="#263238"/>
<path d="M453.674 489.767L453.55 486.262L411.729 487.869C411.286 488.099 410.908 488.436 410.629 488.85C410.351 489.264 410.181 489.742 410.135 490.239L453.674 489.767Z" fill="#263238"/>
<path d="M431.831 477.994C431.831 478.197 432.954 478.253 433.976 478.893C434.998 479.533 435.638 480.398 435.829 480.297C436.02 480.196 435.65 479.005 434.347 478.253C433.044 477.5 431.775 477.803 431.831 477.994Z" fill="#263238"/>
<path d="M427.373 480.05C427.373 480.264 428.261 480.578 429.013 481.443C429.766 482.308 430.013 483.252 430.226 483.229C430.44 483.207 430.519 482.016 429.564 480.983C428.609 479.949 427.373 479.893 427.373 480.05Z" fill="#263238"/>
<path d="M425.015 485.588C425.218 485.588 425.465 484.555 424.869 483.42C424.274 482.285 423.274 481.87 423.195 482.05C423.117 482.229 423.746 482.825 424.218 483.757C424.69 484.69 424.813 485.577 425.015 485.588Z" fill="#263238"/>
<path d="M432 472.871C432.101 473.062 433.055 472.737 434.246 472.759C435.436 472.782 436.391 473.141 436.492 472.95C436.593 472.759 435.672 472.051 434.246 472.029C432.82 472.006 431.944 472.714 432 472.871Z" fill="#263238"/>
<path d="M431.742 468.378C432.46 468.54 433.209 468.505 433.909 468.277C434.686 468.106 435.44 467.842 436.155 467.491C436.577 467.28 436.986 467.044 437.379 466.783C437.611 466.631 437.822 466.45 438.008 466.244C438.138 466.088 438.214 465.894 438.224 465.691C438.235 465.489 438.178 465.288 438.064 465.12C437.953 464.975 437.807 464.859 437.641 464.783C437.475 464.706 437.292 464.672 437.11 464.682C436.834 464.691 436.562 464.74 436.301 464.828C435.844 464.959 435.401 465.132 434.976 465.345C434.258 465.703 433.602 466.173 433.033 466.738C432.067 467.704 431.753 468.513 431.831 468.547C431.91 468.58 432.393 467.929 433.381 467.12C433.962 466.67 434.595 466.292 435.268 465.997C435.667 465.821 436.08 465.678 436.503 465.57C436.952 465.424 437.345 465.401 437.469 465.57C437.592 465.738 437.469 465.682 437.469 465.817C437.335 465.969 437.18 466.102 437.008 466.21C436.647 466.462 436.272 466.695 435.885 466.907C435.231 467.269 434.543 467.567 433.83 467.794C433.122 467.942 432.424 468.137 431.742 468.378Z" fill="#263238"/>
<path d="M432.034 468.659C432.413 468.023 432.582 467.284 432.516 466.547C432.52 465.74 432.387 464.939 432.123 464.177C431.968 463.726 431.764 463.293 431.517 462.885C431.389 462.604 431.19 462.361 430.94 462.18C430.69 461.999 430.398 461.885 430.091 461.851C429.899 461.862 429.714 461.928 429.558 462.042C429.403 462.156 429.284 462.312 429.215 462.491C429.109 462.749 429.044 463.022 429.024 463.3C428.963 463.787 428.982 464.28 429.08 464.761C429.232 465.563 429.579 466.315 430.091 466.951C430.989 468.075 431.876 468.254 431.899 468.187C431.921 468.12 431.203 467.704 430.518 466.648C430.12 466.04 429.855 465.355 429.743 464.637C429.686 464.223 429.686 463.804 429.743 463.39C429.799 462.93 429.956 462.548 430.124 462.581C430.293 462.615 430.72 462.907 430.911 463.267C431.143 463.62 431.339 463.996 431.495 464.39C431.767 465.077 431.941 465.8 432.011 466.536C432.112 467.839 431.944 468.659 432.034 468.659Z" fill="#263238"/>
<path d="M401.982 240.824C401.982 240.824 389.123 270.032 389.123 290.612C389.123 311.193 403.868 378.473 403.868 378.473C403.868 378.473 405.822 397.088 407.788 421.915C409.074 437.441 411.583 452.842 415.289 467.974H429.99L453.82 468.625C453.82 468.625 463.927 427.15 463.287 411.467C462.647 395.784 460.019 377.821 460.019 377.821C460.019 377.821 472.754 325.887 475.045 316.417C477.336 306.947 476.348 271.672 475.045 270.695L464.803 243.632L401.982 240.824Z" fill="#263238"/>
<path d="M429.698 306.07C429.855 306.07 429.99 342.221 429.99 386.797C429.99 431.373 429.81 467.535 429.698 467.535C429.585 467.535 429.406 431.385 429.406 386.786C429.406 342.187 429.484 306.07 429.698 306.07Z" fill="#455A64"/>
<path d="M424.083 291.23C423.925 290.634 423.816 290.025 423.757 289.41C423.577 288.287 423.386 286.523 423.207 284.411C422.304 273.337 423.061 262.189 425.453 251.339C425.924 249.26 426.34 247.598 426.688 246.452C426.831 245.854 427.018 245.269 427.249 244.699C427.193 245.312 427.076 245.918 426.901 246.508C426.632 247.632 426.272 249.35 425.857 251.429C423.696 262.269 422.942 273.344 423.611 284.378C423.734 286.49 423.869 288.208 423.97 289.388C424.06 289.998 424.098 290.614 424.083 291.23Z" fill="#455A64"/>
<path d="M472.844 270.257C472.547 270.528 472.2 270.738 471.822 270.874C470.798 271.282 469.699 271.466 468.599 271.414C465.005 271.054 461.592 269.661 458.772 267.403C455.894 265.244 453.563 262.439 451.967 259.214C451.488 258.243 451.086 257.237 450.765 256.203C450.637 255.84 450.554 255.463 450.518 255.08C450.631 255.08 451.046 256.697 452.338 259.068C453.996 262.141 456.293 264.822 459.076 266.931C461.815 269.123 465.099 270.529 468.576 270.998C470.038 271.103 471.503 270.848 472.844 270.257Z" fill="#455A64"/>
<path d="M409.483 249.934C409.447 250.295 409.364 250.65 409.236 250.99C408.958 251.926 408.617 252.842 408.214 253.731C405.534 259.682 400.951 264.57 395.188 267.628C394.33 268.092 393.441 268.493 392.526 268.83C392.2 268.986 391.851 269.088 391.493 269.133C391.493 269.043 392.874 268.482 394.997 267.268C400.535 264.064 405.001 259.291 407.833 253.552C408.911 251.361 409.382 249.912 409.483 249.934Z" fill="#455A64"/>
<path d="M435.672 252.507C435.616 252.507 435.605 252.271 435.481 251.912C435.309 251.393 434.974 250.944 434.527 250.631C434.211 250.412 433.847 250.272 433.466 250.223C433.085 250.174 432.697 250.218 432.337 250.35C432.038 250.474 431.769 250.659 431.547 250.893C431.324 251.127 431.154 251.406 431.046 251.71C430.938 252.015 430.896 252.339 430.921 252.661C430.947 252.983 431.04 253.296 431.194 253.58C431.349 253.864 431.561 254.112 431.818 254.308C432.075 254.504 432.37 254.644 432.684 254.719C432.998 254.794 433.325 254.802 433.642 254.742C433.96 254.682 434.261 254.556 434.527 254.372C434.971 254.061 435.305 253.616 435.481 253.103C435.605 252.732 435.616 252.507 435.672 252.507C435.728 252.507 435.762 252.732 435.672 253.159C435.567 253.766 435.244 254.313 434.762 254.698C434.398 254.993 433.965 255.19 433.503 255.271C433.041 255.352 432.566 255.313 432.123 255.158C431.57 254.969 431.089 254.61 430.749 254.134C430.409 253.658 430.226 253.087 430.226 252.501C430.226 251.916 430.409 251.345 430.749 250.869C431.089 250.393 431.57 250.034 432.123 249.845C432.566 249.692 433.041 249.655 433.502 249.735C433.964 249.816 434.397 250.012 434.762 250.305C435.245 250.694 435.568 251.245 435.672 251.856C435.736 252.068 435.736 252.295 435.672 252.507Z" fill="#455A64"/>
<path d="M452.641 376.866C450.122 378.602 447.496 380.178 444.78 381.585C442.14 383.156 439.406 384.563 436.593 385.797C441.756 382.478 447.128 379.495 452.674 376.866H452.641Z" fill="#455A64"/>
<path d="M401.723 204.729L385.507 202.707L380.42 219.895L332.456 206.291C327.979 204.361 323.098 203.555 318.239 203.943L311.68 203.078C311.68 203.078 308.592 200.831 307.188 201.213C305.785 201.595 304.594 201.954 306.065 203.572C307.537 205.19 310.771 206.324 314.353 207.976L313.118 209.099H308.547C308.547 209.099 305.493 202.449 304.055 201.629C303.779 201.44 303.466 201.314 303.136 201.257C302.807 201.201 302.469 201.217 302.146 201.303L303.539 205.796C303.539 205.796 299.428 197.933 296.329 198.741C296.329 198.741 295.026 195.596 292.252 197.135L293.375 199.663C293.375 199.663 291.522 199.517 291.623 200.595C291.623 201.044 298.047 212.952 298.047 212.952L310.546 217.154C310.546 217.154 327.74 215.671 327.863 216.03C327.987 216.39 369.785 233.353 376.59 235.33C383.396 237.307 388.944 238.7 390.067 237.678C391.19 236.656 404.014 211.941 404.014 211.941L401.723 204.729Z" fill="#FFBE9D"/>
<path d="M351.334 216.783L363.373 223.681L375.557 225.927H392.234C392.234 225.927 428.013 239.756 437.312 241.835C446.61 243.913 457.998 247.766 461.378 245.71C464.758 243.655 478.335 221.557 478.335 221.557L460.884 208.706L453.023 222.074L398.489 215.334C398.489 215.334 393.514 210.514 387.742 210.031C381.97 209.548 368.651 208.425 368.494 210.031C368.336 211.638 368.168 212.435 370.897 212.919C373.626 213.402 381.318 215.165 381.318 215.165L371.863 216.457C371.863 216.457 362.396 211.964 361.587 211.964C360.779 211.964 359.824 213.087 359.824 213.087C359.824 213.087 356.938 211.638 355.5 211.795C355.08 211.847 354.68 212.008 354.342 212.262C354.003 212.516 353.736 212.855 353.569 213.244C352.954 213.33 352.369 213.565 351.865 213.929C351.362 214.294 350.956 214.776 350.683 215.334L352.614 216.131L351.334 216.783Z" fill="#FFBE9D"/>
<path d="M411.729 217.019H411.505H410.853L408.282 216.738L398.534 215.615H398.478C396.271 213.599 393.682 212.048 390.864 211.054C389.192 210.562 387.463 210.29 385.72 210.245C383.89 210.11 381.981 209.964 380.004 209.852C378.028 209.74 375.973 209.638 373.861 209.627C372.806 209.627 371.739 209.627 370.672 209.74C370.148 209.774 369.631 209.876 369.134 210.043C369.041 210.071 368.956 210.121 368.887 210.189V210.391C368.87 210.657 368.87 210.923 368.887 211.189C368.774 212.312 370.01 212.582 371.133 212.773L374.502 213.503L381.554 215.019L383.138 215.356L381.532 215.57L372.065 216.862H371.975H371.896C369.1 215.547 366.135 214.143 363.081 212.874C362.8 212.75 362.519 212.649 362.238 212.548C361.958 212.447 361.767 212.357 361.531 212.436C361.018 212.652 360.567 212.991 360.217 213.424L360.071 213.582L359.869 213.492C358.831 212.965 357.734 212.565 356.601 212.301C356.086 212.166 355.541 212.206 355.051 212.413C354.582 212.653 354.212 213.051 354.007 213.537L353.939 213.694H353.782C353.214 213.758 352.671 213.966 352.206 214.299C351.74 214.631 351.367 215.076 351.121 215.592L350.963 215.233L352.884 216.031L353.468 216.278L352.906 216.559L351.626 217.199V216.693L363.642 223.613H363.563L375.748 225.86L392.425 225.916H392.492L404.991 230.601L408.36 231.927L409.225 232.275L409.517 232.41C409.408 232.402 409.302 232.376 409.203 232.331L408.327 232.028L404.958 230.792L392.234 226.085H392.29H375.613L363.418 223.838L351.199 217.019L350.739 216.761L351.21 216.514L352.491 215.873V216.401L350.559 215.592L350.312 215.491L350.402 215.233C350.645 214.592 351.09 214.047 351.671 213.683C352.231 213.314 352.862 213.065 353.524 212.952L353.288 213.143C353.546 212.527 354.021 212.027 354.624 211.739C355.223 211.482 355.889 211.427 356.522 211.582C357.708 211.86 358.857 212.274 359.947 212.818L359.599 212.896C360.025 212.395 360.569 212.009 361.183 211.773C361.541 211.692 361.916 211.732 362.25 211.885L363.126 212.222C366.203 213.514 369.156 214.918 371.975 216.233H371.806L381.273 214.952V215.514L374.243 213.986L370.874 213.256C370.283 213.168 369.708 212.994 369.167 212.739C368.862 212.599 368.604 212.372 368.426 212.087C368.273 211.797 368.195 211.472 368.202 211.144C368.202 210.84 368.202 210.56 368.258 210.279V210.065C368.28 209.948 368.334 209.839 368.415 209.751C368.538 209.614 368.692 209.51 368.864 209.447C369.409 209.267 369.975 209.157 370.549 209.122C371.628 209.033 372.711 208.999 373.794 209.021C375.928 209.021 377.983 209.155 379.959 209.279C381.936 209.402 383.856 209.549 385.687 209.706C387.461 209.764 389.22 210.051 390.92 210.56C393.781 211.594 396.402 213.199 398.624 215.278H398.534L408.271 216.559L410.831 216.918L411.482 217.019C411.606 216.94 411.729 217.019 411.729 217.019Z" fill="#EB996E"/>
<path d="M371.874 217.143C371.608 217.204 371.337 217.245 371.065 217.266C370.334 217.421 369.61 217.612 368.898 217.839C367.825 218.198 366.729 218.487 365.619 218.704C364.206 218.754 362.8 218.481 361.508 217.906C360.267 217.367 358.991 216.909 357.69 216.536C356.632 216.243 355.542 216.077 354.445 216.042C353.435 216.064 352.435 216.242 351.48 216.57C351.48 216.57 351.693 216.345 352.187 216.12C352.9 215.822 353.661 215.659 354.433 215.637C356.959 215.675 359.446 216.261 361.722 217.356C362.933 217.899 364.247 218.175 365.574 218.165C366.753 218.008 367.82 217.637 368.797 217.435C369.532 217.236 370.284 217.105 371.043 217.041C371.582 217.019 371.885 217.109 371.874 217.143Z" fill="#EB996E"/>
<path d="M363.519 217.794C363.418 217.963 361.014 216.221 357.904 214.559C356.572 213.865 355.079 213.543 353.58 213.626C352.457 213.716 351.772 214.064 351.727 213.963C352.23 213.528 352.861 213.268 353.524 213.222C355.118 213 356.741 213.287 358.162 214.042C359.54 214.763 360.858 215.594 362.104 216.525C363.024 217.244 363.575 217.738 363.519 217.794Z" fill="#EB996E"/>
<path d="M368.011 217.367C367.271 217.286 366.553 217.073 365.888 216.738C364.257 216.047 362.671 215.255 361.138 214.368C360.228 213.862 359.386 213.357 358.589 213.009C357.88 212.677 357.121 212.468 356.343 212.391C355.629 212.362 354.914 212.434 354.22 212.604C354.518 212.362 354.861 212.181 355.229 212.073C355.598 211.965 355.984 211.932 356.365 211.975C357.189 212.004 358 212.186 358.757 212.514C359.653 212.911 360.527 213.357 361.374 213.851C363.182 214.862 364.799 215.772 366.012 216.356C366.709 216.629 367.378 216.968 368.011 217.367Z" fill="#EB996E"/>
<path d="M328.851 206.583C328.851 206.583 328.402 206.583 327.616 206.583C326.503 206.717 325.42 207.04 324.415 207.538C323.124 208.122 321.698 209.099 319.867 209.784C317.843 210.415 315.696 210.542 313.612 210.155C312.714 210.032 311.838 209.852 310.995 209.683C310.153 209.515 309.345 209.492 308.57 209.402H308.39L308.323 209.234C308.095 208.532 307.806 207.851 307.458 207.201L306.414 205.414L305.493 203.83L304.628 202.527C304.477 202.203 304.241 201.927 303.943 201.729C303.646 201.531 303.3 201.418 302.943 201.404C302.438 201.325 302.157 201.404 302.157 201.325C302.412 201.217 302.691 201.178 302.966 201.213C303.296 201.221 303.623 201.286 303.932 201.404C304.14 201.48 304.328 201.603 304.482 201.763C304.65 201.943 304.751 202.123 304.909 202.314L305.852 203.594L306.818 205.156L307.941 206.92C308.314 207.596 308.629 208.303 308.884 209.032L308.637 208.852C309.434 208.931 310.288 209.009 311.141 209.122C311.995 209.234 312.848 209.447 313.724 209.571C315.719 209.952 317.775 209.848 319.721 209.268C321.473 208.661 322.933 207.729 324.281 207.167C325.34 206.681 326.485 206.409 327.65 206.369C328.061 206.346 328.473 206.419 328.851 206.583Z" fill="#EB996E"/>
<path d="M311.478 215.525C309.664 215.212 307.912 214.609 306.29 213.739C304.604 213.03 302.981 212.181 301.439 211.2C303.216 211.653 304.929 212.329 306.537 213.211C308.223 213.895 309.873 214.667 311.478 215.525Z" fill="#EB996E"/>
<path d="M316.824 215.525C315.055 215.526 313.302 215.19 311.658 214.536C309.957 214.084 308.355 213.322 306.93 212.289C307.009 212.132 309.12 213.132 311.849 214.031C314.578 214.929 316.846 215.356 316.824 215.525Z" fill="#EB996E"/>
<path d="M302.157 201.292C302.952 202.903 303.573 204.594 304.011 206.336C304.634 208.024 305.071 209.776 305.314 211.56C304.512 209.95 303.887 208.259 303.449 206.516C302.83 204.826 302.397 203.075 302.157 201.292Z" fill="#EB996E"/>
<path d="M301.439 211.2C300.318 209.251 299.363 207.21 298.586 205.1C297.631 203.067 296.857 200.955 296.273 198.786C297.398 200.73 298.352 202.767 299.125 204.875C300.077 206.913 300.851 209.029 301.439 211.2Z" fill="#EB996E"/>
<path d="M298.732 211.604C297.391 209.32 296.22 206.939 295.229 204.482C294.061 202.109 293.07 199.654 292.264 197.135C293.607 199.415 294.778 201.792 295.768 204.246C296.935 206.623 297.925 209.082 298.732 211.604Z" fill="#EB996E"/>
<path d="M319.564 203.875C318.416 204.46 317.345 205.184 316.375 206.032C314.859 207.537 313.814 208.998 313.657 208.874C314.164 207.623 314.956 206.508 315.97 205.616C316.659 204.935 317.481 204.404 318.385 204.055C319.092 203.808 319.553 203.808 319.564 203.875Z" fill="#EB996E"/>
<path d="M372.087 222.849C370.666 223.309 369.189 223.574 367.696 223.636C366.214 223.902 364.704 223.97 363.204 223.838C364.633 223.392 366.112 223.128 367.606 223.052C369.085 222.793 370.591 222.725 372.087 222.849Z" fill="#EB996E"/>
<path d="M396.007 160.849C397.431 160.38 398.683 159.5 399.608 158.321C400.534 157.142 401.09 155.716 401.207 154.221C399.105 156.115 397.346 158.357 396.007 160.849Z" fill="#FAFAFA"/>
</svg>
