<svg width="1440" height="563" viewBox="0 0 1440 563" fill="none" xmlns="http://www.w3.org/2000/svg">
<g opacity="0.5">
<path d="M550.996 563C545.852 563 540.846 562.54 536.035 561.622C525.946 559.697 516.624 555.743 508.329 549.87C499.414 543.56 491.594 534.962 485.086 524.315C472.006 502.915 465.462 477.287 459.133 452.503C457.889 447.636 456.604 442.604 455.299 437.721C446.393 404.442 435.104 375.291 420.788 348.603C392.23 295.365 352.069 249.931 304.643 217.211C249.796 179.374 190.826 160.525 138.596 164.139C107.897 166.264 67.3359 186.472 49.208 220.984C38.4499 241.466 37.5824 264.196 46.7011 286.712L46.52 286.808C41.7388 274.999 39.6556 263.16 40.3301 251.621C40.9489 241.035 43.8777 230.688 49.0369 220.866C57.2423 205.244 70.774 191.398 88.1697 180.824C104.244 171.054 122.147 165.047 138.584 163.91C165.918 162.02 194.989 166.214 224.989 176.378C252.184 185.593 279.018 199.264 304.747 217.014C352.2 249.752 392.385 295.211 420.959 348.481C435.283 375.187 446.578 404.354 455.49 437.651C456.797 442.533 458.082 447.568 459.324 452.435C465.647 477.201 472.187 502.811 485.249 524.179C497.882 544.847 514.981 557.367 536.069 561.391C565.273 566.965 600.737 555.308 630.932 530.206C674.446 494.033 704.645 441.382 733.852 390.467C738.971 381.542 744.264 372.314 749.505 363.403C763.11 340.263 781.536 310.278 803.434 283.565C825.818 256.261 848.564 236.2 872.973 222.234C887.914 213.686 903.747 207.926 920.035 205.117C935.079 202.52 951.002 202.359 967.363 204.634C995.427 208.538 1025.66 219.565 1059.8 238.344C1127.01 275.323 1194.15 320.207 1259.35 371.752C1321.32 420.744 1382.1 476.182 1440 536.52L1439.86 536.688C1319.84 411.609 1191.94 311.3 1059.71 238.548C985.001 197.445 925.693 192.324 873.063 222.436C819.519 253.069 782.115 308.35 749.67 363.527C744.431 372.436 739.138 381.665 734.019 390.589C704.805 441.523 674.596 494.19 631.052 530.387C616.981 542.085 601.151 551.209 585.276 556.772C576.889 559.71 568.552 561.631 560.494 562.483C557.283 562.83 554.113 563 550.996 563Z" fill="#FFE492"/>
<path d="M556.024 550.309C542.909 550.309 530.76 547.466 519.902 541.854C507.795 535.596 497.347 525.898 488.847 513.034C488.095 511.894 487.349 510.716 486.629 509.528C473.688 488.222 466.854 462.927 460.246 438.464C458.909 433.52 457.528 428.406 456.127 423.444C447.785 393.899 437.739 367.859 425.413 343.84C423.895 340.883 422.323 337.92 420.737 335.033C391.76 282.253 351.272 237.394 303.651 205.304C248.408 168.112 189.271 150.043 137.134 154.427C106.659 157.017 66.2842 177.556 48.0788 211.803C37.1774 232.31 35.9438 255.085 44.5074 277.667L44.3243 277.758C39.8356 265.922 37.9912 254.061 38.8448 242.508C39.6287 231.897 42.6769 221.527 47.9077 211.685C56.1966 196.09 69.6886 182.228 86.921 171.599C102.848 161.775 120.674 155.597 137.116 154.201C164.417 151.906 193.519 155.699 223.615 165.473C250.875 174.327 277.837 187.663 303.751 205.11C351.399 237.217 391.909 282.104 420.904 334.913C422.49 337.802 424.064 340.768 425.582 343.727C437.916 367.762 447.968 393.815 456.314 423.376C457.717 428.338 459.098 433.452 460.435 438.398C467.041 462.845 473.869 488.122 486.792 509.399C487.51 510.582 488.256 511.76 489.007 512.898C506.571 539.491 530.706 550.309 556.086 550.309C556.225 550.309 556.363 550.309 556.502 550.309C556.343 550.307 556.184 550.309 556.024 550.309ZM561.438 550.151C585.034 548.771 609.381 538.446 630.269 523.087C675.325 489.819 707.707 438.437 739.024 388.747C740.313 386.699 741.602 384.655 742.892 382.611C745.723 378.125 749.08 372.814 752.506 367.46C767.876 343.451 786.477 315.514 807.9 290.369C830.694 263.613 853.465 243.758 877.515 229.668C892.292 221.02 907.909 214.927 923.931 211.56C938.776 208.44 954.465 207.559 970.555 208.939C998.353 211.324 1028.24 220.369 1061.93 236.592C1094.78 252.384 1121.78 267.249 1146.9 283.375C1182.49 306.24 1216.39 332.586 1244.86 355.341C1311.05 408.395 1375.99 468.639 1437.89 534.399L1437.75 534.565C1375.87 468.813 1310.93 408.574 1244.75 355.527C1216.28 332.774 1182.39 306.433 1146.8 283.574C1121.69 267.453 1094.69 252.592 1061.85 236.805C988.466 201.464 929.918 199.259 877.606 229.872C823.312 261.678 784.647 317.639 752.667 367.596C749.239 372.95 745.884 378.259 743.053 382.747C741.764 384.789 740.474 386.835 739.185 388.883C707.858 438.588 675.464 489.989 630.376 523.281C619.196 531.501 607.3 538.031 595.016 542.687C583.581 547.017 572.31 549.521 561.438 550.151Z" fill="#FFE492"/>
<path d="M561.569 537.909C559.991 537.909 558.424 537.871 556.868 537.791C543.764 537.132 531.637 533.709 520.825 527.612C509 520.943 498.755 511.067 490.377 498.254C489.633 497.113 488.891 495.932 488.174 494.745C475.379 473.542 468.26 448.585 461.378 424.453C459.943 419.423 458.459 414.221 456.955 409.173C448.2 379.727 437.89 353.896 425.43 330.201C423.888 327.271 422.293 324.333 420.683 321.469C391.286 269.148 350.472 224.865 302.656 193.405C247.019 156.859 187.715 139.567 135.67 144.721C106.366 147.669 66.1088 167.037 46.9683 202.59C35.9097 223.131 34.3001 245.968 42.3124 268.63L42.1274 268.713C37.9292 256.841 36.3275 244.953 37.3621 233.379C38.3132 222.735 41.4887 212.338 46.7991 202.473C55.1756 186.914 68.6238 173.048 85.6911 162.369C101.469 152.497 119.213 146.151 135.652 144.497C162.92 141.799 192.055 145.188 222.244 154.573C249.572 163.069 276.659 176.068 302.756 193.21C350.599 224.69 391.435 268.999 420.85 321.349C422.46 324.215 424.057 327.153 425.599 330.087C438.065 353.796 448.381 379.644 457.14 409.105C458.644 414.155 460.128 419.357 461.563 424.387C468.443 448.506 475.556 473.445 488.336 494.622C489.052 495.81 489.79 496.988 490.534 498.125C524.579 550.187 584.914 544.598 629.604 515.966C676.54 485.63 711.421 435.211 745.154 386.452L745.5 385.951C748.767 381.225 752.145 376.34 755.508 371.516C790.99 320.628 829.989 268.331 882.058 237.097C896.677 228.347 912.079 221.922 927.833 218C942.487 214.352 957.936 212.75 973.752 213.239C1001.33 214.091 1030.87 221.156 1064.07 234.836C1098.96 249.162 1125.22 262.331 1149.2 277.536C1183.38 299.244 1216.49 326.675 1245.69 350.878C1310.73 405.054 1374.68 466.083 1435.78 532.268L1435.64 532.431C1374.55 466.253 1310.6 405.23 1245.58 351.059C1216.37 326.861 1183.27 299.434 1149.11 277.733C1125.13 262.533 1098.88 249.369 1064 235.047C992.037 205.393 934.253 206.107 882.15 237.295C830.114 268.507 791.131 320.782 755.663 371.652C752.3 376.476 748.922 381.363 745.655 386.087L745.309 386.588C728.498 410.886 711.116 436.01 692.346 458.452C671.251 483.672 650.76 502.548 629.699 516.158C607.666 530.274 583.664 537.909 561.569 537.909Z" fill="#FFE492"/>
<path d="M1433.53 530.294C1373.23 463.69 1310.27 401.884 1246.41 346.591C1243.7 344.266 1240.99 341.93 1238.27 339.587C1210.61 315.747 1182 291.096 1151.41 271.892C1121.74 253.313 1091.66 241.952 1066.15 233.291C995.746 209.233 938.724 212.865 886.7 244.717C833.296 277.511 791.915 331.959 758.665 375.71C756.67 378.336 754.678 380.966 752.682 383.599C751.21 385.543 749.736 387.487 748.261 389.429C729.33 414.365 712.109 436.66 693.082 457.004C671.345 480.244 650.394 497.264 629.027 509.039C609.003 520.075 587.612 525.914 567.715 525.916C564.09 525.916 560.518 525.724 557.009 525.332C544.195 523.902 532.333 519.885 521.752 513.391C510.206 506.307 500.164 496.242 491.901 483.477C491.163 482.333 490.427 481.15 489.714 479.961C477.07 458.869 469.674 434.263 462.524 410.468C460.984 405.343 459.39 400.042 457.778 394.896C448.606 365.544 438.029 339.918 425.446 316.554C423.88 313.647 422.259 310.735 420.627 307.897C390.808 256.036 349.67 212.328 301.661 181.496C245.63 145.595 186.161 129.085 134.207 135.003C98.6894 139.129 62.3701 163.114 45.8837 193.328C34.652 213.912 32.6604 236.821 40.1196 259.578L39.9326 259.657C36.0269 247.741 34.6659 235.817 35.8876 224.214C37.0117 213.531 40.3186 203.1 45.7145 193.208C54.1786 177.694 67.583 163.828 84.4792 153.111C100.106 143.198 117.758 136.687 134.187 134.779C161.424 131.675 190.588 134.663 220.871 143.658C248.264 151.797 275.481 164.46 301.761 181.297C349.799 212.147 390.959 255.88 420.796 307.772C422.43 310.613 424.051 313.527 425.617 316.434C438.208 339.812 448.789 365.451 457.967 394.817C459.579 399.964 461.173 405.264 462.713 410.391C469.859 434.172 477.251 458.762 489.879 479.829C490.592 481.016 491.326 482.197 492.062 483.339C527.604 538.247 588.012 531.388 628.941 508.833C677.773 481.921 715.141 432.704 748.112 389.279C749.586 387.335 751.059 385.391 752.533 383.45C754.527 380.817 756.521 378.186 758.516 375.56C777.496 350.587 796.238 326.319 816.843 303.956C840.538 278.238 863.359 258.796 886.609 244.517C901.074 235.661 916.257 228.902 931.738 224.432C946.207 220.251 961.42 217.931 976.955 217.532C1004.35 216.83 1033.55 221.914 1066.21 233.073C1091.73 241.739 1121.82 253.104 1151.51 271.695C1182.11 290.906 1210.73 315.564 1238.4 339.408C1241.11 341.751 1243.83 344.087 1246.53 346.412C1310.4 401.709 1373.37 463.523 1433.68 530.133L1433.53 530.294Z" fill="#FFE492"/>
<path d="M1431.42 528.159C1370.78 459.857 1308.81 397.263 1247.24 342.122C1243.55 338.824 1239.78 335.423 1236.14 332.135C1210.03 308.59 1183.04 284.242 1153.72 266.051C1124.44 247.95 1094.11 238.443 1068.3 231.532C999.61 212.96 943.348 219.508 891.249 252.139C841.555 283.377 802.623 330.35 764.973 375.775L760.838 380.762C757.573 384.702 754.197 388.774 750.868 392.768C713.18 437.933 675.452 480.264 628.354 501.915C616.926 507.17 605.19 510.811 593.471 512.743C580.887 514.816 568.662 514.846 557.136 512.829C544.617 510.638 533.023 506.037 522.677 499.151C511.418 491.658 501.577 481.41 493.431 468.695C492.697 467.544 491.967 466.359 491.26 465.172C478.771 444.205 471.109 419.962 463.699 396.516C462.046 391.284 460.335 385.874 458.608 380.619C449.01 351.358 438.17 325.938 425.468 302.909C423.88 300.032 422.235 297.143 420.577 294.327C390.339 242.926 348.876 199.794 300.67 169.589C244.243 134.339 184.607 118.606 132.743 125.292C97.5493 129.925 61.3951 154.078 44.8252 184.029C33.4065 204.665 31.0209 227.662 37.9251 250.535L37.736 250.61C34.1228 238.642 33.0066 226.672 34.4173 215.035C35.7185 204.307 39.1626 193.835 44.6541 183.911C53.2097 168.45 66.5663 154.597 83.2835 143.848C98.7551 133.9 116.312 127.231 132.719 125.07C159.923 121.563 189.118 124.148 219.496 132.753C246.957 140.534 274.299 152.859 300.764 169.392C348.997 199.613 390.484 242.772 420.741 294.202C422.398 297.021 424.045 299.912 425.633 302.789C438.343 325.83 449.189 351.262 458.791 380.54C460.518 385.794 462.229 391.207 463.883 396.439C471.288 419.871 478.946 444.103 491.421 465.045C492.126 466.228 492.856 467.41 493.588 468.561C528.274 522.706 585.907 521.185 628.277 501.707C675.336 480.074 713.048 437.759 750.721 392.614C754.049 388.62 757.426 384.548 760.691 380.608L764.825 375.621C783.307 353.324 802.416 330.266 823.17 308.816C846.676 284.523 868.913 265.919 891.149 251.94C905.467 242.972 920.435 235.88 935.636 230.864C949.928 226.146 964.904 223.106 980.149 221.826C1007.43 219.535 1036.28 222.639 1068.35 231.31C1094.17 238.225 1124.51 247.734 1153.81 265.851C1183.15 284.049 1210.15 308.404 1236.26 331.956C1239.91 335.244 1243.67 338.642 1247.36 341.943C1308.94 397.089 1370.92 459.687 1431.56 527.996L1431.42 528.159Z" fill="#FFE492"/>
<path d="M1429.32 526.027C1369.19 456.965 1308.21 393.588 1248.07 337.659C1243.55 333.456 1238.91 329.085 1234.43 324.86C1209.73 301.568 1184.2 277.483 1156.02 260.216C1126.88 242.426 1096.42 234.847 1070.46 229.781C1003.67 216.546 948.165 226.013 895.795 259.568C850.093 288.975 812.57 330.651 776.28 370.954C772.462 375.195 768.513 379.579 764.664 383.828C760.146 388.817 756.694 392.607 753.473 396.115C736.22 414.888 715.679 436.506 694.123 454.487C671.28 473.539 649.546 486.726 627.68 494.801C616.182 499.047 604.496 501.725 592.946 502.758C580.545 503.868 568.537 503.053 557.26 500.331C545.041 497.384 533.718 492.197 523.601 484.918C512.63 477.024 502.994 466.592 494.959 453.918C494.235 452.769 493.509 451.582 492.805 450.39C480.481 429.564 472.562 405.694 464.902 382.611C463.125 377.257 461.288 371.722 459.436 366.345C449.406 337.165 438.302 311.954 425.486 289.267C423.875 286.415 422.205 283.553 420.524 280.759C389.865 229.819 348.076 187.262 299.676 157.685C242.857 123.083 183.054 108.131 131.28 115.581C101.821 119.913 63.3453 139.87 43.7949 174.685C32.1713 195.384 29.3817 218.486 35.7308 241.49L35.5417 241.558C32.221 229.529 31.3535 217.507 32.9611 205.825C34.4454 195.042 38.0328 184.525 43.6277 174.562C52.2748 159.165 65.5817 145.334 82.1138 134.563C97.4303 124.585 114.882 117.765 131.257 115.357C158.429 111.446 187.656 113.628 218.125 121.843C245.652 129.266 273.122 141.256 299.769 157.486C348.198 187.078 390.011 229.66 420.687 280.63C422.368 283.424 424.04 286.29 425.651 289.145C438.473 311.843 449.583 337.067 459.619 366.261C461.473 371.64 463.31 377.175 465.087 382.529C472.741 405.601 480.658 429.457 492.968 450.261C493.672 451.451 494.396 452.635 495.121 453.782C523.977 499.31 573.509 514.562 627.618 494.581C676.62 476.487 716.592 435.933 753.335 395.947C756.557 392.44 760.007 388.649 764.525 383.66C768.373 379.412 772.323 375.027 776.141 370.786C794.006 350.945 812.478 330.429 832.182 311.218C854.462 289.492 875.24 272.53 895.7 259.366C909.88 250.281 924.63 242.856 939.542 237.3C953.667 232.037 968.406 228.278 983.351 226.124C1010.56 222.204 1039.07 223.325 1070.49 229.552C1096.46 234.622 1126.95 242.204 1156.12 260.01C1184.31 277.288 1209.85 301.38 1234.56 324.678C1239.04 328.904 1243.67 333.275 1248.19 337.477C1308.34 393.414 1369.33 456.795 1429.46 525.862L1429.32 526.027Z" fill="#FFE492"/>
<path d="M1427.2 523.893C1367.61 454.068 1307.61 389.905 1248.89 333.191C1243.9 328.367 1238.77 323.304 1233.81 318.407C1210.17 295.084 1185.73 270.967 1158.33 254.375C1129.17 236.798 1098.63 231.19 1072.61 228.023C1008.84 220.054 952.494 232.801 900.341 266.991C858.815 294.338 823.218 330.923 788.792 366.305C781.839 373.451 774.65 380.842 767.66 387.886C763.384 392.198 759.596 395.984 756.074 399.459C739.697 415.605 717.913 436.307 694.633 453.225C671.243 470.222 649.12 481.494 627.001 487.682C602.876 494.432 578.799 494.482 557.374 487.829C545.462 484.13 534.408 478.361 524.517 470.682C513.839 462.392 504.408 451.779 496.483 439.143C495.764 437.992 495.044 436.803 494.344 435.611C482.195 414.943 474.029 391.466 466.134 368.763C464.224 363.271 462.251 357.593 460.259 352.076C449.789 322.973 438.42 297.966 425.501 275.63C423.866 272.803 422.173 269.966 420.468 267.197C389.389 216.717 347.276 174.733 298.68 145.788C241.469 111.836 181.499 97.664 129.815 105.877C94.7893 111.564 59.817 135.445 42.7934 165.298C30.9469 186.073 27.7456 209.294 33.5355 232.452L33.3445 232.513C30.3182 220.412 29.7014 208.327 31.51 196.595C33.1813 185.751 36.9219 175.179 42.6263 165.174C51.3649 149.848 64.62 136.05 80.9591 125.27C96.1144 115.271 113.456 108.302 129.788 105.651C156.929 101.337 186.187 103.118 216.75 110.941C244.344 118.006 271.941 129.661 298.772 145.584C347.395 174.547 389.532 216.554 420.631 267.066C422.336 269.835 424.029 272.674 425.667 275.503C438.591 297.853 449.966 322.871 460.442 351.988C462.434 357.505 464.407 363.185 466.317 368.677C474.208 391.368 482.37 414.834 494.507 435.482C495.207 436.674 495.926 437.859 496.644 439.01C525.005 484.243 573.718 502.355 626.953 487.462C675.485 473.884 717.63 437.059 755.943 399.289C759.463 395.814 763.253 392.03 767.527 387.718C774.515 380.674 781.705 373.285 788.657 366.139C823.09 330.751 858.693 294.157 900.239 266.798C914.294 257.584 928.829 249.828 943.439 243.742C957.413 237.924 971.915 233.445 986.543 230.429C1013.75 224.821 1041.91 223.963 1072.62 227.801C1098.67 230.97 1129.23 236.58 1158.42 254.178C1185.84 270.782 1210.29 294.907 1233.94 318.24C1238.9 323.136 1244.03 328.197 1249.02 333.021C1307.75 389.739 1367.74 453.907 1427.35 523.737L1427.2 523.893Z" fill="#FFE492"/>
<path d="M1425.1 521.757C1366.03 451.161 1307.02 386.217 1249.72 328.724C1244.46 323.44 1239.04 317.846 1233.81 312.435C1211.03 288.915 1187.48 264.592 1160.63 248.535C1131.35 231.107 1100.79 227.498 1074.76 226.265C1013.4 223.147 957.837 238.897 904.888 274.414C867.755 299.441 834.653 331.116 802.639 361.747C791.632 372.28 781.234 382.229 770.659 391.942C766.357 395.896 762.44 399.448 758.679 402.799C734.415 424.403 714.228 440.023 695.147 451.955C671.21 466.924 648.699 476.282 626.327 480.559C617.648 482.218 609.001 483.045 600.511 483.045C585.461 483.045 570.899 480.453 557.492 475.319C533.23 466.027 513.218 448.882 498.011 424.36C497.295 423.198 496.581 422.008 495.888 420.821C483.924 400.332 475.53 377.272 467.412 354.968C465.355 349.317 463.23 343.476 461.087 337.796C450.17 308.76 438.534 283.962 425.522 261.982C423.862 259.179 422.145 256.368 420.416 253.624C388.918 203.603 346.478 162.195 297.688 133.878C240.085 100.578 179.949 87.1833 128.355 96.1601C93.1841 102.407 59.2205 125.834 41.8328 155.846C29.7456 176.707 26.1204 200.066 31.3453 223.401L31.1523 223.458C28.4245 211.273 28.0623 199.115 30.0779 187.322C31.9442 176.405 35.8419 165.775 41.6677 155.722C50.4978 140.48 63.6952 126.727 79.8354 115.947C94.8275 105.932 112.048 98.8269 128.326 95.9358C155.435 91.2186 184.725 92.5961 215.379 100.03C243.042 106.739 270.764 118.058 297.779 133.674C346.598 162.009 389.061 203.44 420.58 253.49C422.309 256.236 424.026 259.048 425.687 261.853C438.707 283.844 450.349 308.656 461.27 337.703C463.413 343.383 465.54 349.226 467.595 354.877C475.709 377.17 484.1 400.221 496.054 420.692C496.746 421.877 497.458 423.066 498.174 424.227C526.571 470.021 573.268 490.472 626.293 480.333C676.769 470.681 721.477 435.632 758.556 402.618C762.315 399.267 766.232 395.717 770.534 391.763C781.107 382.05 791.505 372.103 802.512 361.57C834.529 330.933 867.639 299.253 904.786 274.217C918.736 264.86 933.054 256.771 947.343 250.173C961.183 243.784 975.449 238.584 989.743 234.721C1017 227.355 1044.82 224.514 1074.76 226.036C1100.82 227.269 1131.41 230.883 1160.72 248.331C1187.6 264.4 1211.16 288.734 1233.94 312.263C1239.18 317.674 1244.59 323.268 1249.85 328.549C1307.16 386.047 1366.16 450.998 1425.24 521.599L1425.1 521.757Z" fill="#FFE492"/>
<path d="M1422.99 519.624C1363.63 447.248 1307.22 383.343 1250.55 324.257C1245.15 318.62 1239.82 312.863 1234.19 306.768C1212.16 282.941 1189.37 258.306 1162.94 242.697C1133.29 225.276 1101.39 223.826 1076.91 224.51C1018.35 225.933 963.565 244.687 909.434 281.842C876.957 304.244 846.971 331.145 817.971 357.162C802.731 370.836 788.335 383.748 773.656 396.004C769.298 399.645 765.249 402.962 761.282 406.145C736.688 425.848 715.836 439.999 695.657 450.685C671.164 463.654 648.265 471.097 625.65 473.439C614.031 474.642 602.491 474.416 591.351 472.766C579.556 471.02 568.203 467.669 557.608 462.809C534.124 452.035 514.587 434.129 499.54 409.584C498.829 408.42 498.121 407.228 497.432 406.041C485.67 385.762 477.064 363.141 468.741 341.266C466.521 335.429 464.225 329.393 461.915 323.525C450.54 294.553 438.642 269.961 425.54 248.344C423.855 245.566 422.114 242.779 420.365 240.06C388.447 190.5 345.683 149.667 296.697 121.977C251.484 96.5261 204.858 83.2466 162.102 83.2466C150.015 83.2466 138.246 84.307 126.895 86.4526C92.1477 93.1501 58.397 116.662 40.9078 146.352C28.5639 167.31 24.499 190.828 29.1529 214.362L28.9579 214.412C26.5285 202.132 26.427 189.89 28.6554 178.029C30.7207 167.033 34.7876 156.332 40.7407 146.225C49.6623 131.078 62.7981 117.382 78.7313 106.613C93.7712 96.4468 110.415 89.3981 126.859 86.2306C153.937 81.11 183.258 82.0866 214.007 89.1285C241.735 95.4771 269.586 106.459 296.785 121.771C345.798 149.476 388.588 190.332 420.526 239.922C422.277 242.641 424.02 245.43 425.705 248.21C438.813 269.839 450.717 294.442 462.098 323.428C464.408 329.296 466.706 335.332 468.927 341.171C477.245 363.037 485.847 385.649 497.6 405.912C498.288 407.097 498.996 408.288 499.705 409.451C527.844 455.348 573.742 478.585 625.635 473.211C678.144 467.771 725.649 434.41 761.171 405.955C765.138 402.771 769.185 399.454 773.542 395.815C788.22 383.565 802.613 370.65 817.852 356.979C846.855 330.959 876.846 304.051 909.335 281.643C937.204 262.513 964.552 248.572 992.945 239.02C1020.33 229.808 1047.79 224.986 1076.91 224.279C1093.52 223.815 1107.07 224.621 1119.55 226.815C1135.68 229.647 1149.9 234.774 1163.03 242.491C1189.49 258.113 1212.29 282.762 1234.33 306.6C1239.96 312.695 1245.29 318.45 1250.69 324.087C1307.36 383.175 1363.77 447.084 1423.13 519.465L1422.99 519.624Z" fill="#FFE492"/>
<path d="M1420.88 517.488C1362.06 444.318 1306.62 379.652 1251.38 319.787C1245.92 313.865 1240.53 307.763 1234.83 301.303C1213.45 277.101 1191.35 252.071 1165.24 236.855C1135.34 219.515 1103.48 220.208 1079.06 222.748C1023.79 228.297 969.797 250.055 913.981 289.261C886.48 308.672 860.296 330.885 834.973 352.368C814.955 369.35 796.049 385.391 776.654 400.053C772.271 403.37 767.973 406.542 763.884 409.478C739.242 427.16 717.091 440.218 696.166 449.398C671.11 460.392 647.823 465.924 624.974 466.31C613.348 466.504 601.854 465.308 590.817 462.75C579.247 460.068 568.113 455.874 557.723 450.282C535.045 438.076 515.982 419.409 501.066 394.796C500.365 393.634 499.661 392.44 498.974 391.246C487.432 371.215 478.64 349.072 470.136 327.658C467.731 321.6 465.242 315.333 462.741 309.24C450.9 280.323 438.737 255.939 425.558 234.691C423.849 231.938 422.084 229.176 420.311 226.482C387.973 177.381 344.883 137.124 295.702 110.062C237.318 78.07 176.846 66.2339 125.431 76.7332C91.1329 83.859 57.6071 107.432 40.0204 136.784C27.398 157.853 22.8815 181.548 26.9563 205.311L26.7613 205.354C24.6363 192.967 24.7995 180.631 27.2488 168.688C29.523 157.602 33.7629 146.824 39.8553 136.655C48.8645 121.617 61.9346 107.989 77.6529 97.2426C92.5197 87.0786 109.028 79.9098 125.395 76.5089C152.442 70.9874 181.794 71.5583 212.634 78.2105C240.429 84.2056 268.406 94.8523 295.788 109.856C344.998 136.931 388.112 177.214 420.468 226.344C422.243 229.038 424.01 231.802 425.719 234.557C438.906 255.817 451.073 280.212 462.92 309.14C465.423 315.233 467.91 321.5 470.317 327.561C478.817 348.965 487.605 371.099 499.14 391.117C499.826 392.309 500.53 393.503 501.229 394.663C529.665 441.581 573.611 466.949 624.97 466.079C666.643 465.376 710.75 447.327 763.777 409.281C767.864 406.345 772.159 403.175 776.543 399.858C795.932 385.199 814.838 369.162 834.852 352.18C860.178 330.694 886.366 308.477 913.875 289.062C942.017 269.293 968.925 254.33 996.138 243.312C1023.71 232.151 1050.82 225.347 1079.04 222.515C1103.49 219.97 1135.39 219.279 1165.33 236.646C1191.47 251.881 1213.58 276.922 1234.97 301.136C1240.67 307.595 1246.06 313.695 1251.52 319.615C1306.76 379.482 1362.2 444.153 1421.02 517.327L1420.88 517.488Z" fill="#FFE492"/>
<path d="M1418.77 515.352C1360.5 441.387 1306.02 375.955 1252.21 315.32C1246.75 309.164 1241.36 302.768 1235.65 295.995C1214.88 271.36 1193.4 245.886 1167.55 231.014C1137.37 213.738 1105.55 216.581 1081.21 220.988C1029.21 230.221 977.522 254.274 918.528 296.684C896.403 312.662 874.782 330.19 853.872 347.14C828.476 367.726 804.489 387.173 779.652 404.109C775.177 407.163 770.748 410.095 766.488 412.819C741.404 428.846 718.569 440.393 696.677 448.114C684.414 452.439 672.309 455.573 660.698 457.429C648.312 459.407 636.066 459.998 624.299 459.187C600.425 457.54 578.065 450.33 557.842 437.76C536.001 424.184 517.414 404.757 502.597 380.015C501.9 378.844 501.202 377.648 500.52 376.46C489.224 356.724 480.275 335.106 471.622 314.203C469.001 307.875 466.293 301.331 463.57 294.964C451.252 266.094 438.824 241.917 425.577 221.047C423.844 218.317 422.053 215.58 420.259 212.913C387.501 164.27 344.086 124.588 294.711 98.1586C235.936 66.8213 175.299 55.7646 123.969 67.023C69.009 79.2647 15.4532 132.158 24.7648 196.267L24.5678 196.303C22.2379 180.266 23.6028 164.467 28.6228 149.341C33.2069 135.527 40.7299 122.527 50.9826 110.704C60.5151 99.7107 71.9517 90.2195 84.9721 82.4934C97.3557 75.1456 110.828 69.7169 123.93 66.7987C150.945 60.8738 180.329 61.0437 211.262 67.3062C239.125 72.9456 267.229 83.2569 294.794 97.9547C344.198 124.403 387.638 164.107 420.416 212.777C422.212 215.446 424.003 218.183 425.738 220.916C438.991 241.795 451.425 265.986 463.749 294.867C466.472 301.234 469.18 307.777 471.801 314.108C480.452 335.004 489.397 356.613 500.687 376.338C501.367 377.525 502.064 378.722 502.76 379.891C531.238 427.439 574.406 455.519 624.311 458.962C666.559 461.874 713.034 446.718 766.391 412.624C770.648 409.9 775.076 406.971 779.55 403.917C804.381 386.985 828.365 367.54 853.757 346.956C874.668 330.004 896.292 312.474 918.421 296.494C977.438 254.066 1029.15 230.004 1081.18 220.764C1097.54 217.803 1111.08 216.856 1123.8 217.787C1140.07 218.976 1154.41 223.236 1167.63 230.81C1193.52 245.698 1215.01 271.188 1235.79 295.837C1241.5 302.607 1246.89 309.003 1252.35 315.157C1306.16 375.797 1360.64 441.231 1418.91 515.2L1418.77 515.352Z" fill="#FFE492"/>
<path d="M1416.66 513.222C1358.94 438.45 1305.42 372.257 1253.04 310.856C1247.62 304.503 1242.27 297.848 1236.6 290.799C1216.39 265.693 1195.5 239.73 1169.85 225.177C1139.02 207.756 1105.72 213.441 1083.36 219.232C1022.67 234.757 968.277 270.85 923.077 304.113C906.832 316.117 890.628 328.832 874.955 341.128C843.517 365.795 813.823 389.094 782.653 408.171C778.069 410.978 773.508 413.668 769.095 416.167C743.522 430.62 720.002 440.652 697.193 446.833C671.335 453.841 646.586 455.604 623.627 452.07C600.041 448.438 577.948 439.411 557.964 425.239C537.003 410.376 518.891 390.19 504.127 365.242C503.439 364.071 502.745 362.872 502.066 361.681C491.051 342.306 481.99 321.283 473.226 300.95C470.355 294.286 467.384 287.399 464.4 280.694C451.417 251.462 439.087 228.177 425.599 207.409C423.842 204.704 422.03 201.994 420.209 199.35C387.028 151.169 343.287 112.063 293.716 86.2585C234.552 55.5782 173.748 45.2986 122.506 57.3161C67.3482 70.4233 14.8867 122.599 22.5708 187.228L22.3738 187.258C20.4677 171.223 22.1171 155.44 27.2744 140.348C32.0018 126.52 39.5685 113.506 49.7675 101.67C59.2781 90.6313 70.655 81.07 83.5839 73.2464C95.8939 65.7967 109.34 60.2117 122.466 57.0918C149.452 50.7636 178.865 50.5325 209.89 56.403C237.821 61.6867 266.052 71.6627 293.8 86.0523C343.4 111.87 387.165 150.999 420.363 199.21C422.183 201.856 423.998 204.568 425.757 207.273C439.252 228.05 451.586 251.349 464.575 280.592C467.559 287.297 470.53 294.187 473.401 300.85C482.164 321.176 491.223 342.193 502.229 361.558C502.908 362.75 503.6 363.946 504.289 365.118C532.988 413.613 575.377 444.414 623.651 451.845C666.946 458.511 714.491 446.772 769.006 415.963C773.417 413.466 777.977 410.779 782.557 407.972C813.719 388.899 843.409 365.605 874.842 340.94C890.514 328.644 906.72 315.926 922.968 303.92C953.362 281.555 978.647 265.031 1002.53 251.92C1030.66 236.485 1057.08 225.721 1083.32 219.01C1099.31 214.868 1113.25 212.992 1125.93 213.278C1142.26 213.645 1156.66 217.469 1169.94 224.973C1195.62 239.544 1216.53 265.523 1236.74 290.645C1242.41 297.692 1247.77 304.346 1253.18 310.695C1305.57 372.098 1359.09 438.296 1416.81 513.07L1416.66 513.222Z" fill="#FFE492"/>
<path d="M1414.55 511.083C1357.39 435.503 1304.83 368.546 1253.87 306.383C1248.53 299.865 1243.24 292.979 1237.64 285.688C1217.97 260.076 1197.63 233.592 1172.16 219.334C1140.99 201.954 1107.78 209.945 1085.51 217.469C1030.52 235.892 981.474 270.97 927.626 311.533C917.914 318.877 908.091 326.456 898.591 333.787C862.053 361.982 824.273 391.135 785.651 412.225C780.96 414.79 776.264 417.239 771.698 419.505C745.952 432.265 721.057 441.024 697.704 445.54C671.25 450.656 646.1 450.454 622.948 444.944C599.693 439.409 577.869 428.563 558.079 412.707C538.053 396.661 520.413 375.719 505.65 350.463C504.967 349.29 504.279 348.089 503.604 346.897C492.922 327.976 483.803 307.636 474.985 287.968C471.808 280.88 468.523 273.553 465.222 266.423C451.732 237.22 439.145 214.134 425.611 193.77C423.835 191.096 421.996 188.409 420.15 185.785C386.554 138.058 342.491 99.5269 292.722 74.3523C233.169 44.3292 172.2 34.8289 121.041 47.6031C67.6349 61.0842 14.2044 111.429 20.3744 178.182L20.1774 178.204C18.6951 162.17 20.6291 146.405 25.9236 131.347C30.7923 117.503 38.4047 104.477 48.548 92.6277C67.2628 70.7679 93.6697 54.2757 120.998 47.3788C147.952 40.6496 177.397 40.0152 208.515 45.4937C236.514 50.424 264.87 60.0624 292.801 74.1439C342.599 99.332 386.688 137.888 420.305 185.638C422.153 188.264 423.992 190.951 425.771 193.627C439.31 214.003 451.903 237.097 465.397 266.312C468.698 273.444 471.985 280.772 475.162 287.859C483.978 307.523 493.095 327.858 503.771 346.77C504.444 347.962 505.132 349.16 505.815 350.334C535.351 400.864 575.869 433.502 622.986 444.72C666.616 455.106 716.62 446.553 771.614 419.296C776.179 417.03 780.87 414.583 785.56 412.021C824.167 390.938 861.943 361.79 898.473 333.599C907.974 326.267 917.797 318.689 927.51 311.345C951.082 293.589 978.51 273.222 1005.73 256.218C1034.2 238.432 1060.28 225.687 1085.45 217.254C1101.3 211.9 1115.24 209.122 1128.06 208.764C1144.23 208.311 1159.09 211.801 1172.24 219.132C1183.65 225.52 1195.13 235.051 1207.35 248.274C1218.13 259.95 1228.12 272.959 1237.79 285.539C1243.38 292.828 1248.67 299.713 1254.01 306.229C1304.98 368.394 1357.53 435.353 1414.7 510.936L1414.55 511.083Z" fill="#FFE492"/>
<path d="M1412.44 508.949C1355.84 432.554 1304.24 364.833 1254.7 301.918C1249.45 295.257 1244.26 288.163 1238.76 280.654C1219.6 254.51 1199.79 227.476 1174.46 213.498C1150.79 200.477 1122.4 201.202 1087.66 215.714C1039.09 235.89 995.672 269.638 949.703 305.371C943.979 309.821 938.061 314.421 932.172 318.963C929.866 320.747 927.558 322.534 925.252 324.32C881.451 358.235 836.161 393.307 788.65 416.286C783.846 418.61 779.02 420.819 774.302 422.849C747.991 434.162 722.394 441.363 698.223 444.249C671.158 447.48 645.604 445.319 622.278 437.824C599.385 430.467 577.829 417.801 558.208 400.179C539.191 383.097 522.024 361.401 507.184 335.687C506.507 334.511 505.825 333.308 505.154 332.114C494.877 313.786 485.789 294.267 476.996 275.391C473.437 267.747 469.754 259.841 466.055 252.147C452.044 222.964 439.203 200.078 425.637 180.126C423.834 177.475 421.974 174.815 420.104 172.217C386.083 124.951 341.693 86.9935 291.729 62.4488C231.79 33.085 170.652 24.3619 119.579 37.8929C67.1531 51.8973 13.7983 102.654 18.1815 169.14L17.9825 169.158C16.926 153.121 19.1425 137.374 24.5743 122.355C29.5863 108.495 37.2425 95.4537 47.3321 83.5949C65.9673 61.6898 92.2826 44.9529 119.533 37.6731C146.457 30.5406 175.932 29.5029 207.142 34.5917C235.208 39.1639 263.694 48.467 291.808 62.2404C341.801 86.8009 386.218 124.779 420.253 172.069C422.123 174.668 423.988 177.333 425.79 179.984C439.362 199.947 452.211 222.84 466.226 252.034C469.927 259.728 473.608 267.636 477.169 275.28C485.958 294.151 495.047 313.666 505.319 331.987C505.99 333.181 506.67 334.382 507.347 335.558C537.524 387.842 577.283 423.126 622.329 437.599C666.796 451.887 717.903 446.85 774.23 422.632C778.944 420.602 783.769 418.395 788.57 416.073C836.065 393.103 881.348 358.038 925.139 324.127C927.447 322.339 929.753 320.554 932.059 318.771C937.948 314.228 943.865 309.629 949.589 305.181C995.569 269.441 1039 235.684 1087.59 215.499C1103.29 208.942 1117.22 205.265 1130.19 204.252C1146.42 202.985 1161.34 206.028 1174.55 213.292C1185.89 219.552 1197.23 229.127 1209.22 242.565C1219.79 254.422 1229.51 267.683 1238.91 280.507C1244.41 288.014 1249.61 295.105 1254.85 301.764C1304.39 364.681 1355.99 432.404 1412.59 508.802L1412.44 508.949Z" fill="#FFE492"/>
<path d="M1410.33 506.814C1358.67 435.625 1306.59 365.183 1255.53 297.449C1250.33 290.593 1245.18 283.227 1239.73 275.431C1221.99 250.068 1201.88 221.323 1176.77 207.658C1152.82 194.66 1124.38 196.719 1089.81 213.952C1048.71 234.376 1012.34 264.406 973.826 296.198C961.766 306.154 949.295 316.452 936.717 326.385C914.761 343.761 891.01 362.147 866.113 378.893C839.45 396.829 815.09 410.385 791.642 420.34C786.716 422.431 781.757 424.4 776.901 426.188C750.032 436.073 723.739 441.699 698.751 442.909C671.088 444.246 645.131 440.14 621.597 430.697C578.139 413.042 540.156 376.104 508.706 320.906C508.035 319.728 507.359 318.523 506.692 317.329C496.937 299.81 488.007 281.328 479.372 263.454C475.307 255.041 471.105 246.341 466.877 237.874C452.332 208.698 439.233 186.014 425.651 166.485C423.823 163.857 421.938 161.222 420.046 158.65C385.611 111.84 340.895 74.4604 290.736 50.5434C230.409 21.8366 169.106 13.8952 118.116 28.1806C65.3724 43.0416 13.3546 93.1255 15.9869 160.096L15.788 160.105C15.1572 144.064 17.6602 128.335 23.2253 113.354C28.3826 99.4764 36.0825 86.4212 46.1144 74.5534C55.5653 63.372 66.7672 53.5953 79.4075 45.4931C91.6798 37.6287 104.686 31.7288 118.067 27.9586C144.961 20.425 174.468 18.984 205.769 23.6809C233.903 27.9019 262.514 36.8674 290.811 50.3327C341.001 74.2633 385.742 111.666 420.197 158.499C422.09 161.073 423.978 163.71 425.806 166.338C439.394 185.878 452.5 208.571 467.05 237.756C471.278 246.225 475.48 254.926 479.545 263.341C488.18 281.213 497.108 299.692 506.859 317.204C507.524 318.4 508.202 319.603 508.871 320.782C540.298 375.936 578.246 412.845 621.663 430.482C666.385 448.426 720.044 446.867 776.839 425.97C781.692 424.183 786.65 422.216 791.572 420.127C843.998 397.871 891.965 361.522 936.601 326.197C949.18 316.264 961.649 305.968 973.708 296.013C1012.23 264.213 1048.61 234.176 1089.73 213.744C1124.35 196.484 1152.85 194.424 1176.85 207.452C1188.1 213.572 1199.27 223.165 1211 236.775C1221.34 248.777 1230.77 262.256 1239.88 275.288C1245.34 283.084 1250.48 290.448 1255.68 297.3C1306.74 365.036 1358.82 435.477 1410.48 506.669L1410.33 506.814Z" fill="#FFE492"/>
<path d="M1408.22 504.681C1357.35 433.098 1306.26 361.873 1256.36 292.983C1251.32 286.052 1246.33 278.557 1241.04 270.623C1223.74 244.669 1204.12 215.25 1179.07 201.817C1154.84 188.841 1126.35 192.235 1091.96 212.189C1055.93 233.066 1022.83 262.543 990.823 291.053C974.772 305.347 958.175 320.129 941.263 333.807C914.569 355.418 892.11 371.903 870.58 385.69C844.032 402.69 819.19 415.351 794.64 424.395C789.6 426.253 784.507 427.98 779.503 429.527C753.43 437.586 727.827 441.665 703.334 441.667C701.973 441.667 700.62 441.653 699.267 441.629C670.951 441.103 644.591 435.026 620.922 423.571C609.498 418.011 598.31 410.953 587.671 402.592C577.671 394.735 567.844 385.479 558.463 375.084C541.584 356.383 525.806 333.825 510.231 306.127C509.563 304.935 508.896 303.741 508.234 302.542C499.197 286.199 490.647 269.116 482.38 252.594C477.607 243.058 472.672 233.195 467.702 223.595C452.4 194.018 439.437 172.195 425.667 152.839C423.814 150.235 421.906 147.625 419.99 145.078C385.137 98.733 340.097 61.9285 289.743 38.639C229.03 10.5916 167.559 3.42962 116.654 18.4695C64.8985 33.804 12.9483 84.2686 13.7939 151.051L13.595 151.053C13.201 119.947 24.0268 90.3679 44.9004 65.5151C54.3354 54.2816 65.4775 44.4348 78.0203 36.2419C90.2249 28.2711 103.206 22.217 116.604 18.2475C143.466 10.3106 173.005 8.46859 204.398 12.7735C232.599 16.6411 261.338 25.2712 289.816 38.4261C340.202 61.7314 385.268 98.5585 420.143 144.931C422.059 147.48 423.971 150.093 425.824 152.696C439.6 172.063 452.569 193.894 467.875 223.482C472.846 233.084 477.782 242.947 482.553 252.483C490.82 269.003 499.368 286.084 508.403 302.422C509.065 303.621 509.73 304.815 510.398 306.004C543.495 364.863 579.673 403.252 621 423.362C678.241 451.068 738.76 441.889 779.451 429.31C784.451 427.762 789.541 426.038 794.578 424.18C851.043 403.376 902.567 364.857 941.147 333.623C958.057 319.95 974.653 305.168 990.702 290.876C1022.72 262.362 1055.83 232.876 1091.87 211.99C1107.26 203.061 1121.18 197.578 1134.44 195.23C1150.79 192.335 1165.84 194.483 1179.15 201.615C1190.37 207.631 1201.44 217.301 1212.97 231.176C1223.14 243.402 1232.32 257.171 1241.2 270.489C1246.49 278.421 1251.48 285.914 1256.51 292.84C1306.41 361.73 1357.5 432.955 1408.37 504.539L1408.22 504.681Z" fill="#FFE492"/>
<path d="M1406.11 502.546L1257.19 288.516C1252.33 281.526 1247.5 273.92 1242.38 265.87C1225.51 239.302 1206.38 209.19 1181.38 195.979C1157.19 183.205 1127.83 188.067 1094.11 210.432C1061.69 231.931 1032.12 260.523 1003.53 288.174C984.888 306.197 965.614 324.833 945.811 341.235C886.29 390.532 834.272 419.649 782.109 432.87C760.47 438.353 739.122 441.113 718.42 441.113C712.145 441.113 705.933 440.859 699.787 440.351C670.801 437.959 644.04 429.915 620.25 416.448C598.2 403.964 578.029 386.341 558.59 362.569C543.067 343.586 528.186 320.956 511.761 291.35C503.092 275.726 494.698 259.492 486.58 243.792C468.208 208.266 449.21 171.529 425.69 139.197C389.614 89.6072 342.26 50.7182 288.748 26.7332C227.651 -0.652699 166.013 -7.03752 115.191 8.75688C65.9869 24.0483 12.5823 72.2676 11.5994 142.007L11.4004 142.002C11.8401 110.83 23.0041 81.2557 43.6847 56.4754C62.3836 34.0696 87.7598 17.0449 115.14 8.5371C141.972 0.199217 171.543 -2.04612 203.025 1.86679C231.294 5.37867 260.16 13.6758 288.821 26.5225C315.3 38.3904 340.447 54.0126 363.567 72.9564C386.88 92.0587 407.833 114.295 425.842 139.048C449.371 171.391 468.375 208.137 486.751 243.672C494.869 259.369 503.264 275.601 511.93 291.223C535.894 334.422 569.874 387.669 620.339 416.239C678.215 449.004 740.231 443.245 782.065 432.643C834.203 419.432 886.196 390.326 945.693 341.047C965.489 324.652 984.76 306.016 1003.4 287.997C1032 260.341 1061.58 231.743 1094.01 210.232C1127.79 187.829 1157.21 182.962 1181.46 195.77C1192.65 201.686 1203.62 211.44 1214.97 225.594C1224.96 238.053 1233.9 252.126 1242.54 265.734C1247.66 273.784 1252.49 281.385 1257.35 288.373L1406.27 502.403L1406.11 502.546Z" fill="#FFE492"/>
<path d="M1404.91 486.091C1366.99 426.498 1334.45 378.14 1302.52 333.911C1287.02 312.425 1271.18 291.277 1255.46 271.053C1250.71 264.935 1246 258.428 1241.01 251.538C1228.47 234.221 1215.51 216.315 1200.59 203.027C1192.59 195.878 1184.88 190.76 1177.02 187.38C1152.92 176.9 1124.65 183.829 1092.98 207.975C1076.59 220.452 1061.67 234.652 1049.23 246.896C1036.07 259.858 1023.08 274.152 1010.52 287.976C992.468 307.846 973.801 328.392 953.734 346.037C941.523 356.806 929.145 366.429 916.943 374.64C892.53 391.066 866.326 404.602 839.059 414.87C822.213 421.144 805.285 425.886 788.749 428.963C774.497 431.605 760.219 433.13 746.309 433.494C725.491 434.043 705.209 431.951 686.024 427.273C665.626 422.297 646.322 414.356 628.65 403.666C612.892 394.134 598.007 382.133 583.147 366.973C555.454 338.746 533.367 306.108 517.219 280.827C509.286 268.35 501.54 255.626 494.049 243.32C472.479 207.882 452.105 174.41 426.61 144.596C405.816 120.439 382.091 99.5915 356.088 82.6303C336.106 69.5955 314.373 58.9353 291.494 50.9441C286.044 49.0431 280.491 47.2713 274.993 45.683C251.324 38.8564 224.679 34.411 195.799 32.4693C166.682 30.4664 141.491 32.1997 118.791 37.7734C105.957 40.9001 93.5239 45.8054 81.8306 52.3511C40.5491 75.4615 14.0407 114.258 10.9209 156.133L10.6722 156.108C11.5039 144.945 13.9453 133.949 17.9266 123.422C21.7089 113.424 26.9039 103.781 33.3664 94.761C45.5769 77.7227 62.2981 62.9683 81.7212 52.0951C93.4324 45.538 105.886 40.6259 118.739 37.4947C141.463 31.9165 166.674 30.1809 195.815 32.1861C224.71 34.1278 251.37 38.5777 275.055 45.4089C280.558 46.9994 286.114 48.7712 291.567 50.6744C314.464 58.6702 336.215 69.3395 356.213 82.3856C382.234 99.3582 405.979 120.223 426.783 144.396C452.294 174.229 472.673 207.71 494.25 243.157C501.74 255.462 509.485 268.184 517.416 280.66C533.556 305.929 555.634 338.551 583.31 366.76C598.155 381.904 613.023 393.894 628.764 403.415C663.35 424.334 702.895 434.36 746.301 433.211C760.199 432.846 774.467 431.322 788.707 428.682C805.231 425.605 822.147 420.867 838.98 414.598C866.23 404.337 892.418 390.81 916.815 374.393C929.01 366.189 941.38 356.571 953.581 345.811C973.636 328.174 992.299 307.633 1010.35 287.769C1022.91 273.944 1035.9 259.645 1049.07 246.678C1061.51 234.427 1076.44 220.224 1092.84 207.737C1106.94 196.986 1120.59 189.559 1133.42 185.66C1149.17 180.87 1163.88 181.359 1177.11 187.114C1184.99 190.506 1192.72 195.638 1200.75 202.802C1215.69 216.111 1228.66 234.029 1241.2 251.357C1246.19 258.245 1250.9 264.752 1255.65 270.865C1271.38 291.091 1287.21 312.242 1302.71 333.732C1334.65 377.966 1367.19 426.328 1405.11 485.926L1404.91 486.091Z" fill="#FFE492"/>
<path d="M1403.71 469.634C1368.55 409.033 1335.55 358.321 1302.83 314.604C1286.87 293.249 1270.35 272.722 1253.74 253.592C1249.33 248.517 1244.98 243.242 1240.37 237.66C1226.57 220.941 1212.3 203.653 1196.32 191.692C1188.25 185.627 1180.51 181.404 1172.67 178.78C1142.65 168.729 1112.15 187.77 1091.85 205.513C1077.47 218.047 1064.33 232.22 1051.03 246.849C1039.38 259.655 1028.42 273.431 1016.82 288.013C999.607 309.66 981.804 332.043 961.657 350.837C949.701 362.05 937.223 371.745 924.571 379.653C901.004 394.385 875.196 405.824 845.673 414.629C829.151 419.555 812.231 423.064 795.382 425.056C781.166 426.717 766.976 427.31 753.203 426.814C732.714 426.085 712.686 422.804 693.673 417.065C673.704 411.036 654.651 402.226 637.045 390.882C621.619 380.944 606.724 368.614 591.509 353.189C563.877 325.214 540.206 294.201 522.673 270.306C516.182 261.461 509.796 252.561 503.618 243.952C479.016 209.666 455.778 177.28 427.529 149.996C406.417 129.605 382.714 112.362 357.083 98.7499C337.69 88.4499 317.134 80.7328 294.245 75.1569C288.963 73.8722 283.589 72.7144 278.274 71.7152C254.931 67.3492 230.019 65.6975 199.877 63.9891C178.15 62.6954 149.708 61.8435 122.384 66.7873C109.443 69.0847 96.9341 73.0747 85.201 78.6416C43.8916 98.2469 15.8691 132.496 10.2384 170.261L9.94391 170.204C11.4362 160.19 14.4604 150.368 18.9272 141.008C23.1851 132.09 28.7801 123.539 35.5549 115.587C48.43 100.479 65.557 87.5935 85.0856 78.3266C96.8406 72.7484 109.373 68.7517 122.336 66.4497C149.686 61.4991 178.15 62.3532 199.891 63.647C230.043 65.3553 254.963 67.0071 278.322 71.3754C283.64 72.3768 289.018 73.5346 294.307 74.8193C317.218 80.4021 337.793 88.1259 357.208 98.4373C382.865 112.063 406.588 129.319 427.722 149.731C455.991 177.035 479.238 209.431 503.849 243.729C510.024 252.337 516.411 261.237 522.902 270.08C540.43 293.965 564.092 324.967 591.708 352.929C606.905 368.338 621.784 380.654 637.192 390.581C671.812 412.887 710.849 424.961 753.213 426.47C766.974 426.964 781.15 426.372 795.352 424.711C812.185 422.722 829.091 419.217 845.597 414.294C875.096 405.498 900.882 394.067 924.43 379.349C937.066 371.451 949.528 361.769 961.47 350.568C981.599 331.789 999.395 309.415 1016.61 287.78C1028.21 273.191 1039.17 259.413 1050.82 246.6C1064.13 231.961 1077.27 217.785 1091.67 205.237C1104.83 193.734 1117.81 185.459 1130.25 180.638C1145.34 174.792 1159.64 174.056 1172.76 178.447C1180.63 181.082 1188.39 185.319 1196.48 191.402C1212.49 203.386 1226.78 220.689 1240.59 237.422C1245.19 243.002 1249.55 248.275 1253.95 253.347C1270.57 272.484 1287.09 293.018 1303.06 314.379C1335.79 358.108 1368.8 408.829 1403.96 469.444L1403.71 469.634Z" fill="#FFE492"/>
<path d="M1402.51 453.174C1369.6 390.742 1337.1 339.099 1303.14 295.296C1286.72 274.073 1269.52 254.168 1252.01 236.131C1248.27 232.275 1244.42 228.183 1240.7 224.227C1225.31 207.882 1209.41 190.982 1192.04 180.358C1183.89 175.337 1176.13 172.006 1168.33 170.178C1138.37 163.156 1109.59 184.178 1090.72 203.047C1077.93 215.785 1066.25 230.222 1054.94 244.186L1052.82 246.8C1042.56 259.468 1032.93 273.361 1022.74 288.073C1006.5 311.498 989.717 335.719 969.579 355.635C957.862 367.308 945.286 377.075 932.198 384.665C909.378 397.9 883.982 407.343 852.281 414.385C835.888 418.026 818.976 420.301 802.012 421.144C787.831 421.821 773.729 421.481 760.092 420.129C718.806 416.053 680.23 401.91 645.435 378.095C630.393 367.799 615.489 355.145 599.872 339.403C573.443 312.819 549.937 285.494 528.128 259.785C525.204 256.339 522.311 252.915 519.44 249.519C489.652 214.289 461.518 181.012 428.454 155.401C406.868 138.68 383.189 125.044 358.078 114.871C339.642 107.403 319.661 102.333 296.999 99.3691C291.892 98.7053 286.697 98.1592 281.557 97.7469C268.628 96.7273 254.916 96.5619 240.397 96.3874C228.736 96.247 216.678 96.102 203.954 95.5106C179.38 94.2712 151.529 92.8688 125.973 95.8051C112.788 97.3209 100.203 100.393 88.5677 104.938C47.2742 121.07 17.7356 150.776 9.55212 184.402L9.21588 184.296C11.3727 175.43 14.9779 166.781 19.9302 158.591C24.6656 150.758 30.6585 143.295 37.7417 136.409C51.2893 123.241 68.8262 112.229 88.4523 104.562C100.114 100.006 112.724 96.9267 125.936 95.4086C151.517 92.47 179.382 93.8747 203.966 95.1141C216.682 95.7032 228.74 95.8505 240.397 95.9909C254.922 96.1654 268.638 96.3308 281.579 97.3526C286.722 97.7673 291.923 98.3133 297.035 98.9772C319.725 101.943 339.729 107.021 358.191 114.5C383.333 124.684 407.037 138.335 428.647 155.074C461.741 180.709 489.889 214.002 519.688 249.247C522.559 252.644 525.454 256.065 528.377 259.513C550.182 285.218 573.68 312.536 600.101 339.111C615.702 354.835 630.59 367.478 645.614 377.759C680.364 401.545 718.89 415.667 760.121 419.739C773.743 421.089 787.831 421.429 801.996 420.752C818.942 419.909 835.838 417.636 852.213 414C883.883 406.965 909.249 397.532 932.038 384.316C945.099 376.742 957.651 366.993 969.349 355.34C989.46 335.449 1006.23 311.242 1022.46 287.83C1032.66 273.112 1042.29 259.212 1052.56 246.535L1054.68 243.92C1065.99 229.95 1077.69 215.504 1090.49 202.752C1109.41 183.822 1138.3 162.739 1168.39 169.793C1176.24 171.63 1184.02 174.972 1192.21 180.013C1209.61 190.66 1225.53 207.578 1240.93 223.941C1244.65 227.897 1248.5 231.989 1252.24 235.843C1269.76 253.89 1286.97 273.805 1303.4 295.04C1337.37 338.861 1369.89 390.522 1402.8 452.975L1402.51 453.174Z" fill="#FFE492"/>
<path d="M1401.31 436.713C1371.1 373.338 1338.17 319.262 1303.45 275.991C1286.57 254.902 1268.69 235.618 1250.29 218.675C1247.64 216.228 1244.92 213.688 1242.29 211.232C1224.9 195.007 1206.92 178.227 1187.78 169.028C1179.56 165.038 1171.78 162.603 1163.99 161.579C1134.11 157.654 1107.05 180.622 1089.6 200.581C1078.76 212.911 1068.99 226.623 1059.53 239.885C1057.89 242.18 1056.26 244.47 1054.62 246.752C1045.62 259.286 1037.21 273.288 1028.31 288.111C1013.17 313.31 997.521 339.366 977.504 360.437C965.75 372.81 953.426 382.376 939.824 389.685C911.376 404.972 882.946 410.63 858.889 414.151C842.617 416.53 825.713 417.572 808.642 417.241C794.505 416.935 780.488 415.66 766.982 413.453C726.936 406.925 688.866 390.73 653.83 365.315C639.251 354.743 624.339 341.761 608.237 325.627C591.971 309.368 576.814 293.723 562.154 278.592C552.192 268.308 542.781 258.595 533.59 249.276C498.851 214.048 467.03 183.076 429.388 160.813C407.338 147.774 383.683 137.741 359.079 130.996C341.444 126.161 322.594 123.807 299.759 123.582C294.832 123.542 289.814 123.607 284.846 123.779C277.299 124.058 269.492 124.64 261.229 125.259C245.371 126.444 227.395 127.788 208.031 127.035C200.658 126.748 193.135 126.342 185.858 125.948C167.144 124.935 147.792 123.888 129.561 124.824C116.172 125.513 103.51 127.67 91.9303 131.236C50.7064 143.935 19.6537 169.101 8.8618 198.553L8.49371 198.379C11.319 190.666 15.5053 183.194 20.9351 176.168C26.15 169.42 32.5408 163.047 39.9264 157.226C54.1585 146.011 72.1033 136.873 91.8229 130.799C103.431 127.223 116.121 125.06 129.539 124.371C147.79 123.433 167.15 124.482 185.874 125.495C193.149 125.889 200.672 126.294 208.043 126.582C227.389 127.334 245.351 125.993 261.201 124.808C269.468 124.19 277.278 123.607 284.832 123.329C289.807 123.156 294.828 123.091 299.761 123.131C322.628 123.354 341.506 125.714 359.17 130.556C383.804 137.31 407.491 147.354 429.569 160.412C446.572 170.467 463.803 183.207 482.245 199.357C498.755 213.815 514.816 229.634 533.853 248.938C543.043 258.26 552.454 267.973 562.419 278.257C577.076 293.385 592.234 309.03 608.495 325.287C624.582 341.405 639.478 354.374 654.039 364.935C689.027 390.315 727.043 406.488 767.034 413.007C780.524 415.211 794.523 416.484 808.644 416.79C825.695 417.121 842.581 416.081 858.833 413.702C882.86 410.188 911.253 404.537 939.651 389.278C953.215 381.989 965.507 372.448 977.23 360.106C997.212 339.071 1012.85 313.036 1027.98 287.857C1036.89 273.025 1045.3 259.016 1054.31 246.469C1055.95 244.187 1057.58 241.896 1059.21 239.604C1068.68 226.333 1078.46 212.612 1089.31 200.266C1100.66 187.281 1112.31 177.291 1123.92 170.576C1137.68 162.621 1151.17 159.444 1164.03 161.135C1171.85 162.163 1179.67 164.61 1187.93 168.616C1207.12 177.84 1225.12 194.64 1242.53 210.885C1245.16 213.342 1247.88 215.881 1250.53 218.326C1268.94 235.283 1286.84 254.585 1303.73 275.69C1322.17 298.667 1340.23 324.845 1357.4 353.497C1372.57 378.821 1387.46 406.749 1401.65 436.5L1401.31 436.713Z" fill="#FFE492"/>
<path d="M1400.11 420.249C1372.14 355.057 1339.73 300.027 1303.76 256.686C1286.42 235.73 1267.85 217.07 1248.58 201.218C1247.66 200.464 1246.74 199.709 1245.82 198.953C1225.78 182.449 1205.05 165.384 1183.52 157.701C1175.18 154.723 1167.37 153.18 1159.66 152.981C1129.9 152.215 1104.53 177.102 1088.48 198.112C1079.04 210.404 1070.65 223.876 1062.55 236.904C1060.55 240.126 1058.47 243.456 1056.43 246.701C1048.63 259.058 1041.39 273.108 1033.72 287.985C1019.77 315.044 1005.35 343.024 985.435 365.237C973.915 378.088 961.492 387.727 947.455 394.705C919.8 408.451 891.72 412.06 865.497 413.914C849.326 415.056 832.428 414.861 815.271 413.336C801.181 412.045 787.253 409.836 773.872 406.772C735.189 397.936 697.624 379.688 662.226 352.533C648.05 341.66 633.553 328.731 616.607 311.847C584.401 279.846 560.485 257.307 539.064 238.766C496.459 201.891 463.942 180.197 430.339 166.227C407.842 156.874 384.21 150.446 360.098 147.12C343.369 144.813 325.615 145.019 302.535 147.795C297.805 148.37 292.966 149.048 288.151 149.811C283.603 150.543 278.983 151.382 274.09 152.267C256.026 155.541 235.551 159.253 212.116 158.559C199.764 158.195 187.148 157.195 174.947 156.23C161.081 155.134 146.744 153.998 133.15 153.844C119.521 153.69 106.781 154.932 95.2951 157.537C54.2085 166.852 21.6377 187.481 8.16962 212.719L7.7876 212.454C11.2854 205.897 16.0527 199.601 21.956 193.739C27.6544 188.08 34.4392 182.798 42.1233 178.038C57.0497 168.789 75.4064 161.525 95.2075 157.037C106.726 154.427 119.493 153.18 133.154 153.335C146.76 153.489 161.105 154.624 174.977 155.723C187.174 156.688 199.784 157.687 212.126 158.052C235.519 158.743 255.972 155.036 274.017 151.767C278.911 150.879 283.535 150.042 288.086 149.308C292.907 148.545 297.749 147.867 302.483 147.29C325.599 144.512 343.382 144.303 360.147 146.617C384.294 149.947 407.959 156.384 430.488 165.751C464.137 179.739 496.688 201.456 539.331 238.363C560.759 256.91 584.683 279.456 616.898 311.467C633.832 328.337 648.313 341.252 662.473 352.114C697.823 379.23 735.333 397.453 773.958 406.276C787.32 409.335 801.232 411.539 815.303 412.831C832.44 414.353 849.316 414.548 865.467 413.409C891.651 411.557 919.683 407.957 947.274 394.243C961.259 387.292 973.639 377.685 985.119 364.879C1004.99 342.713 1019.4 314.763 1033.33 287.733C1041 272.847 1048.25 258.786 1056.06 246.411C1058.1 243.168 1060.18 239.838 1062.18 236.616C1070.29 223.577 1078.68 210.096 1088.14 197.784C1098.61 184.071 1109.59 173.225 1120.77 165.545C1133.87 156.547 1146.96 152.154 1159.67 152.478C1167.43 152.677 1175.27 154.23 1183.65 157.22C1205.25 164.931 1226.01 182.019 1246.08 198.547C1247 199.304 1247.92 200.061 1248.84 200.813C1268.14 216.682 1286.73 235.365 1304.09 256.344C1340.09 299.723 1372.52 354.796 1400.51 420.034L1400.11 420.249Z" fill="#FFE492"/>
<path d="M875.397 413.679C874.281 413.679 873.18 413.676 872.098 413.67C856.011 413.593 839.119 412.165 821.895 409.424C807.856 407.147 794.016 404.004 780.758 400.087C761.817 394.499 742.808 386.469 724.254 376.222C706.337 366.325 688.293 354.054 670.621 339.746C653.304 325.728 637.13 310.108 624.974 298.065C596.529 269.966 569.466 246.479 544.535 228.256C504.157 198.742 468.174 180.75 431.292 171.635C409.041 166.136 385.169 163.236 362.185 163.236C361.828 163.236 361.474 163.236 361.118 163.238C341.373 163.315 322.626 167.493 305.312 171.998C300.805 173.178 296.144 174.467 291.456 175.834C288.887 176.59 286.315 177.37 283.593 178.194C264.395 184.02 242.634 190.62 216.197 190.078C200.097 189.747 183.652 187.849 167.749 186.011C157.48 184.824 146.863 183.598 136.736 182.857C122.814 181.84 110.003 182.166 98.6535 183.832C57.7857 189.822 23.6968 205.918 7.46311 226.89L7.08905 226.516C15.4158 215.76 27.9408 206.448 44.3157 198.835C59.9545 191.567 78.723 186.183 98.5898 183.272C109.969 181.604 122.814 181.274 136.767 182.295C146.905 183.036 157.528 184.264 167.8 185.452C183.694 187.289 200.128 189.188 216.207 189.516C242.576 190.058 264.299 183.467 283.465 177.653C286.189 176.826 288.762 176.047 291.333 175.29C296.024 173.924 300.69 172.632 305.201 171.452C322.544 166.941 341.323 162.756 361.116 162.677C384.467 162.584 408.767 165.493 431.397 171.087C450.432 175.793 468.886 182.719 487.81 192.262C506.035 201.455 524.679 213.073 544.802 227.785C569.752 246.021 596.836 269.526 625.298 297.644C637.445 309.679 653.607 325.288 670.905 339.29C706.765 368.323 743.767 388.595 780.882 399.545C794.121 403.458 807.943 406.596 821.962 408.871C839.165 411.608 856.033 413.035 872.098 413.11C897.235 413.228 926.424 412.263 954.892 399.201C969.301 392.589 981.766 382.921 993.002 369.646C1012.73 346.332 1025.81 316.409 1038.47 287.468C1044.97 272.583 1051.12 258.521 1057.8 246.35C1059.94 242.451 1062.11 238.433 1064.19 234.548C1071.25 221.42 1078.55 207.848 1086.96 195.303C1096.57 180.87 1106.88 169.163 1117.61 160.508C1130.05 150.473 1142.72 144.859 1155.29 143.821C1163.05 143.18 1170.92 143.835 1179.36 145.824C1201.93 151.139 1224.29 166.583 1247.13 183.297C1267.04 197.87 1286.85 216.438 1304.43 236.995C1323.96 259.763 1342.3 286.474 1358.96 316.384C1373.8 343.031 1387.39 372.363 1399.36 403.567L1398.9 403.793C1373.2 336.782 1341.3 280.796 1304.07 237.391C1286.52 216.864 1266.74 198.323 1246.86 183.775C1224.07 167.09 1201.74 151.676 1179.26 146.379C1170.87 144.401 1163.04 143.751 1155.33 144.388C1132.23 146.298 1108.09 164.5 1087.36 195.647C1078.96 208.17 1071.67 221.731 1064.62 234.845C1062.53 238.733 1060.37 242.752 1058.23 246.651C1051.55 258.8 1045.41 272.85 1038.91 287.722C1032.7 301.921 1026.29 316.606 1018.92 330.721C1010.57 346.724 1002.21 359.584 993.362 370.041C982.077 383.374 969.556 393.085 955.079 399.729C942.311 405.588 928.589 409.46 913.127 411.572C900.033 413.35 886.881 413.679 875.397 413.679Z" fill="#FFE492"/>
<path d="M907.303 414.815C897.158 414.815 887.413 414.126 878.694 413.429C862.663 412.146 845.779 409.484 828.512 405.514C814.533 402.254 800.78 398.18 787.637 393.402C751.646 380.344 716.112 358.609 679.007 326.959C662.825 313.159 647.57 298.309 633.336 284.284C605.234 256.676 577.2 234.291 550.007 217.747C510.015 193.415 472.597 180.48 432.251 177.04C409.262 175.081 385.02 175.88 362.143 179.352C342.994 182.256 324.942 189.266 308.09 196.195C303.874 197.937 299.389 199.841 294.763 201.85C293.607 202.355 292.441 202.87 291.259 203.389C271.85 211.935 249.888 221.605 221.702 221.605C221.227 221.605 220.753 221.603 220.274 221.596C201.205 221.376 181.736 218.277 162.906 215.277C155.441 214.087 147.721 212.859 140.313 211.865C125.844 209.925 113.313 209.352 102.002 210.118C60.8618 212.905 26.1362 224.179 6.73298 241.056L6.4007 240.56C15.9929 232.218 29.8628 224.974 46.5064 219.614C62.8774 214.341 82.0557 210.843 101.968 209.495C113.311 208.727 125.874 209.3 140.375 211.244C147.79 212.239 155.512 213.469 162.979 214.656C181.792 217.651 201.243 220.749 220.276 220.968C249.048 221.304 271.368 211.473 291.058 202.802C292.238 202.283 293.406 201.769 294.562 201.261C299.192 199.249 303.679 197.346 307.899 195.604C324.779 188.661 342.865 181.642 362.065 178.728C384.978 175.253 409.26 174.451 432.287 176.413C452.281 178.117 471.344 182.141 490.564 188.711C510.359 195.479 529.886 204.793 550.26 217.191C577.486 233.759 605.557 256.171 633.688 283.806C647.917 297.827 663.161 312.667 679.329 326.454C716.385 358.061 751.865 379.764 787.798 392.801C800.922 397.571 814.656 401.64 828.616 404.896C845.858 408.861 862.719 411.521 878.726 412.799C905.662 414.951 934.317 416.057 962.507 404.146C977.339 397.877 989.892 388.148 1000.88 374.401C1020.45 349.916 1032.64 316.517 1043.39 287.048C1048.79 272.222 1053.9 258.217 1059.54 246.279C1061.57 241.972 1063.62 237.52 1065.6 233.215C1071.79 219.745 1078.2 205.818 1085.77 192.81C1094.54 177.657 1104.19 165.089 1114.44 155.455C1126.22 144.391 1138.49 137.558 1150.91 135.149C1158.67 133.643 1166.57 133.403 1175.07 134.409C1198.79 137.225 1222.9 151.141 1245.41 165.762C1266.2 179.261 1286.73 197.196 1304.77 217.629C1324.84 240.291 1343.33 267.269 1359.73 297.808C1374.39 325.119 1387.34 355.154 1398.2 387.083L1397.69 387.307C1374.6 319.439 1342.33 260.918 1304.38 218.068C1286.38 197.674 1265.89 179.773 1245.14 166.301C1222.68 151.714 1198.64 137.832 1175.01 135.027C1166.57 134.026 1158.72 134.266 1151.01 135.761C1128.08 140.209 1105.07 160.589 1086.23 193.15C1078.67 206.13 1072.27 220.044 1066.09 233.5C1064.11 237.807 1062.06 242.26 1060.03 246.571C1054.4 258.482 1049.3 272.473 1043.89 287.284C1033.13 316.797 1020.92 350.251 1001.28 374.818C990.236 388.639 977.614 398.423 962.698 404.728C949.753 410.198 935.789 413.365 920.005 414.405C915.737 414.7 911.487 414.815 907.303 414.815Z" fill="#FFE492"/>
<path d="M927.329 417.267C927.184 417.267 927.041 417.267 926.895 417.267C912.558 417.227 898.481 415.228 885.289 413.185C869.283 410.706 852.408 406.807 835.132 401.6C821.216 397.361 807.551 392.351 794.519 386.714C759.966 371.79 725.929 348.74 687.399 314.172C673.523 301.727 659.868 288.325 646.661 275.367C645.009 273.745 643.356 272.125 641.703 270.505C613.455 242.904 584.448 221.617 555.488 207.239C515.832 187.552 475.838 179.44 433.22 182.443C409.851 184.09 385.631 188.592 363.177 195.461C345.461 200.883 329.675 209.582 310.877 220.389C307.067 222.589 302.998 224.964 298.075 227.864L297.801 228.027C288.304 233.659 277.54 240.042 265.467 244.895C251.601 250.469 238.149 253.152 224.354 253.12C202.844 253.059 180.892 248.5 159.664 244.089C154.463 243.008 149.083 241.891 143.89 240.88C128.998 237.987 116.391 236.526 105.351 236.415C64.6977 236.007 28.4818 242.867 5.9906 255.234L5.73193 254.622C16.7487 248.563 31.6095 243.647 48.7067 240.402C65.8357 237.151 85.426 235.538 105.356 235.737C116.429 235.848 129.067 237.312 143.992 240.212C149.189 241.222 154.569 242.339 159.772 243.42C180.974 247.825 202.898 252.379 224.356 252.44C224.452 252.44 224.549 252.44 224.645 252.44C255.339 252.44 278.724 238.574 297.526 227.424L297.803 227.261C302.727 224.359 306.796 221.984 310.608 219.784C329.439 208.958 345.252 200.244 363.024 194.807C385.515 187.923 409.775 183.415 433.184 181.765C454.039 180.297 473.711 181.416 493.327 185.191C514.466 189.258 534.878 196.266 555.727 206.618C584.742 221.023 613.8 242.344 642.093 269.99C643.746 271.61 645.399 273.233 647.051 274.855C660.252 287.808 673.903 301.205 687.767 313.642C726.248 348.167 760.235 371.185 794.73 386.084C807.744 391.715 821.389 396.715 835.285 400.95C852.538 406.149 869.388 410.042 885.369 412.516C913.994 416.952 942.019 420.029 970.133 409.118C985.389 403.195 998.028 393.405 1008.77 379.185C1028.17 353.498 1038.76 317.906 1048.11 286.501C1052.49 271.798 1056.63 257.91 1061.29 246.239C1063.08 241.748 1064.88 237.103 1066.63 232.61C1072.07 218.563 1077.7 204.04 1084.6 190.345C1092.54 174.465 1101.52 161.034 1111.29 150.426C1122.41 138.336 1134.27 130.288 1146.53 126.508C1154.14 124.166 1161.89 123.024 1170.23 123.024C1170.41 123.024 1170.59 123.024 1170.77 123.026C1196.69 123.18 1223.36 136.589 1243.71 148.253C1265.38 160.68 1286.61 177.981 1305.12 198.287C1325.73 220.844 1344.37 248.088 1360.51 279.262C1374.99 307.237 1387.29 337.976 1397.06 370.63L1396.49 370.849C1381.96 322.263 1354.23 252.973 1304.7 198.779C1286.24 178.518 1265.05 161.258 1243.44 148.86C1223.15 137.228 1196.56 123.858 1170.77 123.706C1162.28 123.649 1154.41 124.787 1146.69 127.166C1123.97 134.169 1102.11 156.727 1085.12 190.683C1078.23 204.345 1072.61 218.853 1067.17 232.885C1065.43 237.38 1063.63 242.027 1061.83 246.52C1057.18 258.161 1053.05 272.032 1048.68 286.718C1039.31 318.18 1028.69 353.841 1009.22 379.627C998.41 393.942 985.686 403.798 970.326 409.759C957.307 414.809 943.236 417.267 927.329 417.267Z" fill="#FFE492"/>
<path d="M943.253 420.457C940.165 420.457 937.009 420.344 933.778 420.117C919.635 419.127 905.891 416.157 891.884 412.94C875.646 409.21 859.247 404.221 841.75 397.687C827.906 392.471 814.33 386.53 801.4 380.025C768.596 363.549 736.025 339.294 695.792 301.384C685.8 291.97 675.812 282.096 666.152 272.546C660.893 267.348 655.458 261.972 650.072 256.722C621.488 228.935 591.512 208.752 560.974 196.73C520.626 180.845 479.157 177.936 434.195 187.837C410.44 193.069 386.242 201.273 364.218 211.562C346.526 219.827 331.114 231.434 314.797 243.724L313.669 244.573C311.12 246.499 308.544 248.452 305.935 250.428C304.433 251.568 302.921 252.714 301.395 253.87C291.88 261.113 281.603 268.669 269.819 274.485C256.136 281.237 242.602 284.559 228.44 284.64C204.862 284.772 180.813 278.532 157.558 272.492C154.239 271.628 150.805 270.738 147.472 269.893C131.847 265.928 119.529 263.646 108.702 262.708C68.7451 259.248 31.037 261.686 5.24298 269.399L5.07782 268.687C30.9395 260.954 68.7252 258.507 108.751 261.974C119.609 262.914 131.959 265.203 147.613 269.175C150.948 270.022 154.382 270.912 157.703 271.776C180.674 277.741 204.418 283.906 227.684 283.906C227.934 283.906 228.185 283.906 228.438 283.904C258.529 283.732 279.95 269.308 301.039 253.258C302.565 252.102 304.077 250.956 305.579 249.816C308.187 247.838 310.762 245.887 313.313 243.959L314.441 243.11C330.786 230.8 346.224 219.172 363.974 210.88C386.037 200.57 410.277 192.353 434.074 187.112C479.149 177.186 520.729 180.104 561.187 196.032C591.8 208.086 621.846 228.314 650.493 256.162C655.879 261.414 661.317 266.789 666.576 271.989C676.232 281.536 686.218 291.408 696.204 300.815C736.389 338.683 768.914 362.903 801.66 379.352C814.573 385.846 828.129 391.78 841.953 396.987C859.424 403.512 875.799 408.494 892.013 412.217C916.625 417.87 947.256 424.907 977.759 414.068C993.442 408.497 1006.16 398.645 1016.65 383.95C1035.86 357.033 1044.77 319.175 1052.63 285.776C1056.05 271.266 1059.27 257.56 1063.04 246.186C1064.5 241.755 1065.97 237.171 1067.39 232.737C1072.16 217.867 1077.09 202.492 1083.42 187.869C1090.56 171.25 1098.87 156.955 1108.12 145.382C1118.61 132.268 1130.05 123.008 1142.15 117.858C1149.92 114.552 1157.87 112.515 1166.48 111.629C1178 110.442 1190.27 111.711 1203.98 115.499C1215.58 118.707 1228.01 123.687 1241.99 130.727C1264.55 142.081 1286.49 158.75 1305.46 178.931C1326.63 201.382 1345.41 228.894 1361.29 260.701C1375.59 289.342 1387.24 320.786 1395.91 354.162L1395.29 354.371C1376.98 283.906 1344.92 221.791 1305.02 179.47C1286.1 159.343 1264.22 142.722 1241.73 131.402C1211.6 116.235 1187.71 110.184 1166.53 112.363C1157.99 113.242 1150.09 115.266 1142.38 118.547C1113.6 130.797 1094.75 163.184 1084 188.193C1077.69 202.78 1072.76 218.137 1068 232.989C1066.58 237.425 1065.11 242.011 1063.64 246.445C1059.89 257.785 1056.67 271.474 1053.26 285.966C1045.38 319.438 1036.45 357.375 1017.15 384.414C1006.58 399.225 993.758 409.156 977.95 414.773C967.236 418.579 955.81 420.457 943.253 420.457Z" fill="#FFE492"/>
<path d="M957.049 424.115C936.008 424.115 915.779 417.959 898.473 412.694C882.191 407.741 865.801 401.551 848.363 393.773C834.597 387.587 821.109 380.713 808.275 373.338C769.805 351.256 735.509 319.561 704.18 288.597C697.783 282.276 691.321 275.76 685.073 269.459C676.398 260.709 667.427 251.661 658.438 242.943C629.426 214.882 598.481 195.798 566.463 186.22C525.044 173.834 482.098 176.124 435.169 193.226C411.007 202.031 386.832 213.937 365.258 227.658C348.619 238.239 334.54 251.598 319.635 265.741C318.579 266.742 317.52 267.748 316.456 268.754L315.879 269.302C312.256 272.744 308.509 276.301 304.711 279.872C295.61 288.466 285.588 297.354 273.997 304.145C260.54 312.027 246.975 315.958 232.52 316.162C207.148 316.523 181.288 308.4 156.282 300.545C154.529 299.994 152.784 299.446 151.047 298.904C134.557 293.752 122.527 290.698 112.046 288.998C73.0921 282.686 33.8877 280.701 4.48442 283.554L4.42474 282.763C33.8758 279.904 73.1378 281.891 112.143 288.212C122.655 289.916 134.71 292.977 151.23 298.138C152.967 298.68 154.712 299.228 156.467 299.781C181.425 307.62 207.235 315.723 232.51 315.369C263.901 314.925 286.008 296.498 304.265 279.26C308.064 275.69 311.81 272.132 315.433 268.693L316.01 268.145C317.075 267.136 318.133 266.133 319.19 265.131C334.12 250.964 348.223 237.582 364.918 226.965C386.532 213.219 410.752 201.292 434.956 192.472C457.205 184.365 478.102 179.684 498.841 178.161C521.974 176.464 544.784 178.918 566.638 185.455C598.758 195.061 629.794 214.2 658.887 242.338C667.883 251.061 676.856 260.11 685.533 268.863C691.78 275.164 698.239 281.678 704.634 287.997C735.931 318.926 770.185 350.588 808.586 372.629C821.401 379.992 834.869 386.858 848.616 393.034C866.027 400.801 882.392 406.982 898.65 411.928C923.612 419.523 954.679 428.975 985.375 419.029C1001.48 413.808 1014.29 403.896 1024.53 388.725C1043.54 360.541 1050.65 320.354 1056.93 284.895C1059.45 270.648 1061.84 257.192 1064.77 246.142C1065.86 242.055 1066.95 237.831 1068 233.746C1072.13 217.768 1076.4 201.244 1082.23 185.4C1088.58 168.029 1096.23 152.867 1104.95 140.339C1114.79 126.204 1125.83 115.731 1137.76 109.213C1145.51 104.98 1153.49 102.046 1162.17 100.241C1173.86 97.8094 1186.83 97.891 1200.72 100.483C1212.89 102.753 1226.2 107.033 1240.27 113.207C1263.7 123.487 1286.36 139.521 1305.8 159.578C1327.51 181.925 1346.44 209.702 1362.06 242.143C1376.17 271.45 1387.17 303.601 1394.76 337.7L1394.08 337.895C1378.01 265.641 1346.49 202.522 1305.33 160.167C1285.95 140.176 1263.37 124.194 1240.02 113.948C1209.75 100.669 1184.33 96.4387 1162.29 101.022C1153.68 102.814 1145.75 105.728 1138.06 109.929C1109.67 125.438 1092.38 159.696 1082.88 185.706C1077.06 201.51 1072.79 218.011 1068.67 233.968C1067.62 238.054 1066.53 242.279 1065.44 246.371C1062.51 257.385 1060.13 270.823 1057.61 285.052C1054.59 302.11 1051.17 321.444 1046.2 339.57C1040.51 360.337 1033.6 376.573 1025.08 389.207C1020.15 396.512 1014.49 402.729 1008.25 407.686C1001.53 413.018 993.903 417.091 985.566 419.792C976.028 422.885 966.456 424.115 957.049 424.115Z" fill="#FFE492"/>
<path d="M969.484 428.126C962.528 428.126 955.24 427.356 947.542 425.818C932.381 422.788 917.868 417.292 905.063 412.445C888.923 406.335 872.07 398.733 854.977 389.854C841.298 382.708 827.898 374.9 815.152 366.644C778.568 342.974 747.05 311.5 712.569 275.806C709.505 272.634 706.393 269.398 703.384 266.267C691.536 253.944 679.286 241.201 666.804 229.161C637.312 200.772 605.399 182.789 571.953 175.711C529.764 166.781 484.07 174.485 436.145 198.61C411.552 210.99 387.4 226.597 366.299 243.746C350.412 256.658 337.334 271.882 323.488 288C322.081 289.638 320.668 291.281 319.248 292.93C315.712 297.04 311.904 301.452 308.03 305.868C299.906 315.159 290.006 325.747 278.177 333.797C264.936 342.81 251.336 347.353 236.605 347.682C209.637 348.287 182.186 338.118 155.637 328.285L154.627 327.911C141.628 323.099 127.878 318.236 115.395 315.284C77.3442 306.287 37.6881 300.04 3.7345 297.695L3.78026 296.848C37.7697 299.195 77.4616 305.446 115.546 314.453C128.065 317.414 141.839 322.283 154.858 327.102L155.868 327.476C182.359 337.287 209.754 347.43 236.591 346.83C267.584 346.136 288.989 326.443 307.503 305.263C311.377 300.849 315.181 296.438 318.716 292.33C320.137 290.683 321.55 289.038 322.956 287.402C336.826 271.256 349.928 256.006 365.868 243.05C387.008 225.867 411.206 210.231 435.844 197.829C458.329 186.511 480.456 178.713 501.607 174.652C525.773 170.015 549.488 170.087 572.092 174.87C605.666 181.975 637.696 200.022 667.288 228.509C679.779 240.56 692.035 253.307 703.89 265.637C706.898 268.766 710.01 272.002 713.074 275.174C747.521 310.834 779.006 342.273 815.524 365.903C828.252 374.145 841.632 381.942 855.291 389.079C872.361 397.945 889.185 405.535 905.302 411.636C930.564 421.202 962.005 433.104 993.008 423.985C1009.54 419.12 1022.43 409.149 1032.41 393.497C1051.22 364.009 1056.66 319.562 1061.03 283.847C1062.74 269.935 1064.34 256.797 1066.52 246.102C1067.21 242.731 1067.91 239.257 1068.58 235.897C1072.06 218.442 1075.66 200.391 1081.06 182.936C1089.41 155.772 1105.25 119.434 1133.38 100.577C1141.14 95.37 1149.16 91.5364 1157.87 88.8583C1180.67 81.7507 1207.82 84.0505 1238.56 95.6895C1262.87 104.895 1286.24 120.295 1306.14 140.227C1328.41 162.467 1347.48 190.513 1362.84 223.59C1369.89 238.761 1376.11 254.966 1381.35 271.753C1386.35 287.787 1390.48 304.438 1393.62 321.243L1392.89 321.42C1379.06 247.371 1348.08 183.249 1305.65 140.864C1285.82 121.007 1262.54 105.666 1238.32 96.4938C1207.73 84.9069 1180.72 82.614 1158.06 89.6763C1149.41 92.334 1141.46 96.1381 1133.76 101.306C1105.82 120.033 1090.07 156.184 1081.77 183.215C1076.38 200.625 1072.78 218.651 1069.3 236.083C1068.63 239.443 1067.94 242.919 1067.25 246.293C1065.08 256.951 1063.47 270.071 1061.77 283.963C1059.57 301.934 1057.08 322.303 1052.82 341.528C1047.92 363.619 1041.44 380.782 1033.02 393.996C1028.21 401.534 1022.59 407.891 1016.31 412.889C1009.54 418.275 1001.76 422.285 993.193 424.805C985.67 427.021 977.813 428.126 969.484 428.126Z" fill="#FFE492"/>
<path d="M980.944 432.365C972.608 432.365 963.815 431.135 954.424 428.668C939.207 424.673 924.567 418.044 911.65 412.194C895.389 404.83 878.546 395.996 861.59 385.934C848.001 377.834 834.69 369.093 822.028 359.95C787.185 334.812 757.3 302.412 725.66 268.114C724.094 266.417 722.529 264.717 720.959 263.018C706.245 247.085 691.032 230.609 675.173 215.383C645.166 186.633 612.287 169.749 577.448 165.2C533.688 159.483 486.475 172.536 437.119 203.991C412.431 219.724 387.65 239.556 367.34 259.832C352.003 275.142 339.703 292.368 326.681 310.607C325.139 312.767 323.593 314.933 322.035 317.103C318.923 321.447 315.22 326.597 311.344 331.864C304.166 341.646 294.385 354.075 282.355 363.426C269.325 373.556 255.696 378.72 240.687 379.207C228.352 379.558 214.738 377.39 199.068 372.575C185.614 368.442 172.599 363.041 158.198 356.923C145.052 351.27 131.178 345.432 118.731 341.575C81.8605 330.151 42.9148 320.148 2.97821 311.838L3.12146 310.947C43.0819 319.26 82.0495 329.272 118.94 340.701C131.421 344.568 145.315 350.416 158.477 356.074C182.615 366.331 212.657 379.1 240.666 378.3C272.687 377.258 293.266 355.086 310.734 331.28C314.608 326.016 318.308 320.869 321.418 316.528C322.976 314.357 324.522 312.191 326.062 310.034C339.106 291.765 351.428 274.51 366.814 259.15C387.167 238.834 411.996 218.963 436.731 203.2C486.236 171.65 533.612 158.563 577.54 164.3C594.382 166.5 610.926 171.609 626.708 179.485C643.642 187.934 660.121 199.781 675.686 214.692C691.563 229.934 706.786 246.419 721.508 262.363C723.078 264.065 724.646 265.762 726.211 267.459C757.821 301.728 787.68 334.096 822.456 359.187C835.1 368.315 848.391 377.045 861.96 385.132C878.892 395.178 895.709 404.001 911.947 411.353C937.466 422.908 969.227 437.289 1000.63 428.949C1017.64 424.431 1030.62 414.398 1040.29 398.28C1058.93 367.493 1062.25 320.463 1064.92 282.675C1065.87 269.16 1066.77 256.395 1068.27 246.073C1068.58 243.943 1068.88 241.802 1069.19 239.649C1071.98 220.207 1074.87 200.101 1079.88 180.48C1087.04 152.258 1101.37 113.99 1128.99 91.9486C1136.69 85.7994 1144.73 81.0685 1153.56 77.4842C1165.84 72.4565 1179.52 70.0933 1194.23 70.4559C1207.66 70.7867 1221.99 73.3854 1236.84 78.1775C1262.02 86.3046 1286.11 101.07 1306.48 120.877C1329.29 143.009 1348.52 171.326 1363.62 205.038C1370.54 220.506 1376.54 237.044 1381.45 254.191C1386.14 270.613 1389.85 287.637 1392.46 304.791L1391.68 304.945C1380.29 230.197 1349.04 163.358 1305.96 121.566C1285.68 101.845 1261.7 87.1407 1236.62 79.0452C1205.7 69.0624 1177.07 68.8177 1153.83 78.3338C1145.06 81.891 1137.09 86.5856 1129.44 92.6872C1102.02 114.576 1087.77 152.647 1080.64 180.729C1075.64 200.298 1072.76 220.375 1069.98 239.792C1069.67 241.944 1069.36 244.088 1069.05 246.218C1067.56 256.502 1066.66 269.251 1065.71 282.746C1063.03 320.642 1059.7 367.808 1040.95 398.792C1036.28 406.561 1030.71 413.064 1024.37 418.114C1017.56 423.547 1009.63 427.489 1000.81 429.832C994.446 431.518 987.852 432.365 980.944 432.365Z" fill="#FFE492"/>
<path d="M991.713 436.775C982.214 436.775 972.151 435.026 961.305 431.514C945.961 426.545 931.229 418.785 918.235 411.94C901.812 403.29 884.977 393.218 868.198 382.012C854.707 372.972 841.485 363.295 828.899 353.255C797.906 328.541 771.417 298.264 743.373 266.208C738.789 260.968 734.047 255.55 729.344 250.224C712.81 231.509 698.691 216.077 683.536 201.601C652.994 172.471 619.15 156.685 582.94 154.682C537.44 152.165 488.704 170.563 438.087 209.364C412.941 228.64 388.182 252.272 368.371 275.908C353.446 293.714 341.779 313.098 329.427 333.618C327.897 336.161 326.361 338.712 324.815 341.265C322.061 345.822 318.416 351.826 314.654 357.846C298.82 383.24 278.133 409.384 244.765 410.721C243.724 410.76 242.68 410.778 241.637 410.778C215.58 410.778 188.978 399.035 161.764 385.923L160.065 385.098C146.585 378.546 133.851 372.358 122.064 367.854C77.6448 350.879 34.6859 336.55 2.22253 325.965L2.45533 325.038C34.9267 335.628 77.8975 349.959 122.333 366.94C134.151 371.456 146.899 377.653 160.397 384.212L162.094 385.037C190.306 398.629 217.856 410.753 244.735 409.761C277.733 408.437 298.247 382.495 313.963 357.291C317.724 351.275 321.365 345.276 324.119 340.721C325.664 338.166 327.199 335.617 328.729 333.075C341.1 312.522 352.786 293.107 367.758 275.244C387.609 251.558 412.418 227.879 437.613 208.564C460.998 190.637 484.39 176.873 507.14 167.649C533.242 157.066 558.76 152.38 582.98 153.719C619.377 155.731 653.392 171.594 684.077 200.86C699.254 215.359 713.387 230.806 729.937 249.537C734.642 254.864 739.384 260.284 743.97 265.524C771.986 297.548 798.449 327.795 829.382 352.46C841.951 362.488 855.152 372.149 868.624 381.176C885.379 392.369 902.188 402.424 918.587 411.061C944.329 424.621 976.367 441.497 1008.25 433.9C1025.68 429.746 1038.74 419.655 1048.17 403.049C1066.57 370.86 1067.67 321.184 1068.56 281.269C1068.85 268.245 1069.13 255.942 1070.01 246.03L1070.03 245.803C1071.99 223.606 1074.03 200.654 1078.7 178.008C1082.74 158.255 1088.36 140.497 1095.42 125.221C1103.38 107.999 1113.19 93.8974 1124.59 83.3051C1132.22 76.2179 1140.28 70.5876 1149.25 66.0946C1173.48 53.8846 1203.17 51.9995 1235.11 60.6478C1247.96 64.128 1260.64 69.4003 1272.8 76.3153C1285.03 83.2711 1296.47 91.7518 1306.82 101.517C1330.18 123.542 1349.56 152.127 1364.39 186.477C1377.73 217.352 1387.04 252.573 1391.31 288.329L1390.48 288.458C1381.32 211.931 1350.63 144.063 1306.28 102.258C1285.53 82.6775 1260.86 68.6119 1234.92 61.5904C1203.15 52.9919 1173.65 54.8566 1149.59 66.9828C1140.7 71.4418 1132.69 77.0268 1125.13 84.0573C1103.85 103.835 1088.08 136.4 1079.52 178.232C1074.87 200.819 1072.84 223.74 1070.87 245.905L1070.85 246.132C1069.97 256.008 1069.7 268.293 1069.41 281.298C1068.52 321.336 1067.41 371.162 1048.87 403.577C1044.33 411.584 1038.79 418.228 1032.42 423.321C1025.55 428.813 1017.48 432.69 1008.43 434.849C1003.03 436.131 997.477 436.775 991.713 436.775Z" fill="#FFE492"/>
<path d="M245.383 442.326C233.732 442.326 221.044 439.741 206.724 434.462C192.496 429.216 178.425 421.975 165.337 414.933C162.967 413.651 160.615 412.371 158.28 411.1C146.652 404.772 135.669 398.794 125.404 394.138C84.4749 375.58 45.4615 358.9 7.73152 342.772L1.47998 340.099L1.79434 339.145L8.04588 341.818C45.7779 357.95 84.7972 374.63 125.735 393.194C136.027 397.861 147.024 403.845 158.666 410.182C160.999 411.453 163.351 412.733 165.719 414.013C192.585 428.469 221.129 442.478 248.813 441.229C282.845 439.616 303.239 409.428 317.202 383.311C320.779 376.631 324.226 369.974 326.828 364.922C328.265 362.137 329.691 359.355 331.114 356.579C342.913 333.571 354.057 311.838 368.712 291.347C388.058 264.303 412.843 236.811 438.506 213.938C462.314 192.717 486.34 175.951 509.917 164.106C536.961 150.518 563.375 143.467 588.427 143.148C626.123 142.509 661.136 157.277 692.477 187.037C709.851 203.554 725.428 221.422 738.376 236.722C745.422 245.049 752.467 253.584 759.282 261.838C783.403 291.059 808.345 321.273 836.318 345.745C848.813 356.679 861.929 367.274 875.297 377.232C891.841 389.528 908.642 400.816 925.236 410.78C951.173 426.355 983.451 445.738 1015.88 438.859C1033.73 435.073 1046.87 424.923 1056.05 407.828C1074.2 374.18 1072.98 321.782 1071.99 279.681C1071.7 267.23 1071.42 255.469 1071.76 246C1072.5 224.655 1073.63 199.848 1077.52 175.55C1080.8 154.961 1085.76 136.335 1092.25 120.189C1099.59 101.925 1109 86.6131 1120.21 74.6773C1127.63 66.7676 1135.96 60.0543 1144.94 54.7207C1157.77 47.0852 1172.16 42.2841 1187.72 40.4534C1202.29 38.7383 1217.66 39.64 1233.39 43.1315C1246.65 46.077 1259.73 50.9211 1272.25 57.5325C1284.85 64.1847 1296.59 72.4727 1307.16 82.1655C1319.34 93.3265 1330.54 106.506 1340.45 121.34C1349.83 135.394 1358.15 151.069 1365.17 167.926C1378.31 199.462 1386.95 235.41 1390.17 271.877L1389.28 271.979C1382.37 193.669 1352.23 124.775 1306.6 82.9608C1285.7 63.7882 1259.64 49.999 1233.22 44.133C1200.55 36.8804 1170.17 40.8545 1145.36 55.6248C1136.44 60.9152 1128.19 67.5765 1120.82 75.4227C1099.69 97.9123 1085.42 131.66 1078.4 175.733C1074.51 199.965 1073.39 224.73 1072.65 246.041C1072.32 255.476 1072.59 267.219 1072.89 279.653C1073.37 300.423 1073.92 323.967 1072.08 346.726C1069.93 373.135 1064.94 393.296 1056.81 408.36C1052.39 416.603 1046.89 423.389 1040.48 428.528C1033.56 434.079 1025.33 437.892 1016.05 439.861C1011.36 440.855 1006.68 441.306 1002.02 441.306C974.156 441.306 947.15 425.088 924.82 411.68C908.202 401.699 891.376 390.395 874.81 378.081C861.421 368.11 848.287 357.499 835.774 346.549C807.744 322.027 782.776 291.782 758.631 262.534C751.819 254.282 744.775 245.749 737.734 237.427C724.803 222.145 709.248 204.302 691.906 187.817C660.734 158.215 625.927 143.533 588.441 144.163C529.573 144.915 474.714 182.954 439.059 214.736C413.448 237.563 388.713 264.996 369.409 291.986C354.797 312.416 343.669 334.115 331.888 357.087C330.465 359.862 329.037 362.645 327.6 365.432C324.996 370.486 321.547 377.148 317.968 383.834C312.107 394.798 302.904 410.758 290.716 422.721C284.796 428.53 278.497 433.095 271.993 436.292C264.741 439.856 256.953 441.859 248.851 442.242C247.703 442.299 246.547 442.326 245.383 442.326Z" fill="#FFE492"/>
<path d="M248.384 471.4C236.718 471.4 224.056 468.615 209.812 462.933C195.065 457.051 180.485 448.781 168.168 441.465C164.384 439.213 160.608 436.929 156.955 434.72C146.744 428.546 137.098 422.711 128.003 417.949C95.3428 400.843 62.8953 384.142 31.5143 367.99C21.1342 362.647 10.402 357.123 0 351.758L0.389967 350.777C10.7919 356.142 21.5242 361.666 31.9043 367.009C63.2853 383.161 95.7367 399.864 128.399 416.972C137.518 421.749 147.176 427.587 157.398 433.771C161.049 435.98 164.826 438.261 168.606 440.513C194.15 455.68 223.778 471.735 252.148 470.224C286.981 468.325 306.546 435.361 319.701 406.856C323.074 399.553 326.335 392.222 328.798 386.65C330.064 383.791 331.321 380.934 332.577 378.083C343.862 352.447 354.521 328.233 368.93 304.98C387.67 274.737 412.436 243.436 438.659 216.843C475.18 179.968 531.625 134.989 593.133 130.111C632.25 126.925 668.253 140.596 700.137 170.749C714.463 184.302 728.629 199.936 746.075 221.444C754.891 232.313 763.639 243.578 772.1 254.47C794.111 282.807 816.869 312.11 842.514 336.568C854.937 348.421 867.964 359.946 881.231 370.826C897.295 383.988 914.09 396.508 931.145 408.041C957.343 425.648 989.948 447.564 1022.77 441.361C1040.76 438.03 1054.36 427.528 1063.19 410.15C1081.09 374.979 1077.25 317.439 1074.44 275.425C1073.66 263.635 1072.91 252.499 1072.77 243.515C1072.44 223.549 1072.47 197.224 1075.6 170.635C1081.02 124.562 1094.3 88.5459 1115.08 63.5934C1122.36 54.8023 1130.71 47.1646 1139.9 40.8908C1152.97 31.9547 1167.71 25.9438 1183.73 23.0278C1198.82 20.2817 1214.69 20.3247 1230.92 23.1569C1244.62 25.5994 1258.09 30.0266 1270.95 36.3117C1283.94 42.6603 1295.99 50.749 1306.76 60.3534C1319.21 71.4509 1330.59 84.676 1340.57 99.6638C1350.03 113.868 1358.32 129.764 1365.21 146.916C1378.15 179.116 1386.12 215.789 1388.28 252.97L1387.34 253.04C1382.69 172.942 1353.11 103.019 1306.18 61.203C1284.9 42.2321 1258.12 29.0977 1230.78 24.2218C1197.07 18.3422 1165.82 24.4257 1140.39 41.8152C1131.28 48.0369 1122.99 55.6135 1115.77 64.3343C1095.13 89.1214 1081.93 124.933 1076.54 170.781C1073.41 197.296 1073.39 223.57 1073.71 243.497C1073.86 252.449 1074.6 263.571 1075.39 275.346C1076.84 297.063 1078.48 321.68 1077.54 345.713C1076.45 373.697 1072.02 394.952 1064.01 410.692C1059.69 419.182 1054.24 426.115 1047.8 431.299C1040.81 436.92 1032.44 440.663 1022.92 442.426C1008.16 445.215 992.272 442.709 974.347 434.763C958.766 427.855 943.837 417.822 930.668 408.972C913.587 397.424 896.77 384.885 880.682 371.705C867.395 360.81 854.35 349.268 841.909 337.4C816.21 312.892 793.427 283.557 771.393 255.19C762.937 244.301 754.191 233.043 745.382 222.183C727.967 200.713 713.826 185.109 699.534 171.587C667.839 141.607 632.065 128.017 593.197 131.182C531.953 136.042 475.695 180.883 439.284 217.647C413.112 244.186 388.399 275.421 369.698 305.6C355.328 328.788 344.686 352.968 333.418 378.566C332.163 381.419 330.905 384.276 329.64 387.135C327.175 392.711 323.912 400.05 320.535 407.359C307.264 436.118 287.503 469.376 252.19 471.3C250.935 471.366 249.663 471.4 248.384 471.4Z" fill="#FFE492"/>
<path d="M252.94 505.413C221.066 505.413 187.621 483.121 157.973 463.357C148.863 457.285 140.257 451.548 132.08 446.697L0 368.355L0.459624 367.351L132.54 445.693C140.739 450.556 149.354 456.299 158.477 462.38C189.271 482.908 224.176 506.175 256.963 504.158C292.564 501.972 311.319 466.232 323.681 435.343C327.724 425.241 331.627 414.961 335.404 405.019C345.732 377.83 356.411 349.715 370.623 323.548C381.908 302.771 395.927 280.982 411.164 260.538C427.879 238.109 445.777 217.532 464.354 199.379C484.838 179.366 505.665 162.81 526.257 150.174C549.032 136.199 571.47 127.075 592.95 123.053C635.981 114.999 675.117 127.222 709.27 159.389C737.652 186.118 761.775 219.17 785.104 251.135C805.411 278.958 826.407 307.726 850.184 332.318C877.647 360.722 907.371 386.934 938.531 410.223C964.785 429.847 997.459 454.271 1031.13 448.781C1059.57 444.146 1076.02 422.476 1081.4 382.532C1085.98 348.555 1081.63 308.25 1078.13 275.866C1076.93 264.829 1075.81 254.405 1075.25 245.951C1072.2 199.35 1074.15 160.88 1081.2 128.346C1085.6 108.047 1092.1 89.9533 1100.5 74.5667C1109.89 57.3789 1121.95 43.0504 1136.33 31.9801C1148.78 22.4028 1162.8 15.447 1178.02 11.3053C1192.51 7.3629 1207.76 6.04198 1223.36 7.37876C1254.03 10.007 1284.03 22.822 1307.83 43.4605C1320.56 54.4924 1332.11 67.765 1342.17 82.9069C1351.71 97.258 1359.97 113.379 1366.72 130.825C1379.45 163.689 1386.76 201.09 1387.86 238.979L1386.87 239.018C1384.52 158.331 1354.75 85.5623 1307.23 44.3645C1256.76 0.61329 1185.12 -4.20138 1136.88 32.9203C1089.1 69.6931 1069.26 139.348 1076.24 245.867C1076.79 254.293 1077.92 264.705 1079.11 275.727C1082.62 308.182 1086.99 348.573 1082.38 382.704C1079.88 401.294 1074.84 416.234 1067.41 427.112C1063.23 433.227 1058.2 438.225 1052.44 441.964C1046.32 445.943 1039.19 448.614 1031.27 449.905C1028.04 450.433 1024.74 450.698 1021.39 450.698C1009.19 450.698 996.194 447.184 981.952 440.065C965.907 432.045 950.423 420.471 937.982 411.173C906.78 387.849 877.015 361.603 849.511 333.159C825.681 308.515 804.662 279.713 784.334 251.86C761.035 219.936 736.942 186.924 708.631 160.263C674.707 128.317 635.839 116.172 593.105 124.173C506.662 140.354 417.617 239.177 371.463 324.146C357.288 350.24 346.624 378.317 336.309 405.47C332.531 415.416 328.625 425.703 324.578 435.815C316.371 456.322 308.265 471.006 299.069 482.022C293.328 488.896 287.101 494.316 280.559 498.129C273.285 502.368 265.362 504.779 257.009 505.293C255.66 505.373 254.301 505.413 252.94 505.413Z" fill="#FFE492"/>
</g>
</svg>
