<svg width="360" height="360" viewBox="0 0 360 360" fill="none" xmlns="http://www.w3.org/2000/svg">
<rect width="360" height="360" rx="60" fill="#663ED6"/>
<path d="M210.504 142.769C209.822 135.894 206.896 130.553 201.725 126.746C196.555 122.939 189.538 121.036 180.674 121.036C174.651 121.036 169.566 121.888 165.418 123.593C161.271 125.24 158.089 127.542 155.873 130.496C153.714 133.451 152.634 136.803 152.634 140.553C152.521 143.678 153.174 146.405 154.595 148.735C156.072 151.064 158.089 153.081 160.646 154.786C163.203 156.434 166.157 157.883 169.509 159.133C172.862 160.326 176.441 161.348 180.248 162.201L195.93 165.951C203.543 167.655 210.532 169.928 216.896 172.769C223.259 175.61 228.771 179.104 233.43 183.252C238.089 187.4 241.697 192.286 244.254 197.911C246.867 203.536 248.203 209.985 248.259 217.258C248.203 227.939 245.475 237.201 240.078 245.042C234.737 252.826 227.009 258.877 216.896 263.195C206.839 267.456 194.708 269.587 180.504 269.587C166.413 269.587 154.14 267.428 143.686 263.11C133.288 258.792 125.163 252.4 119.311 243.934C113.515 235.411 110.475 224.871 110.191 212.314H145.901C146.299 218.167 147.975 223.053 150.93 226.973C153.941 230.837 157.947 233.763 162.947 235.752C168.004 237.684 173.714 238.65 180.078 238.65C186.328 238.65 191.754 237.74 196.356 235.922C201.015 234.104 204.623 231.576 207.18 228.337C209.737 225.098 211.015 221.377 211.015 217.172C211.015 213.252 209.85 209.956 207.521 207.286C205.248 204.615 201.896 202.343 197.464 200.468C193.089 198.593 187.72 196.888 181.356 195.354L162.35 190.581C147.634 187.002 136.015 181.405 127.492 173.792C118.97 166.178 114.737 155.922 114.793 143.025C114.737 132.456 117.549 123.223 123.231 115.326C128.97 107.428 136.839 101.263 146.839 96.8314C156.839 92.3996 168.203 90.1837 180.93 90.1837C193.884 90.1837 205.191 92.3996 214.85 96.8314C224.566 101.263 232.123 107.428 237.521 115.326C242.918 123.223 245.703 132.371 245.873 142.769H210.504Z" fill="white"/>
<path d="M169.646 132.713C163.843 128.965 157.842 127.928 151.643 129.602C145.444 131.276 139.585 135.581 134.064 142.515C130.313 147.227 127.813 151.736 126.563 156.043C125.269 160.314 125.088 164.237 126.019 167.811C126.986 171.34 128.936 174.273 131.87 176.608C134.244 178.643 136.785 179.831 139.492 180.17C142.235 180.465 145.069 180.144 147.995 179.205C150.877 178.231 153.851 176.822 156.916 174.977C159.938 173.098 162.967 170.934 166.005 168.487L178.706 158.553C184.781 153.658 190.912 149.606 197.098 146.397C203.284 143.187 209.45 141.052 215.597 139.99C221.744 138.928 227.814 139.149 233.807 140.652C239.836 142.11 245.713 145.082 251.438 149.567C259.76 156.264 265.307 164.166 268.08 173.273C270.844 182.299 270.765 192.114 267.844 202.716C264.915 213.238 259.027 224.056 250.18 235.169C241.404 246.193 232.071 254.45 222.181 259.94C212.327 265.385 202.266 267.761 191.997 267.067C181.72 266.293 171.581 262.107 161.58 254.508L183.821 226.57C188.647 229.904 193.514 231.636 198.421 231.766C203.319 231.816 208.104 230.505 212.774 227.831C217.434 225.078 221.747 221.212 225.71 216.234C229.603 211.344 232.271 206.533 233.715 201.799C235.194 197.022 235.463 192.624 234.522 188.607C233.58 184.59 231.465 181.271 228.175 178.653C225.108 176.211 221.804 175.07 218.264 175.229C214.759 175.344 210.893 176.551 206.666 178.851C202.474 181.106 197.797 184.245 192.633 188.268L177.062 200.165C165.096 209.449 153.481 215.054 142.216 216.98C130.951 218.906 120.291 215.83 110.236 207.753C101.932 201.215 96.4605 193.265 93.8203 183.9C91.2155 174.492 91.2936 164.496 94.0544 153.912C96.8153 143.328 102.159 133.057 110.086 123.1C118.154 112.965 126.93 105.499 136.413 100.702C145.932 95.8607 155.461 93.788 165.002 94.4838C174.543 95.1797 183.434 98.6988 191.675 105.041L169.646 132.713Z" fill="white" fill-opacity="0.2"/>
</svg>
